# mdl2obj: faith_plate.mdl
g backpiston
v -2.1096 -13.6268 -23.6495
v -2.1096 -26.9268 -0.2083
v -0.6580 -13.2885 -23.4576
v -0.6580 -26.5885 -0.0163
v -1.0470 -14.5511 -24.1739
v -1.0470 -27.8510 -0.7327
v -2.1096 -13.6268 -23.6495
v -2.1096 -26.9268 -0.2083
v -2.6140 -13.4152 -25.3188
v 0.0709 -13.4152 -25.3188
v 0.0709 -14.9683 -24.8920
v -2.6140 -14.9683 -24.8920
v 0.0709 -15.3752 -23.3335
v -2.6140 -15.3752 -23.3335
v 0.0709 -14.2290 -22.2019
v -2.6140 -14.2290 -22.2019
v -2.6140 -12.6759 -22.6287
v 0.0709 -12.6759 -22.6287
v 0.0709 -12.2690 -24.1871
v -2.6140 -12.2690 -24.1871
v 0.0709 -13.4152 -25.3188
v -2.6140 -13.4152 -25.3188
v 0.0709 -13.8221 -23.7603
v 0.0709 -13.4152 -25.3188
v 0.0709 -14.9683 -24.8920
v 0.0709 -15.3752 -23.3335
v 0.0709 -14.2290 -22.2019
v 0.0709 -12.6759 -22.6287
v 0.0709 -12.2690 -24.1871
v -2.6140 -13.8221 -23.7603
v -2.6140 -13.4152 -25.3188
v -2.6140 -14.9683 -24.8920
v -2.6140 -15.3752 -23.3335
v -2.6140 -14.2290 -22.2019
v -2.6140 -12.6759 -22.6287
v -2.6140 -12.2690 -24.1871
v 1.4529 -23.7974 -6.7371
v 1.4535 -32.2083 8.0871
v -0.1488 -34.1394 6.9915
v -0.1494 -25.7285 -7.8327
v -2.8727 -33.8980 7.1286
v -2.8733 -25.4871 -7.6956
v -3.9949 -23.3147 -6.4630
v -3.9943 -31.7255 8.3612
v -2.3919 -29.7945 9.4568
v -2.3925 -21.3836 -5.3674
v 0.3320 -30.0359 9.3197
v 0.3314 -21.6250 -5.5045
v 1.4535 -32.2083 8.0871
v 1.4529 -23.7974 -6.7371
v 1.4529 -23.7974 -6.7371
v -1.2710 -23.5561 -6.6001
v -0.1494 -25.7285 -7.8327
v -2.8733 -25.4871 -7.6956
v -3.9949 -23.3147 -6.4630
v -2.3925 -21.3836 -5.3674
v 0.3314 -21.6250 -5.5045
v -1.4961 -26.3932 0.0945
v -1.4961 -13.0932 -23.3467
v -0.4335 -27.3174 -0.4299
v -0.4335 -14.0174 -23.8711
v -1.8851 -27.6557 -0.6219
v -1.8851 -14.3557 -24.0631
v 0.0709 -14.2489 -25.3134
v -2.6140 -14.2489 -25.3134
v 0.0709 -15.3805 -24.1673
v -2.6140 -15.3805 -24.1673
v 0.0709 -14.9537 -22.6142
v -2.6140 -14.9537 -22.6142
v 0.0709 -13.3953 -22.2072
v -2.6140 -13.3953 -22.2072
v 0.0709 -12.2637 -23.3534
v -2.6140 -12.2637 -23.3534
v 0.0709 -12.6905 -24.9065
v -2.6140 -12.6905 -24.9065
v 0.0709 -14.2489 -25.3134
v 0.0709 -15.3805 -24.1673
v 0.0709 -14.9537 -22.6142
v 0.0709 -13.3953 -22.2072
v 0.0709 -12.2637 -23.3534
v 0.0709 -12.6905 -24.9065
v -2.6140 -14.2489 -25.3134
v -2.6140 -15.3805 -24.1673
v -2.6140 -14.9537 -22.6142
v -2.6140 -13.3953 -22.2072
v -2.6140 -12.2637 -23.3534
v -2.6140 -12.6905 -24.9065
v 0.9498 -33.3605 7.4333
v 0.9492 -24.9497 -7.3909
v 1.2883 -24.4024 -7.0804
v 0.4588 -25.4020 -7.6475
v -1.5480 -34.3361 6.8799
v -1.5486 -25.9252 -7.9442
v -0.8341 -25.9070 -7.9339
v -2.2441 -25.7820 -7.8630
v -3.7681 -32.9424 7.6707
v -3.7687 -24.5316 -7.1534
v -3.3934 -25.0606 -7.4536
v -3.9739 -23.9361 -6.8156
v -3.4905 -30.5733 9.0149
v -3.4911 -22.1624 -5.8093
v -3.8302 -22.7097 -6.1198
v -3.0008 -21.7101 -5.5527
v -0.9928 -29.5978 9.5683
v -0.9934 -21.1869 -5.2559
v -1.7078 -21.2052 -5.2662
v -0.2978 -21.3301 -5.3372
v 1.2274 -30.9914 8.7775
v 1.2268 -22.5805 -6.0467
v 0.8514 -22.0515 -5.7465
v 1.4320 -23.1760 -6.3846
v 1.2883 -24.4024 -7.0804
v 0.9492 -24.9497 -7.3909
v 0.4588 -25.4020 -7.6475
v -0.8341 -25.9070 -7.9339
v -1.5486 -25.9252 -7.9442
v -2.2441 -25.7820 -7.8630
v -3.3934 -25.0606 -7.4536
v -3.7687 -24.5316 -7.1534
v -3.9739 -23.9361 -6.8156
v -3.8302 -22.7097 -6.1198
v -3.4911 -22.1624 -5.8093
v -3.0008 -21.7101 -5.5527
v -1.7078 -21.2052 -5.2662
v -0.9934 -21.1869 -5.2559
v -0.2978 -21.3301 -5.3372
v 0.8514 -22.0515 -5.7465
v 1.2268 -22.5805 -6.0467
v 1.4320 -23.1760 -6.3846
vt 0.1683 0.4744
vt 0.1683 0.3946
vt 0.1755 0.4744
vt 0.1755 0.3946
vt 0.1826 0.4744
vt 0.1826 0.3946
vt 0.1897 0.4744
vt 0.1897 0.3946
vt 0.0774 0.4778
vt 0.0774 0.4657
vt 0.0860 0.4657
vt 0.0860 0.4778
vt 0.0946 0.4657
vt 0.0946 0.4778
vt 0.1032 0.4657
vt 0.1032 0.4778
vt 0.1119 0.4778
vt 0.1119 0.4657
vt 0.1205 0.4657
vt 0.1205 0.4778
vt 0.1291 0.4657
vt 0.1291 0.4778
vt 0.0878 0.4885
vt 0.0954 0.4868
vt 0.0898 0.4812
vt 0.0822 0.4832
vt 0.0801 0.4909
vt 0.0857 0.4965
vt 0.0934 0.4944
vt 0.0878 0.4885
vt 0.0955 0.4867
vt 0.0899 0.4811
vt 0.0822 0.4832
vt 0.0802 0.4908
vt 0.0858 0.4964
vt 0.0934 0.4944
vt 0.3529 0.6538
vt 0.3529 0.5850
vt 0.3650 0.5850
vt 0.3650 0.6538
vt 0.3771 0.5850
vt 0.3771 0.6538
vt 0.3893 0.6538
vt 0.3893 0.5850
vt 0.4014 0.5850
vt 0.4014 0.6538
vt 0.4135 0.5850
vt 0.4135 0.6538
vt 0.4256 0.5850
vt 0.4256 0.6538
vt 0.3004 0.6674
vt 0.2881 0.6636
vt 0.2914 0.6764
vt 0.2791 0.6731
vt 0.2758 0.6608
vt 0.2848 0.6518
vt 0.2971 0.6551
vt 0.1719 0.3946
vt 0.1719 0.4744
vt 0.1790 0.3946
vt 0.1790 0.4744
vt 0.1862 0.3946
vt 0.1862 0.4744
vt 0.0817 0.4657
vt 0.0817 0.4778
vt 0.0903 0.4657
vt 0.0903 0.4778
vt 0.0989 0.4657
vt 0.0989 0.4778
vt 0.1076 0.4657
vt 0.1076 0.4778
vt 0.1162 0.4657
vt 0.1162 0.4778
vt 0.1248 0.4657
vt 0.1248 0.4778
vt 0.0934 0.4832
vt 0.0857 0.4812
vt 0.0801 0.4868
vt 0.0822 0.4944
vt 0.0898 0.4965
vt 0.0954 0.4909
vt 0.0934 0.4832
vt 0.0858 0.4811
vt 0.0802 0.4867
vt 0.0822 0.4944
vt 0.0899 0.4964
vt 0.0955 0.4908
vt 0.3589 0.5850
vt 0.3589 0.6538
vt 0.3559 0.6538
vt 0.3620 0.6538
vt 0.3711 0.5850
vt 0.3711 0.6538
vt 0.3680 0.6538
vt 0.3741 0.6538
vt 0.3832 0.5850
vt 0.3832 0.6538
vt 0.3802 0.6538
vt 0.3862 0.6538
vt 0.3953 0.5850
vt 0.3953 0.6538
vt 0.3923 0.6538
vt 0.3984 0.6538
vt 0.4074 0.5850
vt 0.4074 0.6538
vt 0.4044 0.6538
vt 0.4105 0.6538
vt 0.4196 0.5850
vt 0.4196 0.6538
vt 0.4165 0.6538
vt 0.4226 0.6538
vt 0.2991 0.6704
vt 0.2971 0.6731
vt 0.2944 0.6751
vt 0.2881 0.6768
vt 0.2848 0.6764
vt 0.2817 0.6751
vt 0.2770 0.6704
vt 0.2758 0.6674
vt 0.2753 0.6641
vt 0.2770 0.6577
vt 0.2791 0.6551
vt 0.2817 0.6530
vt 0.2881 0.6513
vt 0.2914 0.6518
vt 0.2944 0.6530
vt 0.2991 0.6577
vt 0.3004 0.6608
vt 0.3008 0.6641
vn -0.9659 0.2251 0.1277
vn -0.9659 0.2251 0.1277
vn 0.7071 0.6150 0.3489
vn 0.7071 0.6150 0.3489
vn 0.2588 -0.8401 -0.4767
vn 0.2588 -0.8401 -0.4767
vn -0.9659 0.2251 0.1277
vn -0.9659 0.2251 0.1277
vn -0.0000 0.2526 -0.9676
vn -0.0000 0.2526 -0.9676
vn -0.0000 -0.7116 -0.7026
vn -0.0000 -0.7116 -0.7026
vn -0.0000 -0.9643 0.2650
vn -0.0000 -0.9643 0.2650
vn 0.0000 -0.2526 0.9676
vn 0.0000 -0.2526 0.9676
vn 0.0000 0.7116 0.7026
vn 0.0000 0.7116 0.7026
vn 0.0000 0.9643 -0.2650
vn 0.0000 0.9643 -0.2650
vn -0.0000 0.2526 -0.9676
vn -0.0000 0.2526 -0.9676
vn 1.0000 -0.0000 -0.0000
vn 1.0000 -0.0000 -0.0000
vn 1.0000 -0.0000 -0.0000
vn 1.0000 -0.0000 -0.0000
vn 1.0000 -0.0000 -0.0000
vn 1.0000 -0.0000 -0.0000
vn 1.0000 -0.0000 -0.0000
vn -1.0000 0.0000 -0.0000
vn -1.0000 0.0000 -0.0000
vn -1.0000 0.0000 -0.0000
vn -1.0000 0.0000 -0.0000
vn -1.0000 0.0000 -0.0000
vn -1.0000 0.0000 -0.0000
vn -1.0000 0.0000 -0.0000
vn 0.9948 -0.0896 -0.0476
vn 0.9948 -0.0896 -0.0476
vn 0.4096 -0.7948 -0.4477
vn 0.4096 -0.7948 -0.4477
vn -0.5852 -0.7067 -0.3977
vn -0.5852 -0.7067 -0.3977
vn -0.9948 0.0868 0.0525
vn -0.9948 0.0868 0.0525
vn -0.4096 0.7920 0.4527
vn -0.4096 0.7920 0.4527
vn 0.5852 0.7039 0.4026
vn 0.5852 0.7039 0.4026
vn 0.9948 -0.0896 -0.0476
vn 0.9948 -0.0896 -0.0476
vn -0.0000 0.4935 -0.8698
vn -0.0000 0.4935 -0.8698
vn -0.0000 0.4935 -0.8698
vn -0.0000 0.4935 -0.8698
vn -0.0000 0.4935 -0.8698
vn -0.0000 0.4935 -0.8698
vn -0.0000 0.4935 -0.8698
vn -0.2588 0.8401 0.4767
vn -0.2588 0.8401 0.4767
vn 0.9659 -0.2251 -0.1277
vn 0.9659 -0.2251 -0.1277
vn -0.7071 -0.6150 -0.3489
vn -0.7071 -0.6150 -0.3489
vn -0.0000 -0.2650 -0.9643
vn -0.0000 -0.2650 -0.9643
vn -0.0000 -0.9676 -0.2526
vn -0.0000 -0.9676 -0.2526
vn -0.0000 -0.7026 0.7116
vn -0.0000 -0.7026 0.7116
vn 0.0000 0.2650 0.9643
vn 0.0000 0.2650 0.9643
vn 0.0000 0.9676 0.2526
vn 0.0000 0.9676 0.2526
vn 0.0000 0.7026 -0.7116
vn 0.0000 0.7026 -0.7116
vn 1.0000 -0.0000 -0.0000
vn 1.0000 -0.0000 -0.0000
vn 1.0000 -0.0000 -0.0000
vn 1.0000 -0.0000 -0.0000
vn 1.0000 -0.0000 -0.0000
vn 1.0000 -0.0000 -0.0000
vn -1.0000 0.0000 -0.0000
vn -1.0000 0.0000 -0.0000
vn -1.0000 0.0000 -0.0000
vn -1.0000 0.0000 -0.0000
vn -1.0000 0.0000 -0.0000
vn -1.0000 0.0000 -0.0000
vn 0.8109 -0.5104 -0.2864
vn 0.8109 -0.5104 -0.2864
vn 0.9347 -0.3105 -0.1730
vn 0.6318 -0.6755 -0.3802
vn -0.1014 -0.8667 -0.4885
vn -0.1014 -0.8667 -0.4885
vn 0.1596 -0.8600 -0.4848
vn -0.3554 -0.8143 -0.4589
vn -0.9123 -0.3577 -0.1996
vn -0.9123 -0.3577 -0.1996
vn -0.7752 -0.5509 -0.3094
vn -0.9872 -0.1401 -0.0763
vn -0.8109 0.5076 0.2913
vn -0.8109 0.5076 0.2913
vn -0.9347 0.3078 0.1778
vn -0.6318 0.6728 0.3849
vn 0.1014 0.8639 0.4934
vn 0.1014 0.8639 0.4934
vn -0.1596 0.8573 0.4895
vn 0.3554 0.8116 0.4636
vn 0.9123 0.3549 0.2046
vn 0.9123 0.3549 0.2046
vn 0.7752 0.5481 0.3141
vn 0.9872 0.1374 0.0811
vn -0.0000 0.4935 -0.8698
vn -0.0000 0.4935 -0.8698
vn -0.0000 0.4935 -0.8698
vn -0.0000 0.4935 -0.8698
vn -0.0000 0.4935 -0.8698
vn -0.0000 0.4935 -0.8698
vn -0.0000 0.4935 -0.8698
vn -0.0000 0.4935 -0.8698
vn -0.0000 0.4935 -0.8698
vn -0.0000 0.4935 -0.8698
vn -0.0000 0.4935 -0.8698
vn -0.0000 0.4935 -0.8698
vn -0.0000 0.4935 -0.8698
vn -0.0000 0.4935 -0.8698
vn -0.0000 0.4935 -0.8698
vn -0.0000 0.4935 -0.8698
vn -0.0000 0.4935 -0.8698
vn -0.0000 0.4935 -0.8698
f 125/125/125 126/126/126 52/52/52
f 126/126/126 57/57/57 52/52/52
f 57/57/57 127/127/127 52/52/52
f 127/127/127 128/128/128 52/52/52
f 128/128/128 129/129/129 52/52/52
f 129/129/129 51/51/51 52/52/52
f 51/51/51 112/112/112 52/52/52
f 112/112/112 113/113/113 52/52/52
f 113/113/113 114/114/114 52/52/52
f 114/114/114 53/53/53 52/52/52
f 53/53/53 115/115/115 52/52/52
f 115/115/115 116/116/116 52/52/52
f 116/116/116 117/117/117 52/52/52
f 117/117/117 54/54/54 52/52/52
f 54/54/54 118/118/118 52/52/52
f 118/118/118 119/119/119 52/52/52
f 119/119/119 120/120/120 52/52/52
f 120/120/120 55/55/55 52/52/52
f 55/55/55 121/121/121 52/52/52
f 121/121/121 122/122/122 52/52/52
f 122/122/122 123/123/123 52/52/52
f 123/123/123 56/56/56 52/52/52
f 56/56/56 124/124/124 52/52/52
f 124/124/124 125/125/125 52/52/52
f 48/48/48 109/109/109 110/110/110
f 105/105/105 48/48/48 107/107/107
f 46/46/46 105/105/105 106/106/106
f 109/109/109 50/50/50 111/111/111
f 109/109/109 49/49/49 50/50/50
f 109/109/109 108/108/108 49/49/49
f 48/48/48 108/108/108 109/109/109
f 48/48/48 47/47/47 108/108/108
f 105/105/105 47/47/47 48/48/48
f 105/105/105 104/104/104 47/47/47
f 46/46/46 104/104/104 105/105/105
f 46/46/46 45/45/45 104/104/104
f 101/101/101 45/45/45 46/46/46
f 101/101/101 100/100/100 45/45/45
f 43/43/43 100/100/100 101/101/101
f 43/43/43 44/44/44 100/100/100
f 43/43/43 96/96/96 44/44/44
f 101/101/101 46/46/46 103/103/103
f 43/43/43 101/101/101 102/102/102
f 43/43/43 99/99/99 97/97/97
f 43/43/43 97/97/97 96/96/96
f 42/42/42 96/96/96 97/97/97
f 42/42/42 41/41/41 96/96/96
f 93/93/93 41/41/41 42/42/42
f 93/93/93 92/92/92 41/41/41
f 40/40/40 92/92/92 93/93/93
f 40/40/40 39/39/39 92/92/92
f 89/89/89 39/39/39 40/40/40
f 89/89/89 88/88/88 39/39/39
f 37/37/37 88/88/88 89/89/89
f 37/37/37 38/38/38 88/88/88
f 42/42/42 97/97/97 98/98/98
f 37/37/37 89/89/89 90/90/90
f 93/93/93 42/42/42 95/95/95
f 89/89/89 40/40/40 91/91/91
f 40/40/40 93/93/93 94/94/94
f 30/30/30 31/31/31 82/82/82
f 30/30/30 87/87/87 31/31/31
f 30/30/30 36/36/36 87/87/87
f 30/30/30 86/86/86 36/36/36
f 30/30/30 35/35/35 86/86/86
f 30/30/30 85/85/85 35/35/35
f 30/30/30 34/34/34 85/85/85
f 30/30/30 84/84/84 34/34/34
f 30/30/30 33/33/33 84/84/84
f 30/30/30 83/83/83 33/33/33
f 30/30/30 32/32/32 83/83/83
f 30/30/30 82/82/82 32/32/32
f 7/7/7 62/62/62 8/8/8
f 7/7/7 63/63/63 62/62/62
f 5/5/5 62/62/62 63/63/63
f 5/5/5 6/6/6 62/62/62
f 5/5/5 60/60/60 6/6/6
f 5/5/5 61/61/61 60/60/60
f 3/3/3 60/60/60 61/61/61
f 3/3/3 4/4/4 60/60/60
f 3/3/3 58/58/58 4/4/4
f 3/3/3 59/59/59 58/58/58
f 1/1/1 58/58/58 59/59/59
f 1/1/1 2/2/2 58/58/58
f 76/76/76 24/24/24 23/23/23
f 24/24/24 81/81/81 23/23/23
f 81/81/81 29/29/29 23/23/23
f 29/29/29 80/80/80 23/23/23
f 80/80/80 28/28/28 23/23/23
f 28/28/28 79/79/79 23/23/23
f 79/79/79 27/27/27 23/23/23
f 27/27/27 78/78/78 23/23/23
f 78/78/78 26/26/26 23/23/23
f 26/26/26 77/77/77 23/23/23
f 77/77/77 25/25/25 23/23/23
f 25/25/25 76/76/76 23/23/23
f 12/12/12 66/66/66 67/67/67
f 12/12/12 11/11/11 66/66/66
f 65/65/65 11/11/11 12/12/12
f 65/65/65 64/64/64 11/11/11
f 9/9/9 64/64/64 65/65/65
f 9/9/9 10/10/10 64/64/64
f 75/75/75 21/21/21 22/22/22
f 75/75/75 74/74/74 21/21/21
f 20/20/20 74/74/74 75/75/75
f 20/20/20 19/19/19 74/74/74
f 73/73/73 19/19/19 20/20/20
f 73/73/73 72/72/72 19/19/19
f 17/17/17 72/72/72 73/73/73
f 17/17/17 18/18/18 72/72/72
f 70/70/70 18/18/18 17/17/17
f 70/70/70 17/17/17 71/71/71
f 16/16/16 70/70/70 71/71/71
f 16/16/16 15/15/15 70/70/70
f 69/69/69 15/15/15 16/16/16
f 69/69/69 68/68/68 15/15/15
f 14/14/14 68/68/68 69/69/69
f 14/14/14 13/13/13 68/68/68
f 67/67/67 13/13/13 14/14/14
f 67/67/67 66/66/66 13/13/13
