# mdl2obj: faith_plate.mdl
g pend1
v 13.4916 -9.4457 -32.7797
v -13.8898 -9.4457 -32.7797
v 13.4916 -15.5471 -39.4600
v -13.8898 -15.5471 -39.4600
v -13.8898 -24.3831 -37.5162
v 13.4916 -24.3831 -37.5162
v -13.8898 -27.1177 -28.8920
v 13.4916 -27.1177 -28.8920
v -13.8898 -21.0163 -22.2117
v 13.4916 -21.0163 -22.2117
v -13.8898 -12.1803 -24.1555
v 13.4916 -12.1803 -24.1555
v 13.4916 -9.4457 -32.7797
v -13.8898 -9.4457 -32.7797
v -15.3680 -18.2358 -30.8315
v -13.3235 -18.2817 -30.8359
v 12.4980 -18.2817 -30.8359
v 14.5425 -18.2358 -30.8315
v -13.8898 -11.6014 -36.9373
v 13.4916 -11.6014 -36.9373
v -13.8898 -20.2255 -39.6719
v 13.4916 -20.2255 -39.6719
v -13.8898 -26.9058 -33.5705
v 13.4916 -26.9058 -33.5705
v -13.8898 -24.9620 -24.7344
v 13.4916 -24.9620 -24.7344
v -13.8898 -16.3379 -21.9998
v 13.4916 -16.3379 -21.9998
v -13.8898 -9.6576 -28.1012
v 13.4916 -9.6576 -28.1012
v -15.3680 -14.2959 14.6566
v -13.3235 -8.3787 -29.9022
v -15.3680 -10.1179 -30.0661
v -13.3235 -28.2802 -31.7785
v -15.3680 -30.6771 12.9961
v -15.3680 -26.3538 -31.5969
v -15.3680 -10.7808 -34.6724
v -13.3235 -8.4508 -32.7656
v -15.3680 -10.1747 -32.4235
v -13.3235 -9.1962 -35.4978
v -15.3680 -11.8951 -36.6595
v -13.3235 -10.5639 -37.9126
v -15.3680 -13.4414 -38.2494
v -13.3235 -12.4608 -39.8455
v -15.3680 -15.3144 -39.3339
v -13.3235 -14.7577 -41.1646
v -13.3235 -22.4116 -40.7836
v -15.3680 -19.5166 -39.7301
v -15.3680 -21.5593 -39.0148
v -13.3235 -19.9086 -41.6503
v -13.3235 -24.6364 -39.2394
v -15.3680 -23.3756 -37.7419
v -13.3235 -26.4314 -37.1228
v -15.3680 -24.8416 -35.9981
v -15.3680 -22.1098 9.8667
v -15.3680 -10.1179 -30.0661
v -15.3680 -22.1098 9.8667
v -15.3680 -26.3538 -31.5969
v -12.9469 -22.1193 9.8670
v -13.3235 -8.3787 -29.9022
v -12.9469 -22.1193 9.8670
v -13.3235 -28.2802 -31.7785
v -15.3680 -10.1747 -32.4235
v -15.3680 -10.7808 -34.6724
v -15.3680 -11.8951 -36.6595
v -15.3680 -13.4414 -38.2494
v -15.3680 -15.3144 -39.3339
v -15.3680 -17.3866 -39.8389
v -15.3680 -19.5166 -39.7301
v -15.3680 -21.5593 -39.0148
v -15.3680 -23.3756 -37.7419
v -15.3680 -24.8416 -35.9981
v -15.3680 -25.8574 -33.9021
v -13.3235 -8.4508 -32.7656
v -13.3235 -9.1962 -35.4978
v -13.3235 -10.5639 -37.9126
v -13.3235 -12.4608 -39.8455
v -13.3235 -14.7577 -41.1646
v -13.3235 -17.2980 -41.7802
v -13.3235 -19.9086 -41.6503
v -13.3235 -22.4116 -40.7836
v -13.3235 -24.6364 -39.2394
v -13.3235 -26.4314 -37.1228
v -13.3235 -27.6742 -34.5780
v -15.3680 -17.3866 -39.8389
v -13.3235 -17.2980 -41.7802
v -13.3235 -27.6742 -34.5780
v -15.3680 -25.8574 -33.9021
v 12.4980 -28.2802 -31.7785
v 14.5425 -25.8574 -33.9021
v 12.4980 -27.6742 -34.5780
v 14.5425 -26.3538 -31.5969
v 14.5425 -24.8416 -35.9981
v 12.4980 -26.4314 -37.1228
v 14.5425 -23.3756 -37.7419
v 12.4980 -24.6364 -39.2394
v 14.5425 -21.5593 -39.0148
v 12.4980 -22.4116 -40.7837
v 14.5425 -19.5166 -39.7301
v 12.4980 -19.9086 -41.6503
v 12.4980 -17.2980 -41.7802
v 14.5425 -17.3866 -39.8389
v 12.4980 -14.7577 -41.1646
v 14.5425 -15.3144 -39.3339
v 12.4980 -12.4609 -39.8455
v 14.5425 -13.4414 -38.2494
v 12.4980 -10.5639 -37.9126
v 14.5425 -11.8951 -36.6595
v 12.4980 -9.1962 -35.4978
v 14.5425 -10.7808 -34.6724
v 12.4980 -8.4508 -32.7656
v 14.5425 -10.1747 -32.4235
v 12.4980 -8.3787 -29.9022
v 14.5425 -10.1179 -30.0661
v 12.4980 -27.6742 -34.5780
v 12.4980 -28.2802 -31.7785
v 12.4980 -26.4314 -37.1228
v 12.4980 -24.6364 -39.2394
v 12.4980 -22.4116 -40.7837
v 12.4980 -19.9086 -41.6503
v 12.4980 -17.2980 -41.7802
v 12.4980 -14.7577 -41.1646
v 12.4980 -12.4609 -39.8455
v 12.4980 -10.5639 -37.9126
v 12.4980 -9.1962 -35.4978
v 12.4980 -8.4508 -32.7656
v 12.4980 -8.3787 -29.9022
v 14.5425 -26.3538 -31.5969
v 14.5425 -25.8574 -33.9021
v 14.5425 -24.8416 -35.9981
v 14.5425 -23.3756 -37.7419
v 14.5425 -21.5593 -39.0148
v 14.5425 -19.5166 -39.7301
v 14.5425 -17.3866 -39.8389
v 14.5425 -15.3144 -39.3339
v 14.5425 -13.4414 -38.2494
v 14.5425 -11.8951 -36.6595
v 14.5425 -10.7808 -34.6724
v 14.5425 -10.1747 -32.4235
v 14.5425 -10.1179 -30.0661
v 14.5425 -31.3201 19.6279
v 14.5425 -14.8986 21.1078
v 12.0239 -23.1131 20.4079
v 14.5425 -23.1093 20.3679
v 14.5425 -14.8986 21.1078
vt 0.8771 0.2941
vt 0.7580 0.2941
vt 0.8771 0.3346
vt 0.7580 0.3346
vt 0.7580 0.3751
vt 0.8771 0.3751
vt 0.7580 0.4156
vt 0.8771 0.4156
vt 0.7580 0.4561
vt 0.8771 0.4561
vt 0.7580 0.4966
vt 0.8771 0.4966
vt 0.8771 0.5371
vt 0.7580 0.5371
vt 0.8320 0.5954
vt 0.8338 0.6875
vt 0.8338 0.6875
vt 0.8320 0.5954
vt 0.7580 0.3144
vt 0.8771 0.3144
vt 0.7580 0.3549
vt 0.8771 0.3549
vt 0.7580 0.3954
vt 0.8771 0.3954
vt 0.7580 0.4358
vt 0.8771 0.4358
vt 0.7580 0.4763
vt 0.8771 0.4763
vt 0.7580 0.5168
vt 0.8771 0.5168
vt 0.6321 0.6355
vt 0.8326 0.6435
vt 0.8324 0.6315
vt 0.8318 0.5468
vt 0.6328 0.5602
vt 0.8317 0.5593
vt 0.8524 0.6265
vt 0.8461 0.6417
vt 0.8428 0.6302
vt 0.8587 0.6367
vt 0.8607 0.6207
vt 0.8695 0.6289
vt 0.8669 0.6131
vt 0.8778 0.6188
vt 0.8709 0.6044
vt 0.8830 0.6071
vt 0.8772 0.5703
vt 0.8707 0.5857
vt 0.8666 0.5770
vt 0.8827 0.5819
vt 0.8687 0.5604
vt 0.8601 0.5696
vt 0.8578 0.5529
vt 0.8518 0.5639
vt 0.6510 0.5977
vt 0.8324 0.6315
vt 0.6509 0.5970
vt 0.8317 0.5593
vt 0.6528 0.6924
vt 0.8326 0.6435
vt 0.6527 0.6931
vt 0.8352 0.7320
vt 0.8428 0.6302
vt 0.8524 0.6265
vt 0.8607 0.6207
vt 0.8669 0.6131
vt 0.8709 0.6044
vt 0.8721 0.5950
vt 0.8707 0.5857
vt 0.8666 0.5770
vt 0.8601 0.5696
vt 0.8518 0.5639
vt 0.8421 0.5604
vt 0.8451 0.6446
vt 0.8570 0.6486
vt 0.8673 0.6554
vt 0.8753 0.6643
vt 0.8805 0.6748
vt 0.8825 0.6862
vt 0.8812 0.6977
vt 0.8767 0.7086
vt 0.8692 0.7180
vt 0.8594 0.7253
vt 0.8478 0.7301
vt 0.8721 0.5950
vt 0.8846 0.5945
vt 0.8451 0.5483
vt 0.8421 0.5604
vt 0.8318 0.5468
vt 0.8421 0.5604
vt 0.8451 0.5483
vt 0.8317 0.5593
vt 0.8518 0.5639
vt 0.8578 0.5529
vt 0.8601 0.5696
vt 0.8687 0.5604
vt 0.8666 0.5770
vt 0.8772 0.5703
vt 0.8707 0.5857
vt 0.8827 0.5819
vt 0.8846 0.5945
vt 0.8721 0.5950
vt 0.8830 0.6071
vt 0.8709 0.6044
vt 0.8778 0.6188
vt 0.8669 0.6131
vt 0.8695 0.6289
vt 0.8607 0.6207
vt 0.8587 0.6367
vt 0.8524 0.6265
vt 0.8461 0.6417
vt 0.8428 0.6302
vt 0.8326 0.6435
vt 0.8324 0.6315
vt 0.8478 0.7301
vt 0.8352 0.7320
vt 0.8594 0.7253
vt 0.8692 0.7180
vt 0.8767 0.7086
vt 0.8812 0.6977
vt 0.8825 0.6862
vt 0.8805 0.6748
vt 0.8753 0.6643
vt 0.8673 0.6554
vt 0.8570 0.6486
vt 0.8451 0.6446
vt 0.8326 0.6435
vt 0.8317 0.5593
vt 0.8421 0.5604
vt 0.8518 0.5639
vt 0.8601 0.5696
vt 0.8666 0.5770
vt 0.8707 0.5857
vt 0.8721 0.5950
vt 0.8709 0.6044
vt 0.8669 0.6131
vt 0.8607 0.6207
vt 0.8524 0.6265
vt 0.8428 0.6302
vt 0.8324 0.6315
vt 0.6036 0.5609
vt 0.6046 0.6340
vt 0.6058 0.6946
vt 0.6041 0.5975
vt 0.6046 0.6340
vn -0.0000 0.9766 -0.2149
vn -0.0000 0.9766 -0.2149
vn -0.0000 0.3023 -0.9532
vn -0.0000 0.3023 -0.9532
vn -0.0000 -0.6744 -0.7384
vn -0.0000 -0.6744 -0.7384
vn 0.0000 -0.9766 0.2149
vn 0.0000 -0.9766 0.2149
vn 0.0000 -0.3023 0.9532
vn 0.0000 -0.3023 0.9532
vn 0.0000 0.6744 0.7384
vn 0.0000 0.6744 0.7384
vn -0.0000 0.9766 -0.2149
vn -0.0000 0.9766 -0.2149
vn -1.0000 -0.0000 -0.0000
vn 1.0000 0.0001 -0.0013
vn -1.0000 -0.0000 -0.0000
vn 1.0000 0.0001 -0.0013
vn -0.0000 0.7384 -0.6744
vn -0.0000 0.7384 -0.6744
vn -0.0000 -0.2149 -0.9766
vn -0.0000 -0.2149 -0.9766
vn 0.0000 -0.9532 -0.3023
vn 0.0000 -0.9532 -0.3023
vn 0.0000 -0.7384 0.6744
vn 0.0000 -0.7384 0.6744
vn 0.0000 0.2149 0.9766
vn 0.0000 0.2149 0.9766
vn 0.0000 0.9532 0.3023
vn 0.0000 0.9532 0.3023
vn -0.6476 0.7587 0.0710
vn -0.6478 0.7614 0.0261
vn -0.6478 0.7614 0.0261
vn -0.6764 -0.7279 -0.1121
vn -0.6669 -0.7419 -0.0702
vn -0.6764 -0.7279 -0.1121
vn -0.6563 0.6982 -0.2859
vn -0.6511 0.7511 -0.1094
vn -0.6511 0.7511 -0.1094
vn -0.6563 0.6982 -0.2859
vn -0.6642 0.5982 -0.4482
vn -0.6642 0.5982 -0.4482
vn -0.6735 0.4536 -0.5837
vn -0.6735 0.4536 -0.5837
vn -0.6822 0.2721 -0.6786
vn -0.6822 0.2721 -0.6786
vn -0.6927 -0.3278 -0.6424
vn -0.6922 -0.1380 -0.7084
vn -0.6927 -0.3278 -0.6424
vn -0.6922 -0.1380 -0.7084
vn -0.6913 -0.4868 -0.5340
vn -0.6913 -0.4868 -0.5340
vn -0.6893 -0.6072 -0.3952
vn -0.6893 -0.6072 -0.3952
vn -1.0000 -0.0000 -0.0000
vn -1.0000 -0.0000 -0.0000
vn -1.0000 -0.0000 -0.0000
vn -1.0000 -0.0000 -0.0000
vn 1.0000 0.0001 -0.0013
vn 1.0000 0.0001 -0.0013
vn 1.0000 0.0001 -0.0013
vn 1.0000 0.0001 -0.0013
vn -1.0000 -0.0000 -0.0000
vn -1.0000 -0.0000 -0.0000
vn -1.0000 -0.0000 -0.0000
vn -1.0000 -0.0000 -0.0000
vn -1.0000 -0.0000 -0.0000
vn -1.0000 -0.0000 -0.0000
vn -1.0000 -0.0000 -0.0000
vn -1.0000 -0.0000 -0.0000
vn -1.0000 -0.0000 -0.0000
vn -1.0000 -0.0000 -0.0000
vn -1.0000 -0.0000 -0.0000
vn 1.0000 0.0001 -0.0013
vn 1.0000 0.0001 -0.0013
vn 1.0000 0.0001 -0.0013
vn 1.0000 0.0001 -0.0013
vn 1.0000 0.0001 -0.0013
vn 1.0000 0.0001 -0.0013
vn 1.0000 0.0001 -0.0013
vn 1.0000 0.0001 -0.0013
vn 1.0000 0.0001 -0.0013
vn 1.0000 0.0001 -0.0013
vn 1.0000 0.0001 -0.0013
vn -0.6888 0.0684 -0.7217
vn -0.6888 0.0684 -0.7217
vn -0.6877 -0.6862 -0.2371
vn -0.6877 -0.6862 -0.2371
vn 0.6755 -0.7287 -0.1123
vn 0.6877 -0.6862 -0.2371
vn 0.6877 -0.6862 -0.2371
vn 0.6755 -0.7287 -0.1123
vn 0.6893 -0.6072 -0.3952
vn 0.6893 -0.6072 -0.3952
vn 0.6913 -0.4868 -0.5340
vn 0.6913 -0.4868 -0.5340
vn 0.6927 -0.3278 -0.6424
vn 0.6927 -0.3278 -0.6424
vn 0.6922 -0.1380 -0.7084
vn 0.6922 -0.1380 -0.7084
vn 0.6888 0.0684 -0.7217
vn 0.6888 0.0684 -0.7217
vn 0.6822 0.2721 -0.6786
vn 0.6822 0.2721 -0.6786
vn 0.6735 0.4536 -0.5837
vn 0.6735 0.4536 -0.5837
vn 0.6642 0.5982 -0.4482
vn 0.6642 0.5982 -0.4482
vn 0.6563 0.6982 -0.2859
vn 0.6563 0.6982 -0.2859
vn 0.6511 0.7511 -0.1094
vn 0.6511 0.7511 -0.1094
vn 0.6477 0.7615 0.0261
vn 0.6477 0.7615 0.0261
vn -1.0000 -0.0000 -0.0000
vn -1.0000 -0.0000 -0.0000
vn -1.0000 -0.0000 -0.0000
vn -1.0000 -0.0000 -0.0000
vn -1.0000 -0.0000 -0.0000
vn -1.0000 -0.0000 -0.0000
vn -1.0000 -0.0000 -0.0000
vn -1.0000 -0.0000 -0.0000
vn -1.0000 -0.0000 -0.0000
vn -1.0000 -0.0000 -0.0000
vn -1.0000 -0.0000 -0.0000
vn -1.0000 -0.0000 -0.0000
vn -1.0000 -0.0000 -0.0000
vn 1.0000 0.0001 -0.0013
vn 1.0000 0.0001 -0.0013
vn 1.0000 0.0001 -0.0013
vn 1.0000 0.0001 -0.0013
vn 1.0000 0.0001 -0.0013
vn 1.0000 0.0001 -0.0013
vn 1.0000 0.0001 -0.0013
vn 1.0000 0.0001 -0.0013
vn 1.0000 0.0001 -0.0013
vn 1.0000 0.0001 -0.0013
vn 1.0000 0.0001 -0.0013
vn 1.0000 0.0001 -0.0013
vn 1.0000 0.0001 -0.0013
vn 0.6547 -0.7556 -0.0195
vn 0.6457 0.7542 0.1195
vn -1.0000 -0.0000 -0.0000
vn 1.0000 0.0001 -0.0013
vn 1.0000 0.0001 -0.0013
f 29/29/29 13/13/13 14/14/14
f 29/29/29 30/30/30 13/13/13
f 29/29/29 12/12/12 30/30/30
f 29/29/29 11/11/11 12/12/12
f 11/11/11 28/28/28 12/12/12
f 11/11/11 27/27/27 28/28/28
f 27/27/27 10/10/10 28/28/28
f 27/27/27 9/9/9 10/10/10
f 9/9/9 26/26/26 10/10/10
f 9/9/9 25/25/25 26/26/26
f 25/25/25 8/8/8 26/26/26
f 25/25/25 7/7/7 8/8/8
f 7/7/7 24/24/24 8/8/8
f 7/7/7 23/23/23 24/24/24
f 23/23/23 6/6/6 24/24/24
f 23/23/23 5/5/5 6/6/6
f 5/5/5 22/22/22 6/6/6
f 5/5/5 21/21/21 22/22/22
f 21/21/21 3/3/3 22/22/22
f 21/21/21 4/4/4 3/3/3
f 19/19/19 3/3/3 4/4/4
f 19/19/19 20/20/20 3/3/3
f 19/19/19 1/1/1 20/20/20
f 19/19/19 2/2/2 1/1/1
f 127/127/127 17/17/17 143/143/143
f 127/127/127 126/126/126 17/17/17
f 126/126/126 125/125/125 17/17/17
f 125/125/125 124/124/124 17/17/17
f 124/124/124 123/123/123 17/17/17
f 123/123/123 122/122/122 17/17/17
f 122/122/122 121/121/121 17/17/17
f 121/121/121 120/120/120 17/17/17
f 120/120/120 119/119/119 17/17/17
f 119/119/119 118/118/118 17/17/17
f 118/118/118 117/117/117 17/17/17
f 117/117/117 115/115/115 17/17/17
f 115/115/115 116/116/116 17/17/17
f 116/116/116 143/143/143 17/17/17
f 89/89/89 92/92/92 141/141/141
f 89/89/89 90/90/90 92/92/92
f 109/109/109 110/110/110 108/108/108
f 111/111/111 110/110/110 109/109/109
f 111/111/111 112/112/112 110/110/110
f 113/113/113 112/112/112 111/111/111
f 113/113/113 114/114/114 112/112/112
f 113/113/113 142/142/142 114/114/114
f 61/61/61 62/62/62 16/16/16
f 84/84/84 16/16/16 62/62/62
f 83/83/83 16/16/16 84/84/84
f 82/82/82 16/16/16 83/83/83
f 81/81/81 16/16/16 82/82/82
f 80/80/80 16/16/16 81/81/81
f 79/79/79 16/16/16 80/80/80
f 78/78/78 16/16/16 79/79/79
f 77/77/77 16/16/16 78/78/78
f 76/76/76 16/16/16 77/77/77
f 75/75/75 16/16/16 76/76/76
f 74/74/74 16/16/16 75/75/75
f 60/60/60 16/16/16 74/74/74
f 59/59/59 16/16/16 60/60/60
f 55/55/55 56/56/56 15/15/15
f 63/63/63 15/15/15 56/56/56
f 64/64/64 15/15/15 63/63/63
f 65/65/65 15/15/15 64/64/64
f 66/66/66 15/15/15 65/65/65
f 67/67/67 15/15/15 66/66/66
f 68/68/68 15/15/15 67/67/67
f 69/69/69 15/15/15 68/68/68
f 70/70/70 15/15/15 69/69/69
f 71/71/71 15/15/15 70/70/70
f 72/72/72 15/15/15 71/71/71
f 73/73/73 15/15/15 72/72/72
f 58/58/58 15/15/15 73/73/73
f 57/57/57 15/15/15 58/58/58
f 42/42/42 44/44/44 43/43/43
f 42/42/42 43/43/43 41/41/41
f 40/40/40 42/42/42 41/41/41
f 40/40/40 41/41/41 37/37/37
f 37/37/37 38/38/38 40/40/40
f 37/37/37 39/39/39 38/38/38
f 39/39/39 32/32/32 38/38/38
f 39/39/39 33/33/33 32/32/32
f 31/31/31 32/32/32 33/33/33
f 34/34/34 35/35/35 36/36/36
f 34/34/34 36/36/36 88/88/88
f 34/34/34 88/88/88 87/87/87
f 87/87/87 88/88/88 54/54/54
f 87/87/87 54/54/54 53/53/53
f 53/53/53 54/54/54 52/52/52
f 53/53/53 52/52/52 51/51/51
f 51/51/51 52/52/52 49/49/49
f 51/51/51 49/49/49 47/47/47
f 47/47/47 49/49/49 48/48/48
f 47/47/47 48/48/48 50/50/50
f 48/48/48 86/86/86 50/50/50
f 48/48/48 85/85/85 86/86/86
f 85/85/85 46/46/46 86/86/86
f 85/85/85 45/45/45 46/46/46
f 44/44/44 46/46/46 45/45/45
f 44/44/44 45/45/45 43/43/43
f 89/89/89 91/91/91 90/90/90
f 91/91/91 93/93/93 90/90/90
f 91/91/91 94/94/94 93/93/93
f 94/94/94 95/95/95 93/93/93
f 94/94/94 96/96/96 95/95/95
f 96/96/96 97/97/97 95/95/95
f 96/96/96 98/98/98 97/97/97
f 98/98/98 99/99/99 97/97/97
f 98/98/98 100/100/100 99/99/99
f 101/101/101 99/99/99 100/100/100
f 101/101/101 102/102/102 99/99/99
f 103/103/103 102/102/102 101/101/101
f 103/103/103 104/104/104 102/102/102
f 105/105/105 104/104/104 103/103/103
f 105/105/105 106/106/106 104/104/104
f 107/107/107 106/106/106 105/105/105
f 107/107/107 108/108/108 106/106/106
f 109/109/109 108/108/108 107/107/107
f 128/128/128 129/129/129 18/18/18
f 129/129/129 130/130/130 18/18/18
f 130/130/130 131/131/131 18/18/18
f 131/131/131 132/132/132 18/18/18
f 132/132/132 133/133/133 18/18/18
f 133/133/133 134/134/134 18/18/18
f 134/134/134 135/135/135 18/18/18
f 135/135/135 136/136/136 18/18/18
f 136/136/136 137/137/137 18/18/18
f 137/137/137 138/138/138 18/18/18
f 138/138/138 139/139/139 18/18/18
f 139/139/139 140/140/140 18/18/18
f 18/18/18 140/140/140 145/145/145
f 128/128/128 18/18/18 144/144/144
