# mdl2obj: faith_plate.mdl
g clip
v -6.0967 0.8004 34.5261
v -4.9001 0.8004 34.5261
v -4.9001 0.8004 34.5261
v -4.9001 2.4233 35.6915
v -6.0967 0.8004 34.5261
v -6.0967 2.4233 35.6915
v -6.0967 -0.0283 17.4798
v -1.3330 -0.0283 17.4798
v -1.3330 3.5884 19.8121
v -6.0967 3.5884 19.8121
v -5.6967 -0.3698 18.0909
v -6.0967 -0.0283 17.4798
v -6.0967 -0.3698 18.0909
v -6.0967 -0.0283 17.4798
v -6.0967 -0.3698 18.0909
v -6.0967 2.9915 36.1003
v -4.9001 2.4233 35.6915
v -1.3330 3.2835 35.6944
v -1.3330 2.4233 35.6915
v -4.9001 3.2835 35.6944
v -6.0967 0.6310 39.3819
v -6.0967 2.9426 20.0527
v -6.0967 3.5884 19.8121
v -6.0967 -0.3698 18.0909
v -5.6967 -0.1618 18.2064
v -5.6967 -0.3698 18.0909
v -5.6967 2.9426 20.0527
v -6.0967 2.9426 20.0527
v -1.3330 -0.0283 17.4798
v -1.3330 -0.3698 18.0909
v -5.6967 2.4171 32.7966
v -5.6967 -2.7319 28.3261
v -5.6967 0.9691 32.6420
v -5.6967 -0.1618 18.2064
v -5.6967 2.9426 20.0527
v -5.6967 2.9426 20.0527
v -4.9001 -2.1092 37.4108
v -4.9001 0.6310 39.3819
v -4.9001 3.2835 35.6944
v -6.0967 -2.1092 37.4108
v -5.6967 -0.3698 18.0909
v -1.3330 -0.1618 18.2064
v -1.3330 -0.3698 18.0909
v -5.6967 -0.1618 18.2064
v -5.6967 2.4171 32.7966
v -1.3330 0.9691 32.6420
v -5.6967 0.9691 32.6420
v -1.3330 2.4172 32.7966
v -5.6967 -2.7319 28.3261
v -1.3330 0.9691 32.6420
v -1.3330 -2.7319 28.3261
v -5.6967 0.9691 32.6420
v 3.4308 0.8004 34.5261
v 2.2342 0.8004 34.5261
v 2.2342 0.8004 34.5261
v 2.2342 2.4233 35.6915
v 3.4308 0.8004 34.5261
v 3.4308 2.4233 35.6915
v 3.4308 -0.0283 17.4798
v 3.4308 3.5884 19.8121
v 3.0308 -0.3698 18.0909
v 3.4308 -0.3698 18.0909
v 3.4308 -0.0283 17.4798
v 3.4308 -0.0283 17.4798
v 3.4308 -0.3698 18.0909
v 3.4308 2.9915 36.1003
v 2.2342 3.2835 35.6944
v 2.2342 2.4233 35.6915
v 3.4308 0.6310 39.3819
v 3.4308 2.9426 20.0527
v 3.4308 3.5884 19.8121
v 3.4308 -0.3698 18.0909
v 3.0308 -0.1618 18.2064
v 3.0308 -0.3698 18.0909
v 3.4308 2.9426 20.0527
v 3.0308 2.9426 20.0527
v 3.0308 2.9426 20.0527
v 3.0308 0.9691 32.6421
v 3.0308 2.4172 32.7966
v 3.0308 -2.7319 28.3261
v 3.0308 -0.1618 18.2064
v 3.0308 2.9426 20.0527
v 2.2342 -2.1092 37.4108
v 2.2342 0.6310 39.3819
v 2.2342 3.2835 35.6944
v 3.4308 -2.1092 37.4108
v 3.0308 -0.1618 18.2064
v 3.0308 -0.3698 18.0909
v 3.0308 2.4172 32.7966
v 3.0308 0.9691 32.6421
v 3.0308 0.9691 32.6421
v 3.0308 -2.7319 28.3261
v -4.9001 -0.0450 34.7653
v -6.0967 -0.6575 35.3953
v -4.9001 -0.6575 35.3953
v -6.0967 -0.0450 34.7653
v -4.9001 1.6522 34.7415
v -6.0967 1.6522 34.7415
v -6.0967 2.4233 35.6915
v -4.9001 2.4233 35.6915
v -4.9001 -0.6575 35.3953
v -4.9001 -1.0600 38.8829
v -4.9001 -0.0450 34.7653
v -4.9001 1.6522 34.7415
v -6.0967 -1.0600 38.8829
v -6.0967 -0.6575 35.3953
v -6.0967 -0.0450 34.7653
v -6.0967 1.6522 34.7415
v -6.0967 3.3787 35.5621
v -4.9001 3.2835 35.6944
v -6.0967 2.9915 36.1003
v -4.9001 3.3787 35.5621
v -1.3330 3.0758 19.2144
v -6.0967 3.0758 19.2144
v -6.0967 3.7116 32.6460
v -1.3330 3.6622 20.7099
v -1.3330 3.7116 32.6460
v -6.0967 3.6622 20.7099
v -4.9001 3.2835 35.6944
v -1.3330 3.3787 35.5621
v -1.3330 3.2835 35.6944
v -1.3330 3.7193 34.4977
v -6.0967 3.7193 34.4977
v -4.9001 0.6310 39.3819
v -6.0967 0.6310 39.3819
v -6.0967 2.6834 19.7908
v -6.0967 3.0758 19.2144
v -6.0967 -0.1819 39.5146
v -4.9001 -1.0600 38.8829
v -6.0967 -1.0600 38.8829
v -4.9001 -0.1819 39.5146
v -6.0967 2.7907 35.1841
v -6.0967 3.3787 35.5621
v -6.0967 3.7193 34.4977
v -6.0967 3.0211 34.4640
v -6.0967 -0.1819 39.5146
v -6.0967 2.9664 20.7360
v -6.0967 3.7116 32.6460
v -6.0967 3.0143 32.6341
v -6.0967 3.6622 20.7099
v -6.0967 2.6834 19.7908
v -5.6967 2.7907 35.1841
v -6.0967 2.4233 35.6915
v -5.6967 2.4233 35.6915
v -6.0967 2.7907 35.1841
v -5.6967 3.0211 34.4641
v -6.0967 3.0211 34.4640
v -6.0967 2.9664 20.7360
v -5.6967 3.0112 31.8342
v -5.6967 2.9648 20.3361
v -6.0967 3.0143 32.6341
v -5.6967 3.0189 33.8296
v -5.6967 3.0112 31.8342
v -5.6967 3.0189 33.8296
v -5.6967 -0.4214 24.4654
v -5.6967 2.9648 20.3361
v -5.6967 -0.1618 23.5182
v -5.6967 2.9648 20.3361
v -4.9001 -1.9768 38.2234
v -6.0967 -1.9768 38.2234
v -4.9001 -2.1092 37.4108
v -6.0967 -2.1092 37.4108
v -4.9001 -1.9768 38.2234
v -4.9001 -0.1819 39.5146
v -6.0967 -1.9768 38.2234
v -6.0967 0.1001 39.6213
v -4.9001 0.1001 39.6213
v -6.0967 0.3976 39.5727
v -4.9001 0.3976 39.5727
v -6.0967 -2.2160 37.6926
v -4.9001 -2.2160 37.6926
v -4.9001 -2.1675 37.9901
v -6.0967 -2.1675 37.9901
v -6.0967 0.3976 39.5727
v -6.0967 0.1001 39.6213
v -4.9001 0.1001 39.6213
v -4.9001 0.3976 39.5727
v -6.0967 -2.2160 37.6926
v -6.0967 -2.1675 37.9901
v -4.9001 -2.2160 37.6926
v -4.9001 -2.1675 37.9901
v -1.3330 2.7907 35.1841
v -4.9001 2.4233 35.6915
v -1.3330 2.4233 35.6915
v -5.6967 2.7907 35.1841
v -1.3330 3.0211 34.4641
v -5.6967 3.0211 34.4641
v -5.6967 -0.1618 18.2064
v -1.3330 -0.1618 23.5182
v -1.3330 -0.1618 18.2064
v -5.6967 -0.1618 23.5182
v -1.3330 3.0189 33.8296
v -5.6967 3.0189 33.8296
v -5.6967 2.4171 32.7966
v -1.3330 2.4172 32.7966
v -5.6967 -0.4214 24.4654
v -1.3330 -0.4214 24.4654
v -5.6967 -2.7319 28.3261
v -1.3330 -2.7319 28.3261
v -5.6967 2.4233 35.6915
v 3.4308 -0.6575 35.3953
v 2.2342 -0.0450 34.7653
v 2.2342 -0.6575 35.3953
v 3.4308 -0.0450 34.7654
v 3.4308 1.6522 34.7415
v 2.2342 1.6522 34.7415
v 2.2342 2.4233 35.6915
v 3.4308 2.4233 35.6915
v 2.2342 -0.0450 34.7653
v 2.2342 -1.0600 38.8829
v 2.2342 -0.6575 35.3953
v 2.2342 1.6522 34.7415
v 3.4308 -1.0600 38.8829
v 3.4308 -0.0450 34.7654
v 3.4308 -0.6575 35.3953
v 3.4308 1.6522 34.7415
v 3.4308 3.0758 19.2144
v 3.4308 3.7117 32.6460
v 3.4308 3.6622 20.7099
v 3.4308 3.3787 35.5621
v 2.2342 3.2835 35.6944
v 2.2342 3.3787 35.5621
v 3.4308 2.9915 36.1003
v 2.2342 3.2835 35.6944
v 3.4308 3.7193 34.4977
v 2.2342 0.6310 39.3819
v 3.4308 0.6310 39.3819
v 3.4308 2.6834 19.7908
v 3.4308 3.0758 19.2144
v 2.2342 -0.1819 39.5146
v 3.4308 -1.0600 38.8829
v 2.2342 -1.0600 38.8829
v 3.4308 -0.1819 39.5146
v 3.4308 2.7907 35.1841
v 3.4308 3.3787 35.5621
v 3.4308 3.7193 34.4977
v 3.4308 3.0211 34.4640
v 3.4308 -0.1819 39.5146
v 3.4308 3.7117 32.6460
v 3.4308 2.9664 20.7360
v 3.4308 3.0143 32.6341
v 3.4308 3.6622 20.7099
v 3.4308 2.6834 19.7908
v 3.4308 2.4233 35.6915
v 3.0308 2.7907 35.1841
v 3.0308 2.4233 35.6915
v 3.4308 2.7907 35.1841
v 3.0308 3.0211 34.4640
v 3.4308 3.0211 34.4640
v 3.4308 2.9664 20.7360
v 3.0308 3.0112 31.8342
v 3.4308 3.0143 32.6341
v 3.0308 2.9648 20.3361
v 3.0308 2.9648 20.3361
v 3.0308 3.0112 31.8342
v 3.0308 -0.4214 24.4654
v 3.0308 3.0189 33.8296
v 3.0308 3.0189 33.8296
v 3.0308 2.9648 20.3361
v 3.0308 -0.1618 23.5182
v 2.2342 -1.9768 38.2234
v 3.4308 -1.9768 38.2234
v 3.4308 -2.1092 37.4108
v 2.2342 -2.1092 37.4108
v 2.2342 -1.9768 38.2234
v 2.2342 -0.1819 39.5146
v 3.4308 -1.9768 38.2234
v 2.2342 0.1001 39.6213
v 3.4308 0.1001 39.6213
v 3.4308 0.3976 39.5727
v 2.2342 0.3976 39.5727
v 2.2342 -2.2160 37.6926
v 3.4308 -2.2160 37.6926
v 3.4308 -2.1675 37.9901
v 2.2342 -2.1675 37.9901
v 3.4308 0.3976 39.5727
v 3.4308 0.1001 39.6213
v 2.2342 0.3976 39.5727
v 2.2342 0.1001 39.6213
v 3.4308 -2.2160 37.6926
v 3.4308 -2.1675 37.9901
v 2.2342 -2.2160 37.6926
v 2.2342 -2.1675 37.9901
v 2.2342 2.4233 35.6915
v 3.0308 2.7907 35.1841
v 3.0308 3.0211 34.4640
v 3.0308 -0.1618 18.2064
v 3.0308 -0.1618 23.5182
v 3.0308 3.0189 33.8296
v 3.0308 2.4172 32.7966
v 3.0308 -0.4214 24.4654
v 3.0308 -2.7319 28.3261
v 3.0308 2.4233 35.6915
vt 0.3901 0.9002
vt 0.3871 0.9043
vt 0.4187 0.8970
vt 0.4100 0.8971
vt 0.3901 0.9002
vt 0.3986 0.9004
vt 0.4018 0.9905
vt 0.4224 0.9905
vt 0.4224 0.9717
vt 0.4018 0.9717
vt 0.4035 0.9935
vt 0.4018 0.9905
vt 0.4018 0.9935
vt 0.4018 0.9905
vt 0.3987 0.9905
vt 0.4018 0.9003
vt 0.4094 0.8987
vt 0.4224 0.9024
vt 0.4224 0.8987
vt 0.4070 0.9024
vt 0.4018 0.8827
vt 0.3989 0.9718
vt 0.4018 0.9717
vt 0.3987 0.9905
vt 0.3961 0.9890
vt 0.3970 0.9905
vt 0.3972 0.9725
vt 0.3989 0.9718
vt 0.4224 0.9905
vt 0.4224 0.9935
vt 0.3338 0.9113
vt 0.3381 0.9405
vt 0.3381 0.9159
vt 0.3011 0.9666
vt 0.2961 0.9517
vt 0.3972 0.9709
vt 0.4215 0.8823
vt 0.4069 0.8822
vt 0.4070 0.9023
vt 0.3871 0.8827
vt 0.3760 0.9883
vt 0.3571 0.9873
vt 0.3571 0.9883
vt 0.3760 0.9873
vt 0.3760 0.9095
vt 0.3570 0.9158
vt 0.3760 0.9158
vt 0.3570 0.9095
vt 0.3760 0.9405
vt 0.3570 0.9158
vt 0.3571 0.9405
vt 0.3760 0.9158
vt 0.4548 0.9002
vt 0.4578 0.9043
vt 0.4262 0.8970
vt 0.4349 0.8971
vt 0.4548 0.9002
vt 0.4461 0.9003
vt 0.4431 0.9905
vt 0.4431 0.9717
vt 0.4414 0.9935
vt 0.4431 0.9935
vt 0.4431 0.9905
vt 0.4431 0.9905
vt 0.4461 0.9905
vt 0.4431 0.9003
vt 0.4379 0.9024
vt 0.4355 0.8987
vt 0.4431 0.8827
vt 0.4459 0.9718
vt 0.4431 0.9717
vt 0.4461 0.9905
vt 0.4487 0.9890
vt 0.4479 0.9905
vt 0.4459 0.9718
vt 0.4477 0.9709
vt 0.4476 0.9725
vt 0.3381 0.9158
vt 0.3338 0.9113
vt 0.3381 0.9405
vt 0.3011 0.9666
vt 0.2961 0.9517
vt 0.4233 0.8823
vt 0.4380 0.8822
vt 0.4379 0.9023
vt 0.4577 0.8827
vt 0.3381 0.9873
vt 0.3381 0.9883
vt 0.3381 0.9095
vt 0.3381 0.9158
vt 0.3381 0.9158
vt 0.3381 0.9405
vt 0.3831 0.8992
vt 0.3871 0.8935
vt 0.3820 0.8939
vt 0.3877 0.8973
vt 0.3933 0.9066
vt 0.3936 0.9016
vt 0.3986 0.9004
vt 0.3969 0.9029
vt 0.4216 0.8931
vt 0.4141 0.8798
vt 0.4210 0.8941
vt 0.4151 0.8985
vt 0.3946 0.8802
vt 0.3871 0.8935
vt 0.3877 0.8973
vt 0.3936 0.9016
vt 0.4018 0.9031
vt 0.4070 0.9023
vt 0.4018 0.9003
vt 0.4070 0.9031
vt 0.4224 0.9751
vt 0.4018 0.9751
vt 0.4018 0.9160
vt 0.4224 0.9678
vt 0.4224 0.9160
vt 0.4018 0.9678
vt 0.4070 0.9024
vt 0.4224 0.9031
vt 0.4224 0.9024
vt 0.4224 0.9080
vt 0.4018 0.9080
vt 0.4069 0.8822
vt 0.4018 0.8827
vt 0.3988 0.9748
vt 0.4018 0.9751
vt 0.3993 0.8802
vt 0.3946 0.8750
vt 0.3946 0.8802
vt 0.3999 0.8751
vt 0.3988 0.9034
vt 0.4018 0.9031
vt 0.4018 0.9080
vt 0.3988 0.9077
vt 0.3993 0.8802
vt 0.3988 0.9678
vt 0.4018 0.9160
vt 0.3987 0.9161
vt 0.4018 0.9678
vt 0.3988 0.9748
vt 0.3971 0.9039
vt 0.3986 0.9004
vt 0.3969 0.9030
vt 0.3988 0.9034
vt 0.3971 0.9077
vt 0.3988 0.9077
vt 0.3988 0.9678
vt 0.3970 0.9195
vt 0.3970 0.9694
vt 0.3987 0.9161
vt 0.3970 0.9109
vt 0.3291 0.9127
vt 0.3347 0.9062
vt 0.3196 0.9467
vt 0.2968 0.9507
vt 0.3161 0.9491
vt 0.3971 0.9697
vt 0.3887 0.8752
vt 0.3897 0.8802
vt 0.3820 0.8820
vt 0.3871 0.8827
vt 0.4190 0.8798
vt 0.4094 0.8799
vt 0.3897 0.8802
vt 0.4005 0.8805
vt 0.4030 0.8762
vt 0.4014 0.8815
vt 0.4058 0.8790
vt 0.3875 0.8815
vt 0.3831 0.8789
vt 0.3856 0.8764
vt 0.3884 0.8806
vt 0.4014 0.8815
vt 0.4005 0.8805
vt 0.4081 0.8802
vt 0.4072 0.8811
vt 0.3875 0.8815
vt 0.3884 0.8806
vt 0.4212 0.8811
vt 0.4203 0.8802
vt 0.3570 0.8983
vt 0.3725 0.8956
vt 0.3570 0.8956
vt 0.3760 0.8983
vt 0.3570 0.9016
vt 0.3760 0.9016
vt 0.3760 0.9873
vt 0.3571 0.9643
vt 0.3571 0.9873
vt 0.3760 0.9643
vt 0.3570 0.9043
vt 0.3760 0.9043
vt 0.3760 0.9095
vt 0.3570 0.9095
vt 0.3760 0.9600
vt 0.3571 0.9600
vt 0.3760 0.9405
vt 0.3571 0.9405
vt 0.3760 0.8956
vt 0.4577 0.8935
vt 0.4618 0.8993
vt 0.4629 0.8939
vt 0.4572 0.8973
vt 0.4512 0.9016
vt 0.4515 0.9066
vt 0.4494 0.9043
vt 0.4461 0.9003
vt 0.4239 0.8940
vt 0.4308 0.8798
vt 0.4233 0.8931
vt 0.4297 0.8984
vt 0.4503 0.8802
vt 0.4572 0.8973
vt 0.4577 0.8935
vt 0.4512 0.9016
vt 0.4431 0.9751
vt 0.4431 0.9160
vt 0.4431 0.9678
vt 0.4431 0.9031
vt 0.4379 0.9023
vt 0.4379 0.9031
vt 0.4431 0.9003
vt 0.4379 0.9024
vt 0.4431 0.9080
vt 0.4380 0.8822
vt 0.4431 0.8827
vt 0.4461 0.9748
vt 0.4431 0.9751
vt 0.4450 0.8751
vt 0.4503 0.8802
vt 0.4503 0.8750
vt 0.4456 0.8802
vt 0.4461 0.9034
vt 0.4431 0.9031
vt 0.4431 0.9080
vt 0.4461 0.9077
vt 0.4456 0.8802
vt 0.4431 0.9160
vt 0.4461 0.9678
vt 0.4461 0.9161
vt 0.4431 0.9678
vt 0.4461 0.9748
vt 0.4461 0.9003
vt 0.4478 0.9034
vt 0.4479 0.9026
vt 0.4461 0.9034
vt 0.4478 0.9074
vt 0.4461 0.9077
vt 0.4461 0.9678
vt 0.4478 0.9195
vt 0.4461 0.9161
vt 0.4478 0.9694
vt 0.4478 0.9697
vt 0.3291 0.9127
vt 0.3196 0.9467
vt 0.4478 0.9107
vt 0.3347 0.9062
vt 0.2968 0.9507
vt 0.3161 0.9491
vt 0.4559 0.8751
vt 0.4552 0.8802
vt 0.4577 0.8827
vt 0.4628 0.8821
vt 0.4259 0.8798
vt 0.4355 0.8799
vt 0.4552 0.8802
vt 0.4419 0.8762
vt 0.4444 0.8805
vt 0.4434 0.8815
vt 0.4391 0.8790
vt 0.4617 0.8789
vt 0.4574 0.8815
vt 0.4565 0.8805
vt 0.4590 0.8762
vt 0.4434 0.8815
vt 0.4444 0.8805
vt 0.4377 0.8811
vt 0.4367 0.8802
vt 0.4574 0.8815
vt 0.4565 0.8805
vt 0.4237 0.8811
vt 0.4246 0.8801
vt 0.3416 0.8956
vt 0.3381 0.8983
vt 0.3381 0.9016
vt 0.3381 0.9873
vt 0.3381 0.9643
vt 0.3381 0.9044
vt 0.3381 0.9095
vt 0.3381 0.9600
vt 0.3381 0.9405
vt 0.3381 0.8956
vn -0.0000 -0.0140 -0.9999
vn -0.0000 -0.0140 -0.9999
vn 1.0000 0.0000 0.0000
vn 1.0000 0.0000 0.0000
vn -1.0000 0.0000 0.0000
vn -1.0000 0.0000 0.0000
vn 0.0000 0.4878 -0.8730
vn 0.0000 0.4878 -0.8730
vn 0.0000 0.9228 -0.3852
vn 0.0000 0.9228 -0.3852
vn -0.0000 -0.8775 -0.4795
vn -0.0000 -0.8775 -0.4795
vn -0.0000 -0.8775 -0.4795
vn -1.0000 0.0000 0.0000
vn -1.0000 0.0000 0.0000
vn -1.0000 0.0000 0.0000
vn -0.0000 -0.0033 1.0000
vn -0.0000 -0.0033 1.0000
vn -0.0000 -0.0033 1.0000
vn -0.0000 -0.0033 1.0000
vn -1.0000 0.0000 0.0000
vn -1.0000 0.0000 0.0000
vn -1.0000 0.0000 0.0000
vn -0.0000 -0.4730 0.8811
vn -0.0688 -0.4997 0.8635
vn -0.0000 -0.4730 0.8811
vn -0.1045 -0.8613 0.4973
vn -0.1045 -0.8613 0.4973
vn -0.0000 -0.8775 -0.4795
vn -0.0000 -0.8775 -0.4795
vn -1.0000 0.0000 0.0000
vn -1.0000 0.0000 0.0000
vn -1.0000 0.0000 0.0000
vn -1.0000 0.0000 0.0000
vn -1.0000 0.0000 0.0000
vn -0.1045 -0.8613 0.4973
vn 1.0000 0.0000 0.0000
vn 1.0000 0.0000 0.0000
vn 1.0000 0.0000 0.0000
vn -1.0000 0.0000 0.0000
vn -0.0000 -0.4730 0.8811
vn -0.0000 -0.4730 0.8811
vn -0.0000 -0.4730 0.8811
vn -0.0688 -0.4997 0.8635
vn -0.0000 -0.0998 0.9950
vn -0.0000 -0.0998 0.9950
vn -0.0000 -0.0998 0.9950
vn -0.0000 -0.0998 0.9950
vn 0.0000 -0.7591 0.6510
vn 0.0000 -0.7591 0.6510
vn 0.0000 -0.7591 0.6510
vn 0.0000 -0.7591 0.6510
vn -0.0000 -0.0140 -0.9999
vn -0.0000 -0.0140 -0.9999
vn -1.0000 0.0000 0.0000
vn -1.0000 0.0000 0.0000
vn 1.0000 0.0000 0.0000
vn 1.0000 0.0000 0.0000
vn 0.0000 0.4878 -0.8730
vn 0.0000 0.9228 -0.3852
vn -0.0000 -0.8775 -0.4795
vn -0.0000 -0.8775 -0.4795
vn -0.0000 -0.8775 -0.4795
vn 1.0000 0.0000 0.0000
vn 1.0000 0.0000 0.0000
vn 1.0000 0.0000 0.0000
vn -0.0000 -0.0033 1.0000
vn -0.0000 -0.0033 1.0000
vn 1.0000 0.0000 0.0000
vn 1.0000 0.0000 0.0000
vn 1.0000 0.0000 0.0000
vn -0.0000 -0.4730 0.8811
vn 0.0688 -0.4997 0.8635
vn -0.0000 -0.4730 0.8811
vn 0.1045 -0.8613 0.4973
vn 0.1045 -0.8613 0.4973
vn 0.1045 -0.8613 0.4973
vn 1.0000 0.0000 0.0000
vn 1.0000 0.0000 0.0000
vn 1.0000 0.0000 0.0000
vn 1.0000 0.0000 0.0000
vn 1.0000 0.0000 0.0000
vn -1.0000 0.0000 0.0000
vn -1.0000 0.0000 0.0000
vn -1.0000 0.0000 0.0000
vn 1.0000 0.0000 0.0000
vn 0.0688 -0.4997 0.8635
vn -0.0000 -0.4730 0.8811
vn -0.0000 -0.0998 0.9950
vn -0.0000 -0.0998 0.9950
vn 0.0000 -0.7591 0.6510
vn 0.0000 -0.7591 0.6510
vn -0.0000 -0.5121 -0.8589
vn -0.0000 -0.7663 -0.6425
vn -0.0000 -0.7663 -0.6425
vn -0.0000 -0.5121 -0.8589
vn -0.0000 0.5383 -0.8428
vn -0.0000 0.5383 -0.8428
vn -0.0000 0.7764 -0.6302
vn -0.0000 0.7764 -0.6302
vn 1.0000 0.0000 0.0000
vn 1.0000 0.0000 0.0000
vn 1.0000 0.0000 0.0000
vn 1.0000 0.0000 0.0000
vn -1.0000 0.0000 0.0000
vn -1.0000 0.0000 0.0000
vn -1.0000 0.0000 0.0000
vn -1.0000 0.0000 0.0000
vn 0.0000 0.8931 0.4499
vn -0.0000 0.8118 0.5840
vn -0.0000 0.8118 0.5840
vn 0.0000 0.8931 0.4499
vn 0.0000 0.6333 -0.7739
vn 0.0000 0.6333 -0.7739
vn -0.0000 1.0000 -0.0041
vn -0.0000 0.9991 -0.0431
vn -0.0000 1.0000 -0.0041
vn -0.0000 0.9991 -0.0431
vn -0.0000 0.8118 0.5840
vn 0.0000 0.8931 0.4499
vn -0.0000 0.8118 0.5840
vn -0.0000 0.9884 0.1522
vn 0.0000 0.9790 0.2040
vn -0.0000 0.7286 0.6849
vn -0.0000 0.7286 0.6849
vn -1.0000 0.0000 0.0000
vn -1.0000 0.0000 0.0000
vn -0.0000 -0.4730 0.8811
vn 0.0000 -0.5840 0.8118
vn 0.0000 -0.5840 0.8118
vn -0.0000 -0.4730 0.8811
vn -1.0000 0.0000 0.0000
vn -1.0000 0.0000 0.0000
vn -1.0000 0.0000 0.0000
vn -1.0000 0.0000 0.0000
vn -1.0000 0.0000 0.0000
vn -1.0000 0.0000 0.0000
vn -1.0000 0.0000 0.0000
vn -1.0000 0.0000 0.0000
vn -1.0000 0.0000 0.0000
vn -0.1033 -0.5059 0.8564
vn -0.0000 -0.8775 -0.4795
vn -0.0000 -0.8100 -0.5864
vn -0.0000 -0.8100 -0.5864
vn -0.0000 -0.8775 -0.4795
vn 0.0001 -0.9883 -0.1525
vn 0.0001 -0.9883 -0.1525
vn 0.0110 -0.9996 0.0258
vn 0.0110 -0.9996 0.0258
vn 0.0110 -0.9996 0.0258
vn 0.0110 -0.9996 0.0258
vn 0.0001 -0.9913 0.1319
vn -1.0000 0.0000 0.0000
vn -1.0000 0.0000 0.0000
vn -1.0000 0.0000 0.0000
vn -1.0000 0.0000 0.0000
vn -1.0000 0.0000 0.0000
vn 0.0110 -0.9996 0.0258
vn 0.0000 -0.6849 0.7286
vn 0.0000 -0.6849 0.7286
vn -0.0000 -0.8775 -0.4795
vn -0.0000 -0.8775 -0.4795
vn 1.0000 0.0000 0.0000
vn 1.0000 0.0000 0.0000
vn -1.0000 0.0000 0.0000
vn -0.0000 -0.0998 0.9950
vn -0.0000 -0.0998 0.9950
vn -0.0000 0.4111 0.9116
vn -0.0000 0.4111 0.9116
vn 0.0000 -0.9950 -0.1002
vn 0.0000 -0.9950 -0.1002
vn 0.0000 -0.9117 0.4109
vn 0.0000 -0.9117 0.4109
vn -1.0000 0.0000 0.0000
vn -1.0000 0.0000 0.0000
vn 1.0000 0.0000 0.0000
vn 1.0000 0.0000 0.0000
vn -1.0000 0.0000 0.0000
vn -1.0000 0.0000 0.0000
vn 1.0000 0.0000 0.0000
vn 1.0000 0.0000 0.0000
vn -0.0000 -0.8775 -0.4795
vn -0.0000 -0.8100 -0.5864
vn -0.0000 -0.8100 -0.5864
vn -0.0000 -0.8775 -0.4795
vn 0.0001 -0.9883 -0.1525
vn 0.0001 -0.9883 -0.1525
vn 0.0110 -0.9996 0.0258
vn 0.0001 -0.9883 -0.1525
vn 0.0110 -0.9996 0.0258
vn 0.0001 -0.9883 -0.1525
vn 0.0000 -0.9650 0.2623
vn 0.0001 -0.9913 0.1319
vn 0.0000 -0.8641 0.5034
vn 0.0000 -0.8641 0.5034
vn 0.0000 -0.9197 -0.3926
vn 0.0000 -0.9197 -0.3926
vn 0.0000 -0.8581 -0.5135
vn 0.0000 -0.8581 -0.5135
vn -0.0000 -0.8100 -0.5864
vn -0.0000 -0.7663 -0.6425
vn -0.0000 -0.5121 -0.8589
vn -0.0000 -0.7663 -0.6425
vn -0.0000 -0.5121 -0.8589
vn -0.0000 0.5383 -0.8428
vn -0.0000 0.5383 -0.8428
vn -0.0000 0.7764 -0.6302
vn -0.0000 0.7764 -0.6302
vn -1.0000 0.0000 0.0000
vn -1.0000 0.0000 0.0000
vn -1.0000 0.0000 0.0000
vn -1.0000 0.0000 0.0000
vn 1.0000 0.0000 0.0000
vn 1.0000 0.0000 0.0000
vn 1.0000 0.0000 0.0000
vn 1.0000 0.0000 0.0000
vn 0.0000 0.6333 -0.7739
vn -0.0000 1.0000 -0.0041
vn -0.0000 0.9991 -0.0431
vn 0.0000 0.8931 0.4499
vn -0.0000 0.8118 0.5840
vn 0.0000 0.8931 0.4499
vn -0.0000 0.8118 0.5840
vn -0.0000 0.8118 0.5840
vn 0.0000 0.9790 0.2040
vn -0.0000 0.7286 0.6849
vn -0.0000 0.7286 0.6849
vn 1.0000 0.0000 0.0000
vn 1.0000 0.0000 0.0000
vn -0.0000 -0.4730 0.8811
vn 0.0000 -0.5840 0.8118
vn 0.0000 -0.5840 0.8118
vn -0.0000 -0.4730 0.8811
vn 1.0000 0.0000 0.0000
vn 1.0000 0.0000 0.0000
vn 1.0000 0.0000 0.0000
vn 1.0000 0.0000 0.0000
vn 1.0000 0.0000 0.0000
vn 1.0000 0.0000 0.0000
vn 1.0000 0.0000 0.0000
vn 1.0000 0.0000 0.0000
vn 1.0000 0.0000 0.0000
vn 0.1033 -0.5059 0.8564
vn -0.0000 -0.8100 -0.5864
vn -0.0000 -0.8775 -0.4795
vn -0.0000 -0.8100 -0.5864
vn -0.0000 -0.8775 -0.4795
vn 0.0001 -0.9883 -0.1525
vn 0.0000 -0.9950 -0.1002
vn 0.0110 -0.9996 0.0258
vn 0.0110 -0.9996 0.0258
vn 0.0110 -0.9996 0.0258
vn 0.0110 -0.9996 0.0258
vn 0.0110 -0.9996 0.0258
vn 1.0000 0.0000 0.0000
vn 1.0000 0.0000 0.0000
vn 0.0001 -0.9913 0.1319
vn 1.0000 0.0000 0.0000
vn 1.0000 0.0000 0.0000
vn 1.0000 0.0000 0.0000
vn 0.0000 -0.6849 0.7286
vn 0.0000 -0.6849 0.7286
vn -0.0000 -0.8775 -0.4795
vn -0.0000 -0.8775 -0.4795
vn -1.0000 0.0000 0.0000
vn -1.0000 0.0000 0.0000
vn 1.0000 0.0000 0.0000
vn -0.0000 -0.0998 0.9950
vn -0.0000 -0.0998 0.9950
vn -0.0000 0.4111 0.9116
vn -0.0000 0.4111 0.9116
vn 0.0000 -0.9950 -0.1002
vn 0.0000 -0.9950 -0.1002
vn 0.0000 -0.9117 0.4109
vn 0.0000 -0.9117 0.4109
vn 1.0000 0.0000 0.0000
vn 1.0000 0.0000 0.0000
vn -1.0000 0.0000 0.0000
vn -1.0000 0.0000 0.0000
vn 1.0000 0.0000 0.0000
vn 1.0000 0.0000 0.0000
vn -1.0000 0.0000 0.0000
vn -1.0000 0.0000 0.0000
vn -0.0000 -0.8100 -0.5864
vn -0.0000 -0.8775 -0.4795
vn 0.0001 -0.9883 -0.1525
vn 0.0110 -0.9996 0.0258
vn 0.0001 -0.9883 -0.1525
vn 0.0001 -0.9913 0.1319
vn 0.0000 -0.8641 0.5034
vn 0.0000 -0.9197 -0.3926
vn 0.0000 -0.8581 -0.5135
vn -0.0000 -0.8100 -0.5864
f 72/72/72 73/73/73 74/74/74
f 72/72/72 243/243/243 73/73/73
f 77/77/77 73/73/73 243/243/243
f 77/77/77 243/243/243 75/75/75
f 75/75/75 254/254/254 76/76/76
f 75/75/75 250/250/250 254/254/254
f 250/250/250 251/251/251 253/253/253
f 250/250/250 252/252/252 251/251/251
f 251/251/251 252/252/252 257/257/257
f 257/257/257 252/252/252 249/249/249
f 257/257/257 249/249/249 248/248/248
f 248/248/248 249/249/249 247/247/247
f 248/248/248 247/247/247 245/245/245
f 244/244/244 245/245/245 247/247/247
f 244/244/244 246/246/246 245/245/245
f 69/69/69 238/238/238 213/213/213
f 238/238/238 69/69/69 276/276/276
f 238/238/238 276/276/276 277/277/277
f 213/213/213 214/214/214 57/57/57
f 213/213/213 215/215/215 214/214/214
f 86/86/86 215/215/215 213/213/213
f 86/86/86 213/213/213 267/267/267
f 267/267/267 280/280/280 86/86/86
f 267/267/267 281/281/281 280/280/280
f 64/64/64 228/228/228 65/65/65
f 64/64/64 229/229/229 228/228/228
f 229/229/229 70/70/70 228/228/228
f 229/229/229 71/71/71 70/70/70
f 70/70/70 71/71/71 242/242/242
f 70/70/70 242/242/242 240/240/240
f 239/239/239 240/240/240 242/242/242
f 239/239/239 241/241/241 240/240/240
f 239/239/239 237/237/237 241/241/241
f 239/239/239 236/236/236 237/237/237
f 236/236/236 234/234/234 237/237/237
f 236/236/236 235/235/235 234/234/234
f 66/66/66 234/234/234 235/235/235
f 66/66/66 58/58/58 234/234/234
f 69/69/69 58/58/58 66/66/66
f 69/69/69 213/213/213 58/58/58
f 213/213/213 216/216/216 58/58/58
f 213/213/213 57/57/57 216/216/216
f 266/266/266 279/279/279 278/278/278
f 266/266/266 278/278/278 84/84/84
f 84/84/84 210/210/210 266/266/266
f 84/84/84 85/85/85 56/56/56
f 84/84/84 56/56/56 210/210/210
f 56/56/56 212/212/212 210/210/210
f 212/212/212 55/55/55 210/210/210
f 55/55/55 209/209/209 210/210/210
f 209/209/209 211/211/211 210/210/210
f 83/83/83 210/210/210 211/211/211
f 83/83/83 265/265/265 210/210/210
f 282/282/282 265/265/265 83/83/83
f 282/282/282 283/283/283 265/265/265
f 49/49/49 50/50/50 52/52/52
f 49/49/49 51/51/51 50/50/50
f 91/91/91 50/50/50 51/51/51
f 91/91/91 51/51/51 92/92/92
f 46/46/46 90/90/90 89/89/89
f 46/46/46 89/89/89 48/48/48
f 45/45/45 46/46/46 48/48/48
f 45/45/45 47/47/47 46/46/46
f 288/288/288 197/197/197 189/189/189
f 288/288/288 291/291/291 197/197/197
f 287/287/287 288/288/288 189/189/189
f 287/287/287 189/189/189 190/190/190
f 188/188/188 190/190/190 189/189/189
f 188/188/188 189/189/189 191/191/191
f 189/189/189 196/196/196 191/191/191
f 189/189/189 197/197/197 196/196/196
f 197/197/197 198/198/198 196/196/196
f 197/197/197 199/199/199 198/198/198
f 291/291/291 199/199/199 197/197/197
f 291/291/291 292/292/292 199/199/199
f 182/182/182 184/184/184 183/183/183
f 182/182/182 183/183/183 185/185/185
f 185/185/185 186/186/186 182/182/182
f 185/185/185 187/187/187 186/186/186
f 192/192/192 186/186/186 187/187/187
f 192/192/192 187/187/187 193/193/193
f 192/192/192 193/193/193 194/194/194
f 192/192/192 194/194/194 195/195/195
f 192/192/192 195/195/195 290/290/290
f 192/192/192 290/290/290 289/289/289
f 286/286/286 192/192/192 289/289/289
f 286/286/286 186/186/186 192/192/192
f 182/182/182 186/186/186 286/286/286
f 182/182/182 286/286/286 285/285/285
f 284/284/284 182/182/182 285/285/285
f 285/285/285 293/293/293 284/284/284
f 284/284/284 184/184/184 182/182/182
f 185/185/185 183/183/183 200/200/200
f 41/41/41 42/42/42 44/44/44
f 41/41/41 43/43/43 42/42/42
f 87/87/87 42/42/42 43/43/43
f 87/87/87 43/43/43 88/88/88
f 158/158/158 28/28/28 36/36/36
f 158/158/158 148/148/148 28/28/28
f 148/148/148 150/150/150 149/149/149
f 148/148/148 149/149/149 151/151/151
f 149/149/149 152/152/152 151/151/151
f 152/152/152 147/147/147 151/151/151
f 152/152/152 146/146/146 147/147/147
f 145/145/145 147/147/147 146/146/146
f 145/145/145 146/146/146 142/142/142
f 142/142/142 143/143/143 145/145/145
f 142/142/142 144/144/144 143/143/143
f 27/27/27 28/28/28 141/141/141
f 27/27/27 141/141/141 25/25/25
f 24/24/24 25/25/25 141/141/141
f 24/24/24 26/26/26 25/25/25
f 153/153/153 31/31/31 154/154/154
f 153/153/153 33/33/33 31/31/31
f 153/153/153 32/32/32 33/33/33
f 153/153/153 155/155/155 32/32/32
f 156/156/156 155/155/155 153/153/153
f 156/156/156 157/157/157 155/155/155
f 34/34/34 157/157/157 156/156/156
f 34/34/34 156/156/156 35/35/35
f 17/17/17 18/18/18 20/20/20
f 17/17/17 19/19/19 18/18/18
f 67/67/67 18/18/18 19/19/19
f 67/67/67 19/19/19 68/68/68
f 136/136/136 175/175/175 174/174/174
f 136/136/136 174/174/174 21/21/21
f 21/21/21 105/105/105 136/136/136
f 178/178/178 179/179/179 165/165/165
f 178/178/178 165/165/165 40/40/40
f 105/105/105 40/40/40 165/165/165
f 105/105/105 106/106/106 40/40/40
f 105/105/105 107/107/107 106/106/106
f 105/105/105 5/5/5 107/107/107
f 105/105/105 108/108/108 5/5/5
f 105/105/105 6/6/6 108/108/108
f 21/21/21 6/6/6 105/105/105
f 21/21/21 16/16/16 6/6/6
f 132/132/132 6/6/6 16/16/16
f 132/132/132 16/16/16 133/133/133
f 132/132/132 133/133/133 134/134/134
f 132/132/132 134/134/134 135/135/135
f 135/135/135 134/134/134 138/138/138
f 135/135/135 138/138/138 139/139/139
f 137/137/137 139/139/139 138/138/138
f 137/137/137 138/138/138 140/140/140
f 140/140/140 22/22/22 137/137/137
f 140/140/140 23/23/23 22/22/22
f 22/22/22 23/23/23 127/127/127
f 22/22/22 127/127/127 126/126/126
f 14/14/14 126/126/126 127/127/127
f 14/14/14 15/15/15 126/126/126
f 38/38/38 164/164/164 102/102/102
f 38/38/38 176/176/176 164/164/164
f 38/38/38 177/177/177 176/176/176
f 163/163/163 181/181/181 180/180/180
f 163/163/163 180/180/180 37/37/37
f 102/102/102 163/163/163 37/37/37
f 102/102/102 37/37/37 101/101/101
f 101/101/101 103/103/103 102/102/102
f 103/103/103 3/3/3 102/102/102
f 3/3/3 104/104/104 102/102/102
f 104/104/104 4/4/4 102/102/102
f 38/38/38 102/102/102 4/4/4
f 38/38/38 4/4/4 39/39/39
f 222/222/222 220/220/220 225/225/225
f 220/220/220 222/222/222 221/221/221
f 220/220/220 221/221/221 223/223/223
f 223/223/223 221/221/221 226/226/226
f 223/223/223 226/226/226 227/227/227
f 270/270/270 227/227/227 226/226/226
f 270/270/270 226/226/226 271/271/271
f 270/270/270 271/271/271 268/268/268
f 270/270/270 268/268/268 269/269/269
f 233/233/233 269/269/269 268/268/268
f 233/233/233 268/268/268 230/230/230
f 230/230/230 231/231/231 233/233/233
f 230/230/230 232/232/232 231/231/231
f 231/231/231 232/232/232 261/261/261
f 231/231/231 261/261/261 262/262/262
f 274/274/274 262/262/262 261/261/261
f 274/274/274 261/261/261 275/275/275
f 274/274/274 275/275/275 272/272/272
f 274/274/274 272/272/272 273/273/273
f 263/263/263 273/273/273 272/272/272
f 263/263/263 272/272/272 264/264/264
f 263/263/263 264/264/264 203/203/203
f 263/263/263 203/203/203 201/201/201
f 201/201/201 203/203/203 202/202/202
f 201/201/201 202/202/202 204/204/204
f 202/202/202 53/53/53 204/204/204
f 202/202/202 54/54/54 53/53/53
f 54/54/54 205/205/205 53/53/53
f 54/54/54 206/206/206 205/205/205
f 205/205/205 206/206/206 207/207/207
f 205/205/205 207/207/207 208/208/208
f 225/225/225 218/218/218 117/117/117
f 225/225/225 117/117/117 122/122/122
f 222/222/222 225/225/225 122/122/122
f 222/222/222 122/122/122 120/120/120
f 224/224/224 222/222/222 120/120/120
f 224/224/224 120/120/120 121/121/121
f 119/119/119 121/121/121 120/120/120
f 119/119/119 120/120/120 112/112/112
f 112/112/112 120/120/120 122/122/122
f 128/128/128 130/130/130 129/129/129
f 128/128/128 129/129/129 131/131/131
f 131/131/131 166/166/166 128/128/128
f 131/131/131 167/167/167 166/166/166
f 167/167/167 168/168/168 166/166/166
f 167/167/167 169/169/169 168/168/168
f 168/168/168 169/169/169 124/124/124
f 168/168/168 124/124/124 125/125/125
f 111/111/111 125/125/125 124/124/124
f 111/111/111 124/124/124 110/110/110
f 109/109/109 111/111/111 110/110/110
f 109/109/109 110/110/110 112/112/112
f 112/112/112 123/123/123 109/109/109
f 112/112/112 122/122/122 123/123/123
f 122/122/122 115/115/115 123/123/123
f 122/122/122 117/117/117 115/115/115
f 115/115/115 117/117/117 116/116/116
f 218/218/218 116/116/116 117/117/117
f 218/218/218 219/219/219 116/116/116
f 219/219/219 9/9/9 116/116/116
f 219/219/219 60/60/60 9/9/9
f 60/60/60 113/113/113 9/9/9
f 60/60/60 217/217/217 113/113/113
f 59/59/59 113/113/113 217/217/217
f 59/59/59 8/8/8 113/113/113
f 113/113/113 8/8/8 7/7/7
f 113/113/113 7/7/7 114/114/114
f 10/10/10 113/113/113 114/114/114
f 10/10/10 9/9/9 113/113/113
f 118/118/118 9/9/9 10/10/10
f 118/118/118 116/116/116 9/9/9
f 115/115/115 116/116/116 118/118/118
f 61/61/61 63/63/63 62/62/62
f 61/61/61 29/29/29 63/63/63
f 61/61/61 30/30/30 29/29/29
f 29/29/29 30/30/30 11/11/11
f 29/29/29 11/11/11 12/12/12
f 11/11/11 13/13/13 12/12/12
f 99/99/99 100/100/100 97/97/97
f 99/99/99 97/97/97 98/98/98
f 97/97/97 1/1/1 98/98/98
f 97/97/97 2/2/2 1/1/1
f 1/1/1 2/2/2 93/93/93
f 1/1/1 93/93/93 96/96/96
f 93/93/93 94/94/94 96/96/96
f 93/93/93 95/95/95 94/94/94
f 94/94/94 95/95/95 161/161/161
f 94/94/94 161/161/161 162/162/162
f 161/161/161 170/170/170 162/162/162
f 161/161/161 171/171/171 170/170/170
f 170/170/170 171/171/171 172/172/172
f 170/170/170 172/172/172 173/173/173
f 173/173/173 172/172/172 159/159/159
f 173/173/173 159/159/159 160/160/160
f 130/130/130 160/160/160 159/159/159
f 130/130/130 159/159/159 129/129/129
f 81/81/81 82/82/82 259/259/259
f 81/81/81 259/259/259 260/260/260
f 259/259/259 256/256/256 260/260/260
f 259/259/259 255/255/255 256/256/256
f 255/255/255 80/80/80 256/256/256
f 255/255/255 78/78/78 80/80/80
f 255/255/255 79/79/79 78/78/78
f 255/255/255 258/258/258 79/79/79
