# mdl2obj: faith_plate.mdl
g body
v 15.8547 -8.0785 33.7557
v 15.8547 -2.5299 33.7557
v 25.8332 -8.0785 33.7557
v 15.8547 -8.0785 10.7316
v 15.8547 -2.5299 10.7316
v 25.8332 -8.0785 10.7316
v 15.8547 -8.0785 -12.2925
v 15.8547 -2.5299 -12.2925
v 25.8332 -8.0785 -12.2925
v 15.8547 -8.0785 -35.3166
v 15.8547 -2.5299 -35.3166
v 25.8332 -8.0785 -35.3166
v 30.2133 -0.0000 62.2133
v 32.0000 -0.0000 64.0000
v 30.2133 -0.0000 62.2133
v -32.0000 0.0000 64.0000
v -30.2133 0.0000 62.2133
v 32.0000 -0.0000 64.0000
v -30.2133 0.0000 -62.2133
v 32.0000 -0.0000 -64.0000
v 30.2133 -0.0000 -62.2133
v -32.0000 0.0000 -64.0000
v 30.2133 -0.0000 62.2133
v 30.2133 -2.4751 62.2133
v 30.2133 -0.0000 62.2133
v -30.2133 -2.4750 62.2133
v 30.2133 -2.4751 62.2133
v -30.2133 0.0000 62.2133
v 30.2133 -0.0000 -62.2133
v -30.2133 -2.4750 -62.2133
v -30.2133 0.0000 -62.2133
v 30.2133 -2.4751 -62.2133
v 32.0000 -3.8526 64.0000
v 32.0000 -0.0000 64.0000
v 32.0000 -0.0000 64.0000
v -32.0000 -3.8525 64.0000
v -32.0000 0.0000 64.0000
v 32.0000 -3.8526 64.0000
v 32.0000 -0.0000 -64.0000
v -32.0000 -3.8525 -64.0000
v 32.0000 -3.8526 -64.0000
v -32.0000 0.0000 -64.0000
v 32.0000 -11.9661 64.0000
v -32.0000 -11.9661 64.0000
v 32.0000 -11.9661 64.0000
v 31.9993 -11.9661 -63.9997
v -32.0000 -11.9661 -64.0000
v 32.0000 -11.9661 64.0000
v -18.2212 -11.9661 58.1412
v -32.0000 -11.9661 64.0000
v 18.2212 -11.9661 58.1412
v 18.2212 -11.9661 58.1412
v -18.2212 -11.9661 58.1412
v 18.2212 -57.4780 39.1709
v 18.2212 -11.9661 58.1412
v 18.2212 -48.3765 50.4083
v -3.0901 -11.9661 -57.7439
v -32.0000 -11.9661 -64.0000
v -31.9986 -11.9661 -63.9994
v 31.9993 -11.9661 -63.9997
v -3.0901 -57.4779 -57.7439
v -3.0901 -11.9661 -57.7439
v -27.4071 -11.9661 30.8863
v -27.4071 -11.9661 -1.9050
v 10.6556 -11.9661 -55.7167
v 10.6556 -57.4779 -55.7167
v -18.2212 -11.9661 -42.6128
v -16.1940 -57.4779 -50.1783
v -16.1940 -11.9661 -50.1783
v -3.0901 -11.9661 -57.7439
v -3.0901 -57.4779 -57.7439
v 18.2212 -11.9661 -42.6128
v 10.6556 -11.9661 -55.7167
v 18.2212 -57.4780 -42.6128
v 10.6556 -57.4779 -55.7167
v -16.1940 -11.9661 -50.1783
v -18.2212 -11.9661 -42.6128
v -3.0901 -57.4779 -57.7439
v -18.2212 -57.4779 -42.6128
v -16.1940 -57.4779 -50.1783
v -18.2212 -48.3764 50.4083
v -18.2212 -54.8819 34.8652
v -18.2212 -57.4779 39.1709
v -30.2133 0.0000 -62.2133
v -30.2133 -2.4750 -62.2133
v -30.2133 0.0000 -62.2133
v -32.0000 0.0000 -64.0000
v -32.0000 0.0000 -64.0000
v -32.0000 -3.8525 -64.0000
v -32.0000 -11.9661 -64.0000
v -32.0000 -11.9661 -64.0000
v -18.2212 -54.8819 -5.8840
v -18.2212 -11.9661 -5.8840
v 31.9993 -11.9661 -63.9997
v 32.0000 -3.8526 -64.0000
v 32.0000 -0.0000 -64.0000
v 30.2133 -0.0000 -62.2133
v 32.0000 -0.0000 -64.0000
v 30.2133 -0.0000 -62.2133
v 30.2133 -2.4751 -62.2133
v -18.2212 -57.4779 -42.6128
v -18.2212 -57.4779 -42.6128
v -18.2212 -11.9661 34.8652
v -18.2212 -11.9661 58.1412
v -32.0000 -3.8525 64.0000
v -32.0000 -11.9661 64.0000
v -32.0000 0.0000 64.0000
v -30.2133 0.0000 62.2133
v -32.0000 0.0000 64.0000
v -30.2133 0.0000 62.2133
v -30.2133 -2.4750 62.2133
v -27.4241 -55.5102 0.2904
v -27.4241 -11.9661 0.2904
v -27.4241 -55.5102 0.2904
v -18.0546 -55.5102 -6.6643
v -17.8134 -55.5102 35.6455
v -27.4241 -55.5102 28.7324
v -26.7803 -55.5102 33.2431
v -26.7803 -55.5102 -4.2619
v -27.4241 -11.9661 0.2904
v -27.4241 -55.5102 28.7324
v -27.4241 -55.5102 0.2904
v -27.4241 -11.9661 28.7324
v -13.0155 -53.3701 33.2019
v -17.8134 -53.3701 -3.6099
v -7.1761 -53.3701 42.3781
v -13.0155 -53.3701 36.5387
v -25.0074 -53.3701 33.2019
v -25.0074 -53.3701 -3.6099
v -17.8134 -53.3701 -38.5720
v -9.5745 -53.3701 -52.8422
v -1.3355 -53.3701 -55.0498
v 6.9034 -53.3701 -52.8422
v 15.1423 -53.3701 -38.5720
v 15.1423 -53.3701 33.2019
v 15.1423 -53.3701 36.5387
v 9.3029 -53.3701 42.3781
v -13.0155 -7.8475 33.2019
v -13.0155 -53.3701 33.2019
v -13.0155 -7.8475 33.2019
v -25.0074 -53.3701 33.2019
v -13.0155 -53.3701 33.2019
v -25.0074 -7.8475 33.2019
v -25.0074 -7.8475 33.2019
v -25.0074 -53.3701 -3.6099
v -25.0074 -53.3701 33.2019
v -25.0074 -7.8475 -3.6099
v -25.0074 -7.8475 -3.6099
v -17.8134 -53.3701 -3.6099
v -25.0074 -53.3701 -3.6099
v -17.8134 -7.8475 -3.6099
v -17.8134 -7.8475 -3.6099
v -17.8134 -53.3701 -3.6099
v -9.5745 -53.3701 -52.8422
v -9.5745 -7.8475 -52.8422
v -1.3355 -53.3701 -55.0498
v -1.3355 -7.8475 -55.0498
v 6.9034 -53.3701 -52.8422
v 6.9034 -7.8475 -52.8422
v 15.1423 -53.3701 33.2019
v 15.1423 -7.8475 33.2019
v -1.3355 -7.8475 -55.0498
v -30.2133 -7.8475 -62.2133
v -30.2133 -2.4750 -62.2133
v -30.2133 -7.8475 62.2133
v -30.2133 -2.4750 62.2133
v -30.2133 -2.4750 62.2133
v -30.2133 -7.8475 62.2133
v 30.2133 -7.8475 62.2133
v 30.2133 -2.4750 62.2133
v 30.2133 -7.8475 -62.2133
v 30.2133 -2.4750 -62.2133
v 30.2133 -2.4750 -62.2133
v 30.2133 -7.8475 -62.2133
v -17.8134 -7.8475 -38.5720
v -30.2133 -7.8475 -62.2133
v -9.5745 -7.8475 -52.8422
v 6.9034 -7.8475 -52.8422
v 30.2133 -7.8475 -62.2133
v 15.1423 -7.8475 -38.5720
v 30.2133 -7.8475 62.2133
v 15.1423 -7.8475 41.8658
v 30.2133 -7.8475 62.2133
v 30.2133 -2.4750 62.2133
v -25.0074 -7.8475 -3.6099
v -30.2133 -7.8475 -62.2133
v -30.2133 -2.4750 -62.2133
v -25.0074 -7.8475 33.2019
v -13.0155 -7.8475 33.2019
v -30.2133 -7.8475 62.2133
v -13.0155 -7.8475 41.8658
v -7.1761 -7.8475 47.7052
v 9.3029 -7.8475 47.7052
v 15.1423 -7.8475 33.2019
v -17.8134 -7.8475 -3.6099
v -18.5917 -8.0785 -36.0894
v -18.5917 -2.5299 -36.0894
v -28.5702 -8.0785 -36.0894
v -18.5917 -8.0785 -15.8105
v -18.5917 -2.5299 -15.8105
v -28.5702 -8.0785 -15.8105
v -12.5418 -9.7336 32.6147
v -24.4660 -0.0000 32.6147
v -24.4660 -9.7336 32.6147
v -12.5418 -0.0000 32.6147
v -24.4660 -9.7336 32.6147
v -24.4660 -0.0000 -3.2781
v -24.4660 -9.7336 -3.2781
v -24.4660 -0.0000 32.6147
v 6.7964 -0.0000 -52.4611
v 6.7964 -9.7336 -52.4611
v -1.3330 -0.0000 -54.6393
v -1.3330 -9.7336 -54.6393
v -1.3330 -9.7336 -54.6393
v -1.3330 -0.0000 -54.6393
v -9.4624 -0.0000 -52.4611
v -9.4624 -9.7336 -52.4611
v -17.5917 -9.7336 -3.2781
v -17.5917 -0.0000 -3.2781
v -12.5418 -0.0000 32.6147
v -12.5418 -9.7336 32.6147
v -24.4660 -0.0000 -3.2781
v -17.5917 -9.7336 -3.2781
v -24.4660 -9.7336 -3.2781
v -17.5917 -0.0000 -3.2781
v 1.1930 -9.7336 47.4245
v 1.1930 -0.0000 47.4245
v -25.4660 -9.7336 33.6147
v -24.4660 -9.7336 -3.2781
v -25.4660 -9.7336 -4.2781
v -24.4660 -9.7336 32.6147
v 14.9277 -9.7336 41.7487
v 15.9216 -9.7336 41.8270
v -24.4660 -0.0000 -3.2781
v -25.4660 -0.0000 33.6147
v -25.4660 -0.0000 -4.2781
v -24.4660 -0.0000 32.6147
v 7.2922 -9.7336 -53.3197
v 6.7964 -9.7336 -52.4611
v -1.3330 -9.7336 -55.6308
v -1.3330 -9.7336 -54.6393
v -1.3330 -9.7336 -55.6308
v -1.3330 -9.7336 -54.6393
v -9.9581 -9.7336 -53.3197
v -9.4624 -9.7336 -52.4611
v -18.5875 -9.7336 -38.4458
v -17.5917 -9.7336 -38.3805
v 15.9216 -9.7336 -38.4458
v 14.9258 -9.7336 -38.3805
v 7.2922 -0.0000 -53.3197
v 6.7964 -0.0000 -52.4611
v -1.3330 -0.0000 -55.6308
v -1.3330 -0.0000 -54.6393
v -1.3330 -0.0000 -54.6393
v -1.3330 -0.0000 -55.6308
v -9.9581 -0.0000 -53.3197
v -9.4624 -0.0000 -52.4611
v -18.5875 -0.0000 -38.4458
v -17.5917 -0.0000 -38.3805
v 15.9216 -0.0000 -38.4458
v 14.9258 -0.0000 -38.3805
v -18.5917 -9.7336 -4.2781
v -17.5917 -9.7336 -3.2781
v -18.5917 -0.0000 -4.2781
v -17.5917 -0.0000 -3.2781
v 14.9277 -0.0000 41.7487
v 15.9216 -0.0000 41.8270
v -12.5418 -9.7336 41.7487
v -13.5418 -9.7336 33.6147
v -13.5356 -9.7336 41.8270
v -12.5418 -9.7336 32.6147
v -13.5418 -0.0000 33.6147
v -12.5418 -0.0000 41.7487
v -13.5356 -0.0000 41.8270
v -12.5418 -0.0000 32.6147
v 1.1930 -9.7336 48.4184
v -6.8660 -9.7336 47.4245
v -6.9442 -9.7336 48.4184
v 1.1930 -9.7336 47.4245
v -6.8660 -0.0000 47.4245
v 1.1930 -0.0000 48.4184
v -6.9442 -0.0000 48.4184
v 1.1930 -0.0000 47.4245
v 9.3301 -9.7336 48.4184
v 9.2519 -9.7336 47.4245
v 9.3301 -0.0000 48.4184
v 9.2519 -0.0000 47.4245
v -25.4660 -0.0000 -4.2781
v -25.4660 -9.7336 33.6147
v -25.4660 -9.7336 -4.2781
v -25.4660 -0.0000 33.6147
v 7.2922 -9.7336 -53.3197
v 7.2922 -0.0000 -53.3197
v -1.3330 -9.7336 -55.6308
v -1.3330 -0.0000 -55.6308
v -1.3330 -0.0000 -55.6308
v -1.3330 -9.7336 -55.6308
v -9.9581 -9.7336 -53.3197
v -9.9581 -0.0000 -53.3197
v -18.5917 -9.7336 -4.2781
v -18.5917 -0.0000 -4.2781
v -13.5418 -0.0000 33.6147
v -13.5418 -9.7336 33.6147
v 1.1930 -0.0000 48.4184
v 1.1930 -9.7336 48.4184
v -25.4660 -0.0000 33.6147
v -13.5418 -9.7336 33.6147
v -25.4660 -9.7336 33.6147
v -13.5418 -0.0000 33.6147
v -18.5917 -0.0000 -4.2781
v -25.4660 -9.7336 -4.2781
v -18.5917 -9.7336 -4.2781
v -25.4660 -0.0000 -4.2781
v 1.1930 -0.0000 48.4184
v 1.1930 -9.7336 48.4184
v 1.1930 -9.7336 48.4184
v 1.1930 -9.7336 47.4245
v 1.1930 -0.0000 47.4245
v 1.1930 -9.7336 47.4245
v 1.1930 -0.0000 48.4184
v 1.1930 -0.0000 47.4245
v -18.2212 -11.9661 -5.8840
v -18.2212 -11.9661 34.8652
v 15.8547 -8.0785 32.7942
v 15.8547 -2.5299 32.7942
v 25.8332 -8.0785 32.7942
v 25.8332 -8.0785 33.7557
v 25.8332 -8.0785 32.7942
v 15.8547 -8.0785 9.7701
v 15.8547 -2.5299 9.7701
v 25.8332 -8.0785 9.7701
v 25.8332 -8.0785 10.7316
v 25.8332 -8.0785 9.7701
v 15.8547 -8.0785 -13.2540
v 15.8547 -2.5299 -13.2540
v 25.8332 -8.0785 -13.2540
v 25.8332 -8.0785 -12.2925
v 25.8332 -8.0785 -13.2540
v 15.8547 -8.0785 -36.2781
v 15.8547 -2.5299 -36.2781
v 25.8332 -8.0785 -36.2781
v 25.8332 -8.0785 -35.3166
v 25.8332 -8.0785 -36.2781
v -18.2212 -48.3764 50.4083
v 18.2212 -48.3765 50.4083
v 3.0901 -11.9661 -57.7439
v 3.0901 -11.9661 -57.7439
v 3.0901 -57.4779 -57.7439
v 16.1940 -11.9661 -50.1783
v 16.1940 -57.4780 -50.1783
v 18.2212 -57.4780 -42.6128
v 18.2212 -11.9661 -42.6128
v -10.6556 -57.4779 -55.7167
v -10.6556 -11.9661 -55.7167
v 16.1940 -11.9661 -50.1783
v 16.1940 -57.4780 -50.1783
v 3.0901 -57.4779 -57.7439
v -10.6556 -11.9661 -55.7167
v -10.6556 -57.4779 -55.7167
v 18.2212 -57.4780 39.1709
v -18.2212 -57.4779 39.1709
v 18.2212 -54.9172 46.4013
v -18.2212 -54.9171 46.4013
v 18.2212 -54.9172 46.4013
v -18.2212 -54.9171 46.4013
v -22.6192 -11.9661 35.6455
v -17.8134 -55.5102 35.6455
v -22.6192 -55.5102 35.6455
v -17.8134 -11.9661 35.6455
v -22.6192 -55.5102 -6.6643
v -18.0546 -11.9661 -6.6643
v -22.6192 -11.9661 -6.6643
v -18.0546 -55.5102 -6.6643
v -22.6192 -55.5102 -6.6643
v -22.6192 -55.5102 35.6455
v -26.7803 -11.9661 33.2431
v -26.7803 -55.5102 33.2431
v -26.7803 -55.5102 -4.2619
v -26.7803 -11.9661 -4.2619
v -11.3052 -53.3701 40.6678
v -15.6058 -53.3701 -46.8109
v 12.9347 -53.3701 -46.8109
v 13.4320 -53.3701 40.6678
v -7.1761 -53.3701 42.3781
v -7.1761 -7.8475 47.7052
v -11.3052 -7.8475 45.9949
v -11.3052 -53.3701 40.6678
v -13.0155 -7.8475 41.8658
v -13.0155 -53.3701 36.5387
v -17.8134 -53.3701 -38.5720
v -17.8134 -7.8475 -38.5720
v -15.6058 -53.3701 -46.8109
v -15.6058 -7.8475 -46.8109
v 12.9347 -53.3701 -46.8109
v 12.9347 -7.8475 -46.8109
v 15.1423 -53.3701 -38.5720
v 15.1423 -7.8475 -38.5720
v 15.1423 -53.3701 36.5387
v 15.1423 -7.8475 41.8658
v 13.4320 -53.3701 40.6678
v 13.4320 -7.8475 45.9949
v 9.3029 -53.3701 42.3781
v 9.3029 -7.8475 47.7052
v -15.6058 -7.8475 -46.8109
v 12.9347 -7.8475 -46.8109
v -11.3052 -7.8475 45.9949
v 13.4320 -7.8475 45.9949
v -18.5917 -8.0785 -35.1279
v -18.5917 -2.5299 -35.1279
v -28.5702 -8.0785 -35.1279
v -28.5702 -8.0785 -36.0894
v -28.5702 -8.0785 -35.1279
v -18.5917 -8.0785 -14.8490
v -18.5917 -2.5299 -14.8490
v -28.5702 -8.0785 -14.8490
v -28.5702 -8.0785 -15.8105
v -28.5702 -8.0785 -14.8490
v 12.7476 -0.0000 -46.5099
v 12.7476 -9.7336 -46.5099
v -15.4135 -0.0000 -46.5099
v -15.4135 -9.7336 -46.5099
v -17.5917 -0.0000 -38.3805
v -17.5917 -9.7336 -38.3805
v 14.9258 -9.7336 -38.3805
v 14.9258 -0.0000 -38.3805
v 14.9277 -0.0000 41.7487
v 14.9277 -9.7336 41.7487
v -12.5418 -9.7336 41.7487
v -12.5418 -0.0000 41.7487
v -6.8660 -0.0000 47.4245
v -6.8660 -9.7336 47.4245
v 13.8437 -0.0000 45.0849
v 13.8437 -9.7336 45.0849
v -11.4578 -0.0000 45.0849
v -11.4578 -9.7336 45.0849
v 13.6062 -9.7336 -47.0057
v 12.7476 -9.7336 -46.5099
v -16.2721 -9.7336 -47.0057
v -15.4135 -9.7336 -46.5099
v 13.6062 -0.0000 -47.0057
v 12.7476 -0.0000 -46.5099
v -16.2721 -0.0000 -47.0057
v -15.4135 -0.0000 -46.5099
v 13.8437 -9.7336 45.0849
v 14.6428 -9.7336 45.6654
v 13.8437 -0.0000 45.0849
v 14.6428 -0.0000 45.6654
v -12.2568 -9.7336 45.6654
v -11.4578 -9.7336 45.0849
v -12.2568 -0.0000 45.6654
v -11.4578 -0.0000 45.0849
v 13.6062 -9.7336 -47.0057
v 13.6062 -0.0000 -47.0057
v -16.2721 -9.7336 -47.0057
v -16.2721 -0.0000 -47.0057
v -18.5875 -9.7336 -38.4458
v -18.5875 -0.0000 -38.4458
v 15.9216 -0.0000 -38.4458
v 15.9216 -9.7336 -38.4458
v 15.9216 -0.0000 41.8270
v 15.9216 -9.7336 41.8270
v -13.5356 -9.7336 41.8270
v -13.5356 -0.0000 41.8270
v 9.3301 -0.0000 48.4184
v 9.3301 -9.7336 48.4184
v 14.6428 -9.7336 45.6654
v 14.6428 -0.0000 45.6654
v -12.2568 -9.7336 45.6654
v -12.2568 -0.0000 45.6654
v 18.1557 -2.5299 32.7942
v 18.1557 -2.5299 32.7942
v 15.8547 -2.5299 33.7557
v 15.8547 -2.5299 32.7942
v 18.1557 -2.5299 33.7557
v 18.1557 -2.5299 33.7557
v 18.1557 -2.5299 32.7942
v 18.1557 -2.5299 33.7557
v 18.1557 -2.5299 9.7701
v 18.1557 -2.5299 9.7701
v 15.8547 -2.5299 10.7316
v 15.8547 -2.5299 9.7701
v 18.1557 -2.5299 10.7316
v 18.1557 -2.5299 10.7316
v 18.1557 -2.5299 9.7701
v 18.1557 -2.5299 10.7316
v 18.1557 -2.5299 -13.2540
v 18.1557 -2.5299 -13.2540
v 15.8547 -2.5299 -12.2925
v 15.8547 -2.5299 -13.2540
v 18.1557 -2.5299 -12.2925
v 18.1557 -2.5299 -12.2925
v 18.1557 -2.5299 -13.2540
v 18.1557 -2.5299 -12.2925
v 18.1557 -2.5299 -36.2781
v 18.1557 -2.5299 -36.2781
v 15.8547 -2.5299 -35.3166
v 15.8547 -2.5299 -36.2781
v 18.1557 -2.5299 -35.3166
v 18.1557 -2.5299 -35.3166
v 18.1557 -2.5299 -36.2781
v 18.1557 -2.5299 -35.3166
v 32.0000 -0.0000 -5.8840
v 30.2133 -0.0000 -5.8840
v -30.2133 0.0000 34.8652
v -32.0000 0.0000 -5.8840
v -30.2133 0.0000 -5.8840
v -32.0000 0.0000 34.8652
v 30.2133 -2.4751 -5.8840
v 30.2133 -0.0000 -5.8840
v -30.2133 0.0000 -5.8840
v -30.2133 -2.4750 34.8652
v -30.2133 0.0000 34.8652
v -30.2133 -2.4750 -5.8840
v 32.0000 -0.0000 -5.8840
v 32.0000 -3.8526 -5.8840
v -32.0000 0.0000 34.8652
v -32.0000 -3.8525 -5.8840
v -32.0000 0.0000 -5.8840
v -32.0000 -3.8525 34.8652
v 31.9996 -11.9661 -5.8840
v -32.0000 -11.9661 -5.8840
v -32.0000 -11.9661 34.8652
v 18.2212 -11.9661 -5.8840
v 18.2212 -57.4780 -5.8840
v 31.9996 -11.9661 -5.8840
v 18.2212 -11.9661 -5.8840
v -32.0000 -11.9661 -5.8840
v -32.0000 -11.9661 34.8652
v 7.0063 -11.9661 -57.2283
v 7.0063 -57.4779 -57.2283
v 13.7894 -11.9661 -53.3121
v 13.7894 -57.4780 -53.3121
v 17.7056 -57.4780 -46.5290
v 17.7056 -11.9661 -46.5290
v -17.7056 -11.9661 -46.5290
v -18.2212 -55.5102 -42.6128
v -17.7056 -57.4779 -46.5290
v -13.7894 -11.9661 -53.3121
v -13.7894 -57.4779 -53.3121
v -7.0063 -11.9661 -57.2283
v -7.0063 -57.4779 -57.2283
v 17.7056 -11.9661 -46.5290
v 13.7894 -11.9661 -53.3121
v 7.0063 -11.9661 -57.2283
v 13.7894 -57.4780 -53.3121
v 17.7056 -57.4780 -46.5290
v 7.0063 -57.4779 -57.2283
v -7.0063 -11.9661 -57.2283
v -13.7894 -11.9661 -53.3121
v -17.7056 -11.9661 -46.5290
v -13.7894 -57.4779 -53.3121
v -7.0063 -57.4779 -57.2283
v -17.7056 -57.4779 -46.5290
v -18.2212 -57.4779 -5.8840
v 18.2212 -57.4780 -5.8840
v 18.2212 -56.8189 43.0062
v -18.2212 -56.8188 43.0062
v 18.2212 -51.9911 48.9668
v -18.2212 -51.9911 48.9668
v 18.2212 -56.8189 43.0062
v 18.2212 -51.9911 48.9668
v -18.2212 -51.9911 48.9668
v -18.2212 -56.8188 43.0062
v -18.2212 -57.4779 -5.8840
v -27.4241 -11.9661 -1.8594
v -27.4241 -55.5102 -1.8594
v -27.4241 -55.5102 -1.8594
v -27.4241 -55.5102 30.8407
v -27.4241 -55.5102 30.8407
v -27.4241 -11.9661 30.8407
v -25.0216 -11.9661 35.0018
v -25.0216 -55.5102 35.0018
v -25.0216 -55.5102 -6.0206
v -25.0216 -11.9661 -6.0206
v -25.0216 -55.5102 35.0018
v -25.0216 -55.5102 -6.0206
v -1.3355 -53.3701 -3.6099
v -1.3355 -53.3701 33.2019
v -9.4107 -53.3701 41.9336
v -12.5710 -53.3701 38.7733
v -1.3355 -53.3701 -38.5720
v -17.2519 -53.3701 -42.8368
v -12.9871 -53.3701 -50.2236
v -5.6003 -53.3701 -54.4884
v 2.9292 -53.3701 -54.4884
v 10.3161 -53.3701 -50.2236
v 14.5808 -53.3701 -42.8368
v 15.1423 -53.3701 -3.6099
v 14.6978 -53.3701 38.7733
v 11.5376 -53.3701 41.9336
v -1.3355 -53.3701 42.3781
v -9.4107 -7.8475 47.2608
v -9.4107 -53.3701 41.9336
v -12.5710 -7.8475 44.1005
v -12.5710 -53.3701 38.7733
v -17.2519 -53.3701 -42.8368
v -17.2519 -7.8475 -42.8368
v -12.9871 -53.3701 -50.2236
v -12.9871 -7.8475 -50.2236
v -5.6003 -7.8475 -54.4884
v -5.6003 -53.3701 -54.4884
v 2.9292 -7.8475 -54.4884
v 2.9292 -53.3701 -54.4884
v 10.3161 -53.3701 -50.2236
v 10.3161 -7.8475 -50.2236
v 14.5808 -53.3701 -42.8368
v 14.5808 -7.8475 -42.8368
v 15.1423 -53.3701 -3.6099
v 15.1423 -7.8475 -3.6099
v 14.6978 -53.3701 38.7733
v 14.6978 -7.8475 44.1005
v 11.5376 -53.3701 41.9336
v 11.5376 -7.8475 47.2608
v -1.3355 -7.8475 47.7052
v -1.3355 -53.3701 42.3781
v 2.9292 -7.8475 -54.4884
v 0.0000 -7.8475 -62.2133
v 0.0000 -2.4750 -62.2133
v 0.0000 -7.8475 -62.2133
v -30.2133 -2.4750 34.5629
v -30.2133 -7.8475 34.5629
v 0.0000 -7.8475 62.2133
v 0.0000 -2.4750 62.2133
v 30.2133 -2.4750 -3.6099
v 30.2133 -7.8475 -3.6099
v -17.2519 -7.8475 -42.8368
v -12.9871 -7.8475 -50.2236
v -5.6003 -7.8475 -54.4884
v 10.3161 -7.8475 -50.2236
v 14.5808 -7.8475 -42.8368
v 30.2133 -7.8475 -3.6099
v 15.1423 -7.8475 -3.6099
v 14.6978 -7.8475 44.1005
v -30.2133 -7.8475 -3.6099
v -30.2133 -2.4750 -3.6099
v -30.2133 -7.8475 -3.6099
v -30.2133 -7.8475 34.5629
v -9.4107 -7.8475 47.2608
v -12.5710 -7.8475 44.1005
v 0.0000 -7.8475 62.2133
v -1.3355 -7.8475 47.7052
v 11.5376 -7.8475 47.2608
v -20.8928 -2.5299 -35.1279
v -20.8928 -2.5299 -35.1279
v -18.5917 -2.5299 -36.0894
v -18.5917 -2.5299 -35.1279
v -20.8928 -2.5299 -36.0894
v -20.8928 -2.5299 -36.0894
v -20.8928 -2.5299 -35.1279
v -20.8928 -2.5299 -36.0894
v -20.8928 -2.5299 -14.8490
v -20.8928 -2.5299 -14.8490
v -18.5917 -2.5299 -15.8105
v -18.5917 -2.5299 -14.8490
v -20.8928 -2.5299 -15.8105
v -20.8928 -2.5299 -15.8105
v -20.8928 -2.5299 -14.8490
v -20.8928 -2.5299 -15.8105
v 14.3718 -9.7336 -42.5886
v 14.3718 -0.0000 -42.5886
v 10.1637 -0.0000 -49.8772
v 10.1637 -9.7336 -49.8772
v 2.8751 -0.0000 -54.0853
v 2.8751 -9.7336 -54.0853
v -5.5410 -0.0000 -54.0853
v -5.5410 -9.7336 -54.0853
v -12.8297 -0.0000 -49.8772
v -12.8297 -9.7336 -49.8772
v -17.0377 -0.0000 -42.5886
v -17.0377 -9.7336 -42.5886
v 14.9258 -0.0000 14.4573
v 14.9258 -9.7336 14.4573
v 9.2519 -9.7336 47.4245
v 11.0058 -0.0000 47.1468
v 9.2519 -0.0000 47.4245
v 11.0058 -9.7336 47.1468
v 12.5881 -0.0000 46.3406
v 12.5881 -9.7336 46.3406
v 14.6499 -0.0000 43.5027
v 14.6499 -9.7336 43.5027
v -12.2640 -0.0000 43.5027
v -12.2640 -9.7336 43.5027
v -10.2021 -0.0000 46.3406
v -10.2021 -9.7336 46.3406
v -8.6199 -0.0000 47.1468
v -8.6199 -9.7336 47.1468
v 15.9216 -9.7336 14.5225
v 14.9258 -9.7336 14.4573
v 14.3718 -9.7336 -42.5886
v 15.3295 -9.7336 -42.8452
v 10.8648 -9.7336 -50.5783
v 10.1637 -9.7336 -49.8772
v 2.8751 -9.7336 -54.0853
v 3.1317 -9.7336 -55.0430
v -5.5410 -9.7336 -54.0853
v -5.7976 -9.7336 -55.0430
v -13.5307 -9.7336 -50.5783
v -12.8297 -9.7336 -49.8772
v -17.9954 -9.7336 -42.8452
v -17.0377 -9.7336 -42.5886
v 14.3718 -0.0000 -42.5886
v 15.3295 -0.0000 -42.8452
v 10.8648 -0.0000 -50.5783
v 10.1637 -0.0000 -49.8772
v 2.8751 -0.0000 -54.0853
v 3.1317 -0.0000 -55.0430
v -5.7976 -0.0000 -55.0430
v -5.5410 -0.0000 -54.0853
v -13.5307 -0.0000 -50.5783
v -12.8297 -0.0000 -49.8772
v -17.9954 -0.0000 -42.8452
v -17.0377 -0.0000 -42.5886
v 14.9258 -0.0000 14.4573
v 15.9216 -0.0000 14.5225
v 11.0058 -9.7336 47.1468
v 11.3110 -9.7336 48.0861
v 11.0058 -0.0000 47.1468
v 11.3110 -0.0000 48.0861
v 12.5881 -9.7336 46.3406
v 13.1686 -9.7336 47.1396
v 12.5881 -0.0000 46.3406
v 13.1686 -0.0000 47.1396
v 14.6499 -9.7336 43.5027
v 15.5893 -9.7336 43.8079
v 14.6499 -0.0000 43.5027
v 15.5893 -0.0000 43.8079
v -12.2640 -9.7336 43.5027
v -13.2033 -9.7336 43.8079
v -12.2640 -0.0000 43.5027
v -13.2033 -0.0000 43.8079
v -10.7827 -9.7336 47.1396
v -10.2021 -9.7336 46.3406
v -10.7827 -0.0000 47.1396
v -10.2021 -0.0000 46.3406
v -8.9251 -9.7336 48.0861
v -8.6199 -9.7336 47.1468
v -8.6199 -0.0000 47.1468
v -8.9251 -0.0000 48.0861
v 15.3295 -0.0000 -42.8452
v 15.3295 -9.7336 -42.8452
v 10.8648 -9.7336 -50.5783
v 10.8648 -0.0000 -50.5783
v 3.1317 -9.7336 -55.0430
v 3.1317 -0.0000 -55.0430
v -5.7976 -9.7336 -55.0430
v -5.7976 -0.0000 -55.0430
v -13.5307 -9.7336 -50.5783
v -13.5307 -0.0000 -50.5783
v -17.9954 -9.7336 -42.8452
v -17.9954 -0.0000 -42.8452
v 15.9216 -0.0000 14.5225
v 15.9216 -9.7336 14.5225
v -6.9442 -9.7336 48.4184
v -6.9442 -0.0000 48.4184
v 11.3110 -9.7336 48.0861
v 11.3110 -0.0000 48.0861
v 13.1686 -9.7336 47.1396
v 13.1686 -0.0000 47.1396
v 15.5893 -9.7336 43.8079
v 15.5893 -0.0000 43.8079
v -13.2033 -9.7336 43.8079
v -13.2033 -0.0000 43.8079
v -10.7827 -9.7336 47.1396
v -10.7827 -0.0000 47.1396
v -8.9251 -9.7336 48.0861
v -8.9251 -0.0000 48.0861
vt 0.4085 0.1920
vt 0.3908 0.1978
vt 0.4190 0.2238
vt 0.4085 0.1920
vt 0.3908 0.1978
vt 0.4190 0.2238
vt 0.4085 0.1920
vt 0.3908 0.1978
vt 0.4190 0.2238
vt 0.4085 0.1920
vt 0.3908 0.1978
vt 0.4190 0.2238
vt 0.4915 0.0310
vt 0.4961 0.0356
vt 0.0130 0.0310
vt 0.1710 0.0356
vt 0.1665 0.0310
vt 0.0085 0.0356
vt 0.0130 0.0310
vt 0.1710 0.0356
vt 0.1665 0.0310
vt 0.0085 0.0356
vt 0.4915 0.0310
vt 0.4915 0.0247
vt 0.0130 0.0310
vt 0.1665 0.0248
vt 0.0130 0.0248
vt 0.1665 0.0310
vt 0.1665 0.0310
vt 0.0130 0.0248
vt 0.0130 0.0310
vt 0.1665 0.0248
vt 0.4961 0.0453
vt 0.4961 0.0356
vt 0.0085 0.0356
vt 0.1710 0.0454
vt 0.1710 0.0356
vt 0.0085 0.0454
vt 0.1710 0.0356
vt 0.0085 0.0454
vt 0.1710 0.0454
vt 0.0085 0.0356
vt 0.4961 0.0659
vt 0.1710 0.0660
vt 0.0085 0.0660
vt 0.1710 0.0660
vt 0.0085 0.0660
vt 0.9758 0.1157
vt 0.9625 0.2434
vt 0.9778 0.2782
vt 0.9614 0.1508
vt 0.9443 0.1696
vt 0.9443 0.2315
vt 0.5277 0.2840
vt 0.6297 0.3265
vt 0.5481 0.3092
vt 0.6678 0.2085
vt 0.6528 0.2821
vt 0.6528 0.2821
vt 0.6508 0.1196
vt 0.5277 0.0372
vt 0.6297 0.0372
vt 0.9037 0.2674
vt 0.8002 0.2686
vt 0.6297 0.0659
vt 0.5277 0.0659
vt 0.6297 0.1010
vt 0.5277 0.0861
vt 0.6297 0.0861
vt 0.6297 0.0507
vt 0.5277 0.0507
vt 0.7056 0.1539
vt 0.6725 0.1735
vt 0.7154 0.1697
vt 0.6936 0.1825
vt 0.6874 0.2415
vt 0.7067 0.2464
vt 0.6898 0.2058
vt 0.7156 0.2315
vt 0.7027 0.2281
vt 0.5481 0.3095
vt 0.5335 0.2747
vt 0.5277 0.2843
vt 0.4915 0.0310
vt 0.4915 0.0248
vt 0.4915 0.0310
vt 0.4961 0.0356
vt 0.4961 0.0356
vt 0.4961 0.0454
vt 0.4961 0.0660
vt 0.6528 0.2821
vt 0.5335 0.1833
vt 0.6297 0.1833
vt 0.1710 0.0659
vt 0.1710 0.0453
vt 0.1710 0.0356
vt 0.1756 0.0310
vt 0.1710 0.0356
vt 0.1756 0.0310
vt 0.1756 0.0247
vt 0.5277 0.1011
vt 0.5277 0.1010
vt 0.6297 0.2747
vt 0.6297 0.3268
vt 0.1710 0.0453
vt 0.1710 0.0659
vt 0.1710 0.0355
vt 0.1756 0.0310
vt 0.1710 0.0355
vt 0.1756 0.0310
vt 0.1756 0.0247
vt 0.7580 0.0751
vt 0.6486 0.0751
vt 0.7682 0.0250
vt 0.7924 0.0075
vt 0.7924 0.1138
vt 0.7682 0.0964
vt 0.7699 0.1077
vt 0.7699 0.0135
vt 0.6486 0.0039
vt 0.7580 0.0753
vt 0.7580 0.0039
vt 0.6486 0.0753
vt 0.1980 0.2487
vt 0.1545 0.2423
vt 0.2088 0.2565
vt 0.2019 0.2487
vt 0.1980 0.2327
vt 0.1545 0.2327
vt 0.1132 0.2423
vt 0.0963 0.2533
vt 0.0937 0.2643
vt 0.0963 0.2754
vt 0.1132 0.2864
vt 0.1980 0.2864
vt 0.2019 0.2864
vt 0.2088 0.2786
vt 0.3695 0.2185
vt 0.3563 0.1600
vt 0.3388 0.1233
vt 0.3206 0.1926
vt 0.3388 0.1926
vt 0.3206 0.1233
vt 0.3206 0.1233
vt 0.2646 0.1926
vt 0.3206 0.1926
vt 0.2646 0.1233
vt 0.2646 0.1233
vt 0.2536 0.1926
vt 0.2646 0.1926
vt 0.2536 0.1233
vt 0.0929 0.2237
vt 0.0935 0.1637
vt 0.1623 0.1644
vt 0.1617 0.2244
vt 0.1736 0.1645
vt 0.1730 0.2245
vt 0.1849 0.1646
vt 0.1843 0.2246
vt 0.3022 0.1658
vt 0.3016 0.2258
vt 0.0593 0.2236
vt 0.0332 0.0919
vt 0.0095 0.0919
vt 0.4860 0.0919
vt 0.4860 0.0737
vt 0.5110 0.0919
vt 0.4860 0.0919
vt 0.4860 0.3676
vt 0.5110 0.3676
vt 0.0332 0.3676
vt 0.0332 0.3838
vt 0.0095 0.3676
vt 0.0332 0.3676
vt 0.1192 0.1485
vt 0.0332 0.0919
vt 0.0673 0.1860
vt 0.0673 0.2612
vt 0.0332 0.3676
vt 0.1192 0.2988
vt 0.4860 0.3676
vt 0.4120 0.2988
vt 0.4860 0.3676
vt 0.4860 0.3838
vt 0.2465 0.1156
vt 0.0332 0.0919
vt 0.0332 0.0737
vt 0.3804 0.1156
vt 0.3804 0.1703
vt 0.4860 0.0919
vt 0.4120 0.1703
vt 0.4332 0.1970
vt 0.4332 0.2722
vt 0.3804 0.2988
vt 0.2465 0.1485
vt 0.4085 0.1920
vt 0.3908 0.1978
vt 0.4190 0.2238
vt 0.4085 0.1920
vt 0.3908 0.1978
vt 0.4190 0.2238
vt 0.9509 0.6355
vt 0.9303 0.6015
vt 0.9509 0.5995
vt 0.9303 0.6374
vt 0.9509 0.5995
vt 0.9303 0.4893
vt 0.9509 0.4914
vt 0.9303 0.6015
vt -0.0692 0.3453
vt -0.0491 0.3479
vt -0.0692 0.3209
vt -0.0491 0.3229
vt 0.9510 0.2980
vt 0.9303 0.2961
vt 0.9303 0.3204
vt 0.9509 0.3225
vt 0.9509 0.4707
vt 0.9303 0.4686
vt 0.9303 0.6374
vt 0.9509 0.6355
vt 0.9303 0.4893
vt 0.9509 0.4707
vt 0.9509 0.4914
vt 0.9303 0.4686
vt 0.9509 0.7152
vt 0.9303 0.7152
vt 0.8980 0.6024
vt 0.8950 0.4883
vt 0.8980 0.4883
vt 0.8950 0.6024
vt -0.1052 0.6373
vt -0.1022 0.6373
vt 0.9303 0.4893
vt 0.9273 0.6024
vt 0.9273 0.4883
vt 0.9303 0.6015
vt -0.1022 0.3444
vt -0.1052 0.3440
vt -0.1022 0.3186
vt -0.1052 0.3189
vt 0.8980 0.2938
vt 0.8950 0.2942
vt 0.8980 0.3195
vt 0.8950 0.3194
vt 0.8980 0.3646
vt 0.8950 0.3646
vt -0.1022 0.3908
vt -0.1052 0.3908
vt -0.0723 0.3444
vt -0.0692 0.3453
vt -0.0723 0.3186
vt -0.0692 0.3209
vt 0.9303 0.2961
vt 0.9273 0.2938
vt 0.9273 0.3195
vt 0.9303 0.3204
vt 0.9273 0.3646
vt 0.9303 0.3647
vt -0.0723 0.3908
vt -0.0692 0.3909
vt 0.8980 0.4676
vt 0.8950 0.4676
vt 0.9273 0.4676
vt 0.9303 0.4686
vt -0.0692 0.6373
vt -0.0723 0.6373
vt 0.8950 0.6631
vt 0.8980 0.6383
vt 0.8980 0.6631
vt 0.8950 0.6383
vt 0.9273 0.6383
vt 0.9303 0.6631
vt 0.9273 0.6631
vt 0.9303 0.6374
vt 0.8980 0.7152
vt 0.8950 0.6907
vt 0.8980 0.6907
vt 0.8950 0.7152
vt 0.9303 0.6894
vt 0.9273 0.7152
vt 0.9273 0.6907
vt 0.9303 0.7152
vt -0.1022 0.6655
vt -0.1052 0.6654
vt -0.0723 0.6655
vt -0.0692 0.6642
vt 0.9273 0.4883
vt 0.8980 0.6024
vt 0.8980 0.4883
vt 0.9273 0.6024
vt -0.1022 0.3444
vt -0.0723 0.3444
vt -0.1022 0.3186
vt -0.0723 0.3186
vt 0.9273 0.2938
vt 0.8980 0.2938
vt 0.8980 0.3195
vt 0.9273 0.3195
vt 0.8980 0.4676
vt 0.9273 0.4676
vt 0.9273 0.6383
vt 0.8980 0.6383
vt 0.9273 0.7152
vt 0.8980 0.7152
vt 0.9273 0.6024
vt 0.8980 0.6383
vt 0.8980 0.6024
vt 0.9273 0.6383
vt 0.9273 0.4676
vt 0.8980 0.4883
vt 0.8980 0.4676
vt 0.9273 0.4883
vt -0.0723 0.6904
vt -0.1022 0.6904
vt -0.1022 0.6904
vt -0.1052 0.6904
vt -0.0692 0.6884
vt -0.0491 0.6864
vt -0.0723 0.6904
vt -0.0692 0.6884
vt 0.7999 0.2453
vt 0.9034 0.2441
vt 0.3836 0.2265
vt 0.3836 0.2078
vt 0.4171 0.2265
vt 0.4190 0.2238
vt 0.4171 0.2265
vt 0.3836 0.2265
vt 0.3836 0.2078
vt 0.4171 0.2265
vt 0.4190 0.2238
vt 0.4171 0.2265
vt 0.3836 0.2265
vt 0.3836 0.2078
vt 0.4171 0.2265
vt 0.4190 0.2238
vt 0.4171 0.2265
vt 0.3836 0.2265
vt 0.3836 0.2078
vt 0.4171 0.2265
vt 0.4190 0.2238
vt 0.4171 0.2265
vt 0.8810 0.2315
vt 0.8810 0.1696
vt 0.6676 0.1928
vt 0.6297 0.0510
vt 0.5277 0.0510
vt 0.6297 0.0833
vt 0.5277 0.0833
vt 0.5277 0.1007
vt 0.6297 0.1007
vt 0.5277 0.0684
vt 0.6297 0.0684
vt 0.6864 0.1593
vt 0.7027 0.1734
vt 0.6901 0.1951
vt 0.6732 0.2276
vt 0.6933 0.2187
vt 0.8546 0.1696
vt 0.8546 0.2315
vt 0.8678 0.1696
vt 0.8678 0.2315
vt 0.5334 0.3002
vt 0.5334 0.3005
vt 0.6486 0.0971
vt 0.7580 0.1092
vt 0.7580 0.0971
vt 0.6486 0.1092
vt 0.7580 0.0970
vt 0.6486 0.1091
vt 0.6486 0.0970
vt 0.7580 0.1091
vt 0.7803 0.0075
vt 0.7803 0.1138
vt 0.6486 0.0867
vt 0.7580 0.0867
vt 0.7580 0.0866
vt 0.6486 0.0866
vt 0.2068 0.2510
vt 0.1035 0.2453
vt 0.1035 0.2834
vt 0.2068 0.2841
vt 0.3402 0.1631
vt 0.3466 0.2232
vt 0.3525 0.2223
vt 0.3461 0.1622
vt 0.3584 0.2210
vt 0.3520 0.1610
vt 0.1396 0.1642
vt 0.1390 0.2242
vt 0.1509 0.1643
vt 0.1503 0.2243
vt 0.1963 0.1647
vt 0.1957 0.2247
vt 0.2076 0.1648
vt 0.2070 0.2248
vt 0.3066 0.1658
vt 0.3130 0.2259
vt 0.3126 0.1658
vt 0.3190 0.2259
vt 0.3186 0.1654
vt 0.3250 0.2255
vt 0.0892 0.1585
vt 0.0892 0.2887
vt 0.4270 0.1781
vt 0.4270 0.2910
vt 0.3836 0.2265
vt 0.3836 0.2078
vt 0.4171 0.2265
vt 0.4190 0.2238
vt 0.4171 0.2265
vt 0.3836 0.2265
vt 0.3836 0.2078
vt 0.4171 0.2265
vt 0.4190 0.2238
vt 0.4171 0.2265
vt -0.0692 0.3653
vt -0.0491 0.3662
vt 0.9303 0.3401
vt 0.9509 0.3405
vt 0.9303 0.3647
vt 0.9509 0.3650
vt -0.0491 0.3911
vt -0.0692 0.3909
vt -0.0692 0.6373
vt -0.0491 0.6373
vt 0.9509 0.6630
vt 0.9303 0.6631
vt 0.9303 0.6894
vt 0.9509 0.6869
vt -0.0693 0.6484
vt -0.0491 0.6475
vt 0.9303 0.6739
vt 0.9509 0.6730
vt -0.1022 0.3648
vt -0.1052 0.3649
vt 0.8980 0.3395
vt 0.8950 0.3399
vt -0.0723 0.3648
vt -0.0692 0.3653
vt 0.9273 0.3395
vt 0.9303 0.3401
vt -0.1052 0.6488
vt -0.1022 0.6489
vt -0.0693 0.6484
vt -0.0723 0.6489
vt 0.8980 0.6745
vt 0.8950 0.6744
vt 0.9273 0.6745
vt 0.9303 0.6739
vt -0.1022 0.3648
vt -0.0723 0.3648
vt 0.8980 0.3395
vt 0.9273 0.3395
vt 0.8980 0.3646
vt 0.9273 0.3646
vt -0.0723 0.3908
vt -0.1022 0.3908
vt -0.0723 0.6373
vt -0.1022 0.6373
vt 0.8980 0.6631
vt 0.9273 0.6631
vt -0.0723 0.6655
vt -0.1022 0.6655
vt -0.1022 0.6489
vt -0.0723 0.6489
vt 0.8980 0.6745
vt 0.9273 0.6745
vt 0.3913 0.2078
vt 0.3913 0.2078
vt 0.3869 0.2007
vt 0.3850 0.2033
vt 0.3932 0.2052
vt 0.3932 0.2052
vt 0.3913 0.2078
vt 0.3932 0.2052
vt 0.3913 0.2078
vt 0.3913 0.2078
vt 0.3869 0.2007
vt 0.3850 0.2033
vt 0.3932 0.2052
vt 0.3932 0.2052
vt 0.3913 0.2078
vt 0.3932 0.2052
vt 0.3913 0.2078
vt 0.3913 0.2078
vt 0.3869 0.2007
vt 0.3850 0.2033
vt 0.3932 0.2052
vt 0.3932 0.2052
vt 0.3913 0.2078
vt 0.3932 0.2052
vt 0.3913 0.2078
vt 0.3913 0.2078
vt 0.3869 0.2007
vt 0.3850 0.2033
vt 0.3932 0.2052
vt 0.3932 0.2052
vt 0.3913 0.2078
vt 0.3932 0.2052
vt 0.3186 0.0356
vt 0.3186 0.0310
vt 0.2450 0.0310
vt 0.3485 0.0356
vt 0.3485 0.0310
vt 0.2450 0.0355
vt 0.3186 0.0247
vt 0.3186 0.0310
vt 0.3485 0.0310
vt 0.2450 0.0247
vt 0.2450 0.0310
vt 0.3485 0.0248
vt 0.3186 0.0356
vt 0.3186 0.0453
vt 0.2450 0.0355
vt 0.3485 0.0454
vt 0.3485 0.0356
vt 0.2450 0.0453
vt 0.3186 0.0659
vt 0.3485 0.0660
vt 0.2450 0.0659
vt 0.6297 0.1830
vt 0.5277 0.1830
vt 0.7984 0.1178
vt 0.7988 0.1528
vt 0.8004 0.2803
vt 0.9038 0.2791
vt 0.6297 0.0596
vt 0.5277 0.0596
vt 0.6297 0.0744
vt 0.5277 0.0744
vt 0.5277 0.0921
vt 0.6297 0.0921
vt 0.6297 0.0924
vt 0.5321 0.1010
vt 0.5277 0.0924
vt 0.6297 0.0773
vt 0.5277 0.0773
vt 0.6297 0.0596
vt 0.5277 0.0596
vt 0.6956 0.1553
vt 0.6785 0.1655
vt 0.6688 0.1828
vt 0.6975 0.1773
vt 0.7087 0.1709
vt 0.6911 0.1885
vt 0.6692 0.2184
vt 0.6794 0.2355
vt 0.6967 0.2453
vt 0.6974 0.2240
vt 0.6907 0.2125
vt 0.7089 0.2307
vt 0.7780 0.2315
vt 0.7780 0.1696
vt 0.8612 0.1696
vt 0.8612 0.2315
vt 0.8744 0.1696
vt 0.8744 0.2315
vt 0.5292 0.2926
vt 0.5400 0.3060
vt 0.5400 0.3063
vt 0.5292 0.2929
vt 0.5277 0.1833
vt 0.6486 0.0805
vt 0.7580 0.0805
vt 0.7682 0.0196
vt 0.7682 0.1017
vt 0.7580 0.0806
vt 0.6486 0.0806
vt 0.6486 0.0911
vt 0.7580 0.0911
vt 0.7580 0.0910
vt 0.6486 0.0910
vt 0.7743 0.1121
vt 0.7743 0.0091
vt 0.1545 0.2643
vt 0.1980 0.2643
vt 0.2083 0.2535
vt 0.2045 0.2493
vt 0.1132 0.2643
vt 0.1081 0.2431
vt 0.0994 0.2488
vt 0.0944 0.2586
vt 0.0944 0.2701
vt 0.0994 0.2799
vt 0.1081 0.2856
vt 0.1545 0.2864
vt 0.2045 0.2858
vt 0.2083 0.2816
vt 0.2088 0.2643
vt 0.3496 0.2228
vt 0.3431 0.1627
vt 0.3555 0.2217
vt 0.3490 0.1616
vt 0.1453 0.1642
vt 0.1447 0.2242
vt 0.1566 0.1643
vt 0.1560 0.2243
vt 0.1673 0.2244
vt 0.1679 0.1644
vt 0.1787 0.2245
vt 0.1793 0.1646
vt 0.1906 0.1647
vt 0.1900 0.2247
vt 0.2019 0.1648
vt 0.2013 0.2248
vt 0.2537 0.1653
vt 0.2531 0.2253
vt 0.3096 0.1658
vt 0.3160 0.2259
vt 0.3156 0.1657
vt 0.3220 0.2257
vt 0.3389 0.2240
vt 0.3325 0.1639
vt 0.0613 0.2431
vt 0.0332 0.2297
vt 0.0095 0.2297
vt 0.0332 0.2297
vt 0.3854 0.0737
vt 0.3854 0.0919
vt 0.4860 0.2297
vt 0.5110 0.2297
vt 0.2465 0.3838
vt 0.2465 0.3676
vt 0.1037 0.1510
vt 0.0768 0.1705
vt 0.0613 0.2042
vt 0.0768 0.2768
vt 0.1037 0.2962
vt 0.2465 0.3676
vt 0.2465 0.2988
vt 0.4201 0.2968
vt 0.2465 0.0919
vt 0.2465 0.0737
vt 0.2465 0.0919
vt 0.3854 0.0919
vt 0.4316 0.1868
vt 0.4201 0.1724
vt 0.4860 0.2297
vt 0.4332 0.2236
vt 0.4316 0.2824
vt 0.3913 0.2078
vt 0.3913 0.2078
vt 0.3869 0.2007
vt 0.3850 0.2033
vt 0.3932 0.2052
vt 0.3932 0.2052
vt 0.3913 0.2078
vt 0.3932 0.2052
vt 0.3913 0.2078
vt 0.3913 0.2078
vt 0.3869 0.2007
vt 0.3850 0.2033
vt 0.3932 0.2052
vt 0.3932 0.2052
vt 0.3913 0.2078
vt 0.3932 0.2052
vt -0.0491 0.3782
vt -0.0692 0.3777
vt -0.0692 0.3547
vt -0.0491 0.3558
vt -0.0692 0.3333
vt -0.0491 0.3358
vt 0.9303 0.3083
vt 0.9509 0.3107
vt 0.9303 0.3309
vt 0.9509 0.3327
vt 0.9303 0.3518
vt 0.9509 0.3523
vt -0.0692 0.5533
vt -0.0491 0.5534
vt -0.0491 0.6616
vt -0.0693 0.6584
vt -0.0692 0.6642
vt -0.0491 0.6562
vt -0.0693 0.6531
vt -0.0491 0.6514
vt -0.0693 0.6431
vt -0.0491 0.6426
vt 0.9303 0.6687
vt 0.9509 0.6683
vt 0.9303 0.6785
vt 0.9509 0.6768
vt 0.9303 0.6837
vt 0.9509 0.6816
vt -0.1022 0.5535
vt -0.1052 0.5533
vt -0.1052 0.3775
vt -0.1022 0.3774
vt -0.1022 0.3539
vt -0.1052 0.3541
vt -0.1052 0.3321
vt -0.1022 0.3321
vt 0.8950 0.3070
vt 0.8980 0.3071
vt 0.8980 0.3302
vt 0.8950 0.3299
vt 0.8980 0.3515
vt 0.8950 0.3516
vt -0.0692 0.3777
vt -0.0723 0.3774
vt -0.0723 0.3539
vt -0.0692 0.3547
vt -0.0692 0.3333
vt -0.0723 0.3321
vt 0.9273 0.3071
vt 0.9303 0.3083
vt 0.9273 0.3302
vt 0.9303 0.3309
vt 0.9273 0.3515
vt 0.9303 0.3518
vt -0.0692 0.5533
vt -0.0723 0.5535
vt -0.1052 0.6595
vt -0.1022 0.6595
vt -0.0693 0.6584
vt -0.0723 0.6595
vt -0.1052 0.6539
vt -0.1022 0.6538
vt -0.0693 0.6531
vt -0.0723 0.6538
vt -0.1052 0.6433
vt -0.1022 0.6433
vt -0.0693 0.6431
vt -0.0723 0.6433
vt 0.8950 0.6689
vt 0.8980 0.6690
vt 0.9303 0.6687
vt 0.9273 0.6690
vt 0.8980 0.6793
vt 0.8950 0.6794
vt 0.9273 0.6793
vt 0.9303 0.6785
vt 0.8980 0.6848
vt 0.8950 0.6848
vt 0.9303 0.6837
vt 0.9273 0.6848
vt -0.0723 0.3774
vt -0.1022 0.3774
vt -0.1022 0.3539
vt -0.0723 0.3539
vt -0.1022 0.3321
vt -0.0723 0.3321
vt 0.8980 0.3071
vt 0.9273 0.3071
vt 0.8980 0.3302
vt 0.9273 0.3302
vt 0.8980 0.3515
vt 0.9273 0.3515
vt -0.0723 0.5535
vt -0.1022 0.5535
vt 0.8980 0.6907
vt 0.9273 0.6907
vt -0.1022 0.6595
vt -0.0723 0.6595
vt -0.1022 0.6538
vt -0.0723 0.6538
vt -0.1022 0.6433
vt -0.0723 0.6433
vt 0.8980 0.6690
vt 0.9273 0.6690
vt 0.8980 0.6793
vt 0.9273 0.6793
vt 0.8980 0.6848
vt 0.9273 0.6848
vn 0.0000 0.0000 1.0000
vn 0.0000 0.0000 1.0000
vn 0.0000 0.0000 1.0000
vn 0.0000 0.0000 1.0000
vn 0.0000 0.0000 1.0000
vn 0.0000 0.0000 1.0000
vn 0.0000 0.0000 1.0000
vn 0.0000 0.0000 1.0000
vn 0.0000 0.0000 1.0000
vn 0.0000 0.0000 1.0000
vn 0.0000 0.0000 1.0000
vn 0.0000 0.0000 1.0000
vn 0.0000 1.0000 0.0000
vn 0.0000 1.0000 0.0000
vn 0.0000 1.0000 0.0000
vn 0.0000 1.0000 0.0000
vn 0.0000 1.0000 0.0000
vn 0.0000 1.0000 0.0000
vn 0.0000 1.0000 0.0000
vn 0.0000 1.0000 0.0000
vn 0.0000 1.0000 0.0000
vn 0.0000 1.0000 0.0000
vn -1.0000 0.0000 0.0000
vn -1.0000 0.0000 0.0000
vn 0.0000 0.0000 -1.0000
vn 0.0000 0.0000 -1.0000
vn 0.0000 0.0000 -1.0000
vn 0.0000 0.0000 -1.0000
vn 0.0000 0.0000 1.0000
vn 0.0000 0.0000 1.0000
vn 0.0000 0.0000 1.0000
vn 0.0000 0.0000 1.0000
vn 1.0000 -0.0000 -0.0000
vn 1.0000 -0.0000 -0.0000
vn 0.0000 0.0000 1.0000
vn 0.0000 0.0000 1.0000
vn 0.0000 0.0000 1.0000
vn 0.0000 0.0000 1.0000
vn 0.0000 0.0000 -1.0000
vn 0.0000 0.0000 -1.0000
vn 0.0000 0.0000 -1.0000
vn 0.0000 0.0000 -1.0000
vn 1.0000 -0.0000 -0.0000
vn 0.0000 0.0000 1.0000
vn 0.0000 0.0000 1.0000
vn 0.0000 0.0000 -1.0000
vn 0.0000 0.0000 -1.0000
vn -0.0000 -1.0000 0.0000
vn -0.0000 -1.0000 0.0000
vn -0.0000 -1.0000 0.0000
vn -0.0000 -1.0000 0.0000
vn -0.0000 -0.2077 0.9782
vn -0.0000 -0.2077 0.9782
vn 1.0000 -0.0000 -0.0000
vn 1.0000 -0.0000 -0.0000
vn 1.0000 -0.0000 -0.0000
vn -0.0000 -1.0000 0.0000
vn -0.0000 -1.0000 0.0000
vn -0.0000 -1.0000 0.0000
vn -0.0000 -1.0000 0.0000
vn -0.0654 0.0000 -0.9979
vn -0.0654 0.0000 -0.9979
vn -0.0000 -1.0000 0.0000
vn -0.0000 -1.0000 0.0000
vn 0.5000 0.0000 -0.8660
vn 0.5000 0.0000 -0.8660
vn -0.9979 0.0000 -0.0654
vn -0.8660 0.0000 -0.5000
vn -0.8660 0.0000 -0.5000
vn -0.0654 0.0000 -0.9979
vn -0.0654 0.0000 -0.9979
vn -0.0000 -1.0000 0.0000
vn -0.0000 -1.0000 0.0000
vn -0.0000 -1.0000 0.0000
vn -0.0000 -1.0000 0.0000
vn -0.0000 -1.0000 0.0000
vn -0.0000 -1.0000 0.0000
vn -0.0000 -1.0000 0.0000
vn -0.0000 -1.0000 0.0000
vn -0.0000 -1.0000 0.0000
vn -1.0000 0.0000 0.0000
vn -1.0000 0.0000 0.0000
vn -1.0000 0.0000 0.0000
vn 1.0000 -0.0000 -0.0000
vn 1.0000 -0.0000 -0.0000
vn 0.0000 1.0000 0.0000
vn 0.0000 1.0000 0.0000
vn -1.0000 0.0000 0.0000
vn -1.0000 0.0000 0.0000
vn -1.0000 0.0000 0.0000
vn -0.0000 -1.0000 0.0000
vn -1.0000 0.0000 0.0000
vn -1.0000 0.0000 0.0000
vn 1.0000 -0.0000 -0.0000
vn 1.0000 -0.0000 -0.0000
vn 1.0000 -0.0000 -0.0000
vn 0.0000 1.0000 0.0000
vn 0.0000 1.0000 0.0000
vn -1.0000 0.0000 0.0000
vn -1.0000 0.0000 0.0000
vn -0.9979 0.0000 -0.0654
vn -0.9979 0.0000 -0.0654
vn -1.0000 0.0000 0.0000
vn -1.0000 0.0000 0.0000
vn -1.0000 0.0000 0.0000
vn -1.0000 0.0000 0.0000
vn -1.0000 0.0000 0.0000
vn 0.0000 1.0000 0.0000
vn 0.0000 1.0000 0.0000
vn 1.0000 -0.0000 -0.0000
vn 1.0000 -0.0000 -0.0000
vn -1.0000 0.0000 0.0000
vn -1.0000 0.0000 0.0000
vn -0.0000 -1.0000 0.0000
vn -0.0000 -1.0000 0.0000
vn -0.0000 -1.0000 0.0000
vn -0.0000 -1.0000 0.0000
vn -0.0000 -1.0000 0.0000
vn -0.0000 -1.0000 0.0000
vn -1.0000 0.0000 0.0000
vn -1.0000 0.0000 0.0000
vn -1.0000 0.0000 0.0000
vn -1.0000 0.0000 0.0000
vn 0.0000 1.0000 0.0000
vn 0.0000 1.0000 0.0000
vn 0.0000 1.0000 0.0000
vn 0.0000 1.0000 0.0000
vn 0.0000 1.0000 0.0000
vn 0.0000 1.0000 0.0000
vn 0.0000 1.0000 0.0000
vn 0.0000 1.0000 0.0000
vn 0.0000 1.0000 0.0000
vn 0.0000 1.0000 0.0000
vn 0.0000 1.0000 0.0000
vn 0.0000 1.0000 0.0000
vn 0.0000 1.0000 0.0000
vn 0.0000 1.0000 0.0000
vn 1.0000 -0.0000 -0.0000
vn 1.0000 -0.0000 -0.0000
vn 0.0000 0.0000 -1.0000
vn 0.0000 0.0000 -1.0000
vn 0.0000 0.0000 -1.0000
vn 0.0000 0.0000 -1.0000
vn 1.0000 -0.0000 -0.0000
vn 1.0000 -0.0000 -0.0000
vn 1.0000 -0.0000 -0.0000
vn 1.0000 -0.0000 -0.0000
vn 0.0000 0.0000 1.0000
vn 0.0000 0.0000 1.0000
vn 0.0000 0.0000 1.0000
vn 0.0000 0.0000 1.0000
vn 1.0000 -0.0000 -0.0000
vn 1.0000 -0.0000 -0.0000
vn 0.5000 0.0000 0.8660
vn 0.5000 0.0000 0.8660
vn 0.0000 0.0000 1.0000
vn 0.0000 0.0000 1.0000
vn -0.5000 0.0000 0.8660
vn -0.5000 0.0000 0.8660
vn -1.0000 0.0000 0.0000
vn -1.0000 0.0000 0.0000
vn 0.0000 1.0000 0.0000
vn 0.0000 0.0000 1.0000
vn 0.0000 0.0000 1.0000
vn 1.0000 -0.0000 -0.0000
vn 1.0000 -0.0000 -0.0000
vn 0.0000 0.0000 -1.0000
vn 0.0000 0.0000 -1.0000
vn 0.0000 0.0000 -1.0000
vn 0.0000 0.0000 -1.0000
vn -1.0000 0.0000 0.0000
vn -1.0000 0.0000 0.0000
vn 0.0000 0.0000 1.0000
vn 0.0000 0.0000 1.0000
vn 0.0000 1.0000 0.0000
vn 0.0000 1.0000 0.0000
vn 0.0000 1.0000 0.0000
vn 0.0000 1.0000 0.0000
vn 0.0000 1.0000 0.0000
vn 0.0000 1.0000 0.0000
vn 0.0000 1.0000 0.0000
vn 0.0000 1.0000 0.0000
vn -1.0000 0.0000 0.0000
vn -1.0000 0.0000 0.0000
vn 0.0000 1.0000 0.0000
vn 1.0000 -0.0000 -0.0000
vn 1.0000 -0.0000 -0.0000
vn 0.0000 1.0000 0.0000
vn 0.0000 1.0000 0.0000
vn 0.0000 1.0000 0.0000
vn 0.0000 1.0000 0.0000
vn 0.0000 1.0000 0.0000
vn 0.0000 1.0000 0.0000
vn 0.0000 1.0000 0.0000
vn 0.0000 1.0000 0.0000
vn 0.0000 0.0000 -1.0000
vn 0.0000 0.0000 -1.0000
vn 0.0000 0.0000 -1.0000
vn 0.0000 0.0000 -1.0000
vn 0.0000 0.0000 -1.0000
vn 0.0000 0.0000 -1.0000
vn 0.0000 0.0000 -1.0000
vn 0.0000 0.0000 -1.0000
vn 0.0000 0.0000 -1.0000
vn 0.0000 0.0000 -1.0000
vn 1.0000 -0.0000 -0.0000
vn 1.0000 -0.0000 -0.0000
vn 1.0000 -0.0000 -0.0000
vn 1.0000 -0.0000 -0.0000
vn -0.5000 0.0000 0.8660
vn -0.5000 0.0000 0.8660
vn 0.0000 0.0000 1.0000
vn 0.0000 0.0000 1.0000
vn 0.0000 0.0000 1.0000
vn 0.0000 0.0000 1.0000
vn 0.5000 0.0000 0.8660
vn 0.5000 0.0000 0.8660
vn 1.0000 -0.0000 -0.0000
vn 1.0000 -0.0000 -0.0000
vn 1.0000 -0.0000 -0.0000
vn 1.0000 -0.0000 -0.0000
vn 0.0000 0.0000 1.0000
vn 0.0000 0.0000 1.0000
vn 0.0000 0.0000 1.0000
vn 0.0000 0.0000 1.0000
vn 0.0000 0.0000 -1.0000
vn 0.0000 0.0000 -1.0000
vn -0.0000 -1.0000 0.0000
vn -0.0000 -1.0000 0.0000
vn -0.0000 -1.0000 0.0000
vn -0.0000 -1.0000 0.0000
vn -0.0000 -1.0000 0.0000
vn -0.0000 -1.0000 0.0000
vn 0.0000 1.0000 0.0000
vn 0.0000 1.0000 0.0000
vn 0.0000 1.0000 0.0000
vn 0.0000 1.0000 0.0000
vn -0.0000 -1.0000 0.0000
vn -0.0000 -1.0000 0.0000
vn -0.0000 -1.0000 0.0000
vn -0.0000 -1.0000 0.0000
vn -0.0000 -1.0000 0.0000
vn -0.0000 -1.0000 0.0000
vn -0.0000 -1.0000 0.0000
vn -0.0000 -1.0000 0.0000
vn -0.0000 -1.0000 0.0000
vn -0.0000 -1.0000 0.0000
vn -0.0000 -1.0000 0.0000
vn -0.0000 -1.0000 0.0000
vn 0.0000 1.0000 0.0000
vn 0.0000 1.0000 0.0000
vn 0.0000 1.0000 0.0000
vn 0.0000 1.0000 0.0000
vn 0.0000 1.0000 0.0000
vn 0.0000 1.0000 0.0000
vn 0.0000 1.0000 0.0000
vn 0.0000 1.0000 0.0000
vn 0.0000 1.0000 0.0000
vn 0.0000 1.0000 0.0000
vn 0.0000 1.0000 0.0000
vn 0.0000 1.0000 0.0000
vn -0.0000 -1.0000 0.0000
vn -0.0000 -1.0000 0.0000
vn 0.0000 1.0000 0.0000
vn 0.0000 1.0000 0.0000
vn 0.0000 1.0000 0.0000
vn 0.0000 1.0000 0.0000
vn -0.0000 -1.0000 0.0000
vn -0.0000 -1.0000 0.0000
vn -0.0000 -1.0000 0.0000
vn -0.0000 -1.0000 0.0000
vn 0.0000 1.0000 0.0000
vn 0.0000 1.0000 0.0000
vn 0.0000 1.0000 0.0000
vn 0.0000 1.0000 0.0000
vn -0.0000 -1.0000 0.0000
vn -0.0000 -1.0000 0.0000
vn -0.0000 -1.0000 0.0000
vn -0.0000 -1.0000 0.0000
vn 0.0000 1.0000 0.0000
vn 0.0000 1.0000 0.0000
vn 0.0000 1.0000 0.0000
vn 0.0000 1.0000 0.0000
vn -0.0000 -1.0000 0.0000
vn -0.0000 -1.0000 0.0000
vn 0.0000 1.0000 0.0000
vn 0.0000 1.0000 0.0000
vn -1.0000 0.0000 0.0000
vn -1.0000 0.0000 0.0000
vn -1.0000 0.0000 0.0000
vn -1.0000 0.0000 0.0000
vn 0.5000 0.0000 -0.8660
vn 0.5000 0.0000 -0.8660
vn 0.0000 0.0000 -1.0000
vn 0.0000 0.0000 -1.0000
vn 0.0000 0.0000 -1.0000
vn 0.0000 0.0000 -1.0000
vn -0.5000 0.0000 -0.8660
vn -0.5000 0.0000 -0.8660
vn -1.0000 0.0000 0.0000
vn -1.0000 0.0000 0.0000
vn -1.0000 0.0000 0.0000
vn -1.0000 0.0000 0.0000
vn 0.0000 0.0000 1.0000
vn 0.0000 0.0000 1.0000
vn 0.0000 0.0000 1.0000
vn 0.0000 0.0000 1.0000
vn 0.0000 0.0000 1.0000
vn 0.0000 0.0000 1.0000
vn 0.0000 0.0000 -1.0000
vn 0.0000 0.0000 -1.0000
vn 0.0000 0.0000 -1.0000
vn 0.0000 0.0000 -1.0000
vn 0.0000 0.0000 1.0000
vn 0.0000 0.0000 1.0000
vn -0.0000 -1.0000 0.0000
vn -0.0000 -1.0000 0.0000
vn 0.0000 0.0000 -1.0000
vn 0.0000 0.0000 -1.0000
vn 0.0000 1.0000 0.0000
vn 0.0000 1.0000 0.0000
vn -0.0000 -1.0000 0.0000
vn -0.0000 -1.0000 0.0000
vn 0.0000 0.0000 -1.0000
vn 0.0000 0.0000 -1.0000
vn 0.0000 0.0000 -1.0000
vn 0.5858 0.8105 0.0000
vn 0.5858 0.8105 0.0000
vn 0.0000 0.0000 -1.0000
vn 0.0000 0.0000 -1.0000
vn 0.0000 0.0000 -1.0000
vn 0.5858 0.8105 0.0000
vn 0.5858 0.8105 0.0000
vn 0.0000 0.0000 -1.0000
vn 0.0000 0.0000 -1.0000
vn 0.0000 0.0000 -1.0000
vn 0.5858 0.8105 0.0000
vn 0.5858 0.8105 0.0000
vn 0.0000 0.0000 -1.0000
vn 0.0000 0.0000 -1.0000
vn 0.0000 0.0000 -1.0000
vn 0.5858 0.8105 0.0000
vn 0.5858 0.8105 0.0000
vn -0.0000 -0.2901 0.9570
vn -0.0000 -0.2901 0.9570
vn -0.0000 -1.0000 0.0000
vn 0.0654 0.0000 -0.9979
vn 0.0654 0.0000 -0.9979
vn 0.8660 0.0000 -0.5000
vn 0.8660 0.0000 -0.5000
vn 0.9979 0.0000 -0.0654
vn 0.9979 0.0000 -0.0654
vn -0.5000 0.0000 -0.8660
vn -0.5000 0.0000 -0.8660
vn -0.0000 -1.0000 0.0000
vn -0.0000 -1.0000 0.0000
vn -0.0000 -1.0000 0.0000
vn -0.0000 -1.0000 0.0000
vn -0.0000 -1.0000 0.0000
vn -0.0000 -0.9964 0.0850
vn -0.0000 -0.9964 0.0850
vn -0.0000 -0.7771 0.6294
vn -0.0000 -0.7771 0.6294
vn 1.0000 -0.0000 -0.0000
vn -1.0000 0.0000 0.0000
vn -0.1305 0.0000 0.9914
vn 0.0000 0.0000 1.0000
vn -0.1305 0.0000 0.9914
vn 0.0000 0.0000 1.0000
vn -0.1305 0.0000 -0.9914
vn 0.0000 0.0000 -1.0000
vn -0.1305 0.0000 -0.9914
vn 0.0000 0.0000 -1.0000
vn -0.0000 -1.0000 0.0000
vn -0.0000 -1.0000 0.0000
vn -0.8660 0.0000 0.5000
vn -0.8660 0.0000 0.5000
vn -0.8660 0.0000 -0.5000
vn -0.8660 0.0000 -0.5000
vn 0.0000 1.0000 0.0000
vn 0.0000 1.0000 0.0000
vn 0.0000 1.0000 0.0000
vn 0.0000 1.0000 0.0000
vn 0.0974 0.1157 -0.9885
vn 0.0974 0.1157 -0.9885
vn 0.7049 0.0824 -0.7045
vn 0.7049 0.0824 -0.7045
vn 0.9979 0.0000 -0.0654
vn 0.9979 0.0000 -0.0654
vn 0.9979 0.0000 0.0654
vn 0.9979 0.0000 0.0654
vn 0.8660 0.0000 0.5000
vn 0.8660 0.0000 0.5000
vn -0.8660 0.0000 0.5000
vn -0.8660 0.0000 0.5000
vn -0.9979 0.0000 0.0654
vn -0.9979 0.0000 0.0654
vn -0.9979 0.0000 -0.0654
vn -0.9979 0.0000 -0.0654
vn -0.7049 0.0824 -0.7045
vn -0.7049 0.0824 -0.7045
vn -0.0974 0.1157 -0.9885
vn -0.0974 0.1157 -0.9885
vn 0.0000 1.0000 0.0000
vn 0.0000 1.0000 0.0000
vn 0.0000 1.0000 0.0000
vn 0.0000 1.0000 0.0000
vn 0.0000 0.0000 1.0000
vn 0.0000 0.0000 1.0000
vn 0.0000 0.0000 1.0000
vn -0.5858 0.8105 0.0000
vn -0.5858 0.8105 0.0000
vn 0.0000 0.0000 1.0000
vn 0.0000 0.0000 1.0000
vn 0.0000 0.0000 1.0000
vn -0.5858 0.8105 0.0000
vn -0.5858 0.8105 0.0000
vn -0.8660 0.0000 0.5000
vn -0.8660 0.0000 0.5000
vn 0.8660 0.0000 0.5000
vn 0.8660 0.0000 0.5000
vn 0.9979 0.0000 0.0654
vn 0.9979 0.0000 0.0654
vn -0.9979 0.0000 0.0654
vn -0.9979 0.0000 0.0654
vn -0.9979 0.0000 -0.0654
vn -0.9979 0.0000 -0.0654
vn 0.9979 0.0000 -0.0654
vn 0.9979 0.0000 -0.0654
vn 0.0654 0.0000 -0.9979
vn 0.0654 0.0000 -0.9979
vn -0.8090 0.0000 -0.5878
vn -0.8090 0.0000 -0.5878
vn 0.8090 0.0000 -0.5878
vn 0.8090 0.0000 -0.5878
vn -0.0000 -1.0000 0.0000
vn -0.0000 -1.0000 0.0000
vn -0.0000 -1.0000 0.0000
vn -0.0000 -1.0000 0.0000
vn 0.0000 1.0000 0.0000
vn 0.0000 1.0000 0.0000
vn 0.0000 1.0000 0.0000
vn 0.0000 1.0000 0.0000
vn -0.0000 -1.0000 0.0000
vn -0.0000 -1.0000 0.0000
vn 0.0000 1.0000 0.0000
vn 0.0000 1.0000 0.0000
vn -0.0000 -1.0000 0.0000
vn -0.0000 -1.0000 0.0000
vn 0.0000 1.0000 0.0000
vn 0.0000 1.0000 0.0000
vn 0.8660 0.0000 -0.5000
vn 0.8660 0.0000 -0.5000
vn -0.8660 0.0000 -0.5000
vn -0.8660 0.0000 -0.5000
vn -0.9979 0.0000 -0.0654
vn -0.9979 0.0000 -0.0654
vn 0.9979 0.0000 -0.0654
vn 0.9979 0.0000 -0.0654
vn 0.9979 0.0000 0.0654
vn 0.9979 0.0000 0.0654
vn -0.9979 0.0000 0.0654
vn -0.9979 0.0000 0.0654
vn 0.0830 -0.0000 0.9965
vn 0.0830 -0.0000 0.9965
vn 0.8090 0.0000 0.5878
vn 0.8090 0.0000 0.5878
vn -0.8090 0.0000 0.5878
vn -0.8090 0.0000 0.5878
vn 0.0000 0.0000 -1.0000
vn 0.0000 1.0000 0.0000
vn 0.0000 1.0000 0.0000
vn 0.0000 1.0000 0.0000
vn 0.0000 1.0000 0.0000
vn 0.0000 0.0000 1.0000
vn 0.5858 0.8105 0.0000
vn 0.5858 0.8105 0.0000
vn 0.0000 0.0000 -1.0000
vn 0.0000 1.0000 0.0000
vn 0.0000 1.0000 0.0000
vn 0.0000 1.0000 0.0000
vn 0.0000 1.0000 0.0000
vn 0.0000 0.0000 1.0000
vn 0.5858 0.8105 0.0000
vn 0.5858 0.8105 0.0000
vn 0.0000 0.0000 -1.0000
vn 0.0000 1.0000 0.0000
vn 0.0000 1.0000 0.0000
vn 0.0000 1.0000 0.0000
vn 0.0000 1.0000 0.0000
vn 0.0000 0.0000 1.0000
vn 0.5858 0.8105 0.0000
vn 0.5858 0.8105 0.0000
vn 0.0000 0.0000 -1.0000
vn 0.0000 1.0000 0.0000
vn 0.0000 1.0000 0.0000
vn 0.0000 1.0000 0.0000
vn 0.0000 1.0000 0.0000
vn 0.0000 0.0000 1.0000
vn 0.5858 0.8105 0.0000
vn 0.5858 0.8105 0.0000
vn 0.0000 1.0000 0.0000
vn 0.0000 1.0000 0.0000
vn 0.0000 1.0000 0.0000
vn 0.0000 1.0000 0.0000
vn 0.0000 1.0000 0.0000
vn 0.0000 1.0000 0.0000
vn -1.0000 0.0000 0.0000
vn -1.0000 0.0000 0.0000
vn 1.0000 -0.0000 -0.0000
vn 1.0000 -0.0000 -0.0000
vn 1.0000 -0.0000 -0.0000
vn 1.0000 -0.0000 -0.0000
vn 1.0000 -0.0000 -0.0000
vn 1.0000 -0.0000 -0.0000
vn -1.0000 0.0000 0.0000
vn -1.0000 0.0000 0.0000
vn -1.0000 0.0000 0.0000
vn -1.0000 0.0000 0.0000
vn 1.0000 -0.0000 -0.0000
vn -1.0000 0.0000 0.0000
vn -1.0000 0.0000 0.0000
vn 1.0000 -0.0000 -0.0000
vn 1.0000 -0.0000 -0.0000
vn -0.0000 -1.0000 0.0000
vn -0.0000 -1.0000 0.0000
vn -0.0000 -1.0000 0.0000
vn -0.0000 -1.0000 0.0000
vn 0.2588 0.0000 -0.9659
vn 0.2588 0.0000 -0.9659
vn 0.7071 0.0000 -0.7071
vn 0.7071 0.0000 -0.7071
vn 0.9659 0.0000 -0.2588
vn 0.9659 0.0000 -0.2588
vn -0.9659 0.0000 -0.2588
vn -0.9979 0.0000 -0.0654
vn -0.9763 0.0000 -0.2162
vn -0.7071 0.0000 -0.7071
vn -0.7071 0.0000 -0.7071
vn -0.2588 0.0000 -0.9659
vn -0.2588 0.0000 -0.9659
vn -0.0000 -1.0000 0.0000
vn -0.0000 -1.0000 0.0000
vn -0.0000 -1.0000 0.0000
vn -0.0000 -1.0000 0.0000
vn -0.0000 -1.0000 0.0000
vn -0.0000 -1.0000 0.0000
vn -0.0000 -1.0000 0.0000
vn -0.0000 -1.0000 0.0000
vn -0.0000 -1.0000 0.0000
vn -0.0000 -1.0000 0.0000
vn -0.0000 -1.0000 0.0000
vn -0.0000 -1.0000 0.0000
vn -0.0000 -1.0000 0.0000
vn -0.0000 -1.0000 0.0000
vn -0.0000 -0.9426 0.3338
vn -0.0000 -0.9426 0.3338
vn -0.0000 -0.5224 0.8527
vn -0.0000 -0.5224 0.8527
vn 1.0000 -0.0000 -0.0000
vn 1.0000 -0.0000 -0.0000
vn -1.0000 0.0000 0.0000
vn -1.0000 0.0000 0.0000
vn -1.0000 0.0000 0.0000
vn -0.9914 0.0000 -0.1305
vn -0.9914 0.0000 -0.1305
vn -0.0000 -1.0000 0.0000
vn -0.0000 -1.0000 0.0000
vn -0.9914 0.0000 0.1305
vn -0.9914 0.0000 0.1305
vn -0.5000 0.0000 0.8660
vn -0.5000 0.0000 0.8660
vn -0.5000 0.0000 -0.8660
vn -0.5000 0.0000 -0.8660
vn -0.0000 -1.0000 0.0000
vn -0.0000 -1.0000 0.0000
vn 0.0000 1.0000 0.0000
vn 0.0000 1.0000 0.0000
vn 0.0000 1.0000 0.0000
vn 0.0000 1.0000 0.0000
vn 0.0000 1.0000 0.0000
vn 0.0000 1.0000 0.0000
vn 0.0000 1.0000 0.0000
vn 0.0000 1.0000 0.0000
vn 0.0000 1.0000 0.0000
vn 0.0000 1.0000 0.0000
vn 0.0000 1.0000 0.0000
vn 0.0000 1.0000 0.0000
vn 0.0000 1.0000 0.0000
vn 0.0000 1.0000 0.0000
vn 0.0000 1.0000 0.0000
vn 0.3806 0.1075 -0.9185
vn 0.3806 0.1075 -0.9185
vn 0.9230 0.0447 -0.3821
vn 0.9230 0.0447 -0.3821
vn 0.9659 0.0000 0.2588
vn 0.9659 0.0000 0.2588
vn 0.7071 0.0000 0.7071
vn 0.7071 0.0000 0.7071
vn 0.2588 0.0000 0.9659
vn 0.2588 0.0000 0.9659
vn -0.2588 0.0000 0.9659
vn -0.2588 0.0000 0.9659
vn -0.7071 0.0000 0.7071
vn -0.7071 0.0000 0.7071
vn -0.9659 0.0000 0.2588
vn -0.9659 0.0000 0.2588
vn -1.0000 0.0000 0.0000
vn -1.0000 0.0000 0.0000
vn -0.9230 0.0447 -0.3821
vn -0.9230 0.0447 -0.3821
vn -0.3806 0.1075 -0.9185
vn -0.3806 0.1075 -0.9185
vn -0.0000 0.1162 -0.9932
vn -0.0000 0.1162 -0.9932
vn 0.0000 1.0000 0.0000
vn 0.0000 1.0000 0.0000
vn 0.0000 0.0000 1.0000
vn 0.0000 0.0000 1.0000
vn 1.0000 -0.0000 -0.0000
vn 1.0000 -0.0000 -0.0000
vn 0.0000 0.0000 -1.0000
vn 0.0000 0.0000 -1.0000
vn -1.0000 0.0000 0.0000
vn -1.0000 0.0000 0.0000
vn 0.0000 1.0000 0.0000
vn 0.0000 1.0000 0.0000
vn 0.0000 1.0000 0.0000
vn 0.0000 1.0000 0.0000
vn 0.0000 1.0000 0.0000
vn 0.0000 1.0000 0.0000
vn 0.0000 1.0000 0.0000
vn 0.0000 1.0000 0.0000
vn 0.0000 1.0000 0.0000
vn 1.0000 -0.0000 -0.0000
vn 1.0000 -0.0000 -0.0000
vn 0.0000 1.0000 0.0000
vn 0.0000 1.0000 0.0000
vn 0.0000 1.0000 0.0000
vn 0.0000 1.0000 0.0000
vn 0.0000 1.0000 0.0000
vn 0.0000 1.0000 0.0000
vn 0.0000 0.0000 1.0000
vn 0.0000 1.0000 0.0000
vn 0.0000 1.0000 0.0000
vn 0.0000 1.0000 0.0000
vn 0.0000 1.0000 0.0000
vn 0.0000 0.0000 -1.0000
vn -0.5858 0.8105 0.0000
vn -0.5858 0.8105 0.0000
vn 0.0000 0.0000 1.0000
vn 0.0000 1.0000 0.0000
vn 0.0000 1.0000 0.0000
vn 0.0000 1.0000 0.0000
vn 0.0000 1.0000 0.0000
vn 0.0000 0.0000 -1.0000
vn -0.5858 0.8105 0.0000
vn -0.5858 0.8105 0.0000
vn -0.9659 0.0000 0.2588
vn -0.9659 0.0000 0.2588
vn -0.7071 0.0000 0.7071
vn -0.7071 0.0000 0.7071
vn -0.2588 0.0000 0.9659
vn -0.2588 0.0000 0.9659
vn 0.2588 0.0000 0.9659
vn 0.2588 0.0000 0.9659
vn 0.7071 0.0000 0.7071
vn 0.7071 0.0000 0.7071
vn 0.9659 0.0000 0.2588
vn 0.9659 0.0000 0.2588
vn -1.0000 0.0000 0.0000
vn -1.0000 0.0000 0.0000
vn -0.0654 0.0000 -0.9979
vn -0.3090 0.0000 -0.9511
vn -0.0654 0.0000 -0.9979
vn -0.3090 0.0000 -0.9511
vn -0.5878 0.0000 -0.8090
vn -0.5878 0.0000 -0.8090
vn -0.9511 0.0000 -0.3090
vn -0.9511 0.0000 -0.3090
vn 0.9511 0.0000 -0.3090
vn 0.9511 0.0000 -0.3090
vn 0.5878 0.0000 -0.8090
vn 0.5878 0.0000 -0.8090
vn 0.3090 -0.0000 -0.9511
vn 0.3090 -0.0000 -0.9511
vn -0.0000 -1.0000 0.0000
vn -0.0000 -1.0000 0.0000
vn -0.0000 -1.0000 0.0000
vn -0.0000 -1.0000 0.0000
vn -0.0000 -1.0000 0.0000
vn -0.0000 -1.0000 0.0000
vn -0.0000 -1.0000 0.0000
vn -0.0000 -1.0000 0.0000
vn -0.0000 -1.0000 0.0000
vn -0.0000 -1.0000 0.0000
vn -0.0000 -1.0000 0.0000
vn -0.0000 -1.0000 0.0000
vn -0.0000 -1.0000 0.0000
vn -0.0000 -1.0000 0.0000
vn 0.0000 1.0000 0.0000
vn 0.0000 1.0000 0.0000
vn 0.0000 1.0000 0.0000
vn 0.0000 1.0000 0.0000
vn 0.0000 1.0000 0.0000
vn 0.0000 1.0000 0.0000
vn 0.0000 1.0000 0.0000
vn 0.0000 1.0000 0.0000
vn 0.0000 1.0000 0.0000
vn 0.0000 1.0000 0.0000
vn 0.0000 1.0000 0.0000
vn 0.0000 1.0000 0.0000
vn 0.0000 1.0000 0.0000
vn 0.0000 1.0000 0.0000
vn -0.0000 -1.0000 0.0000
vn -0.0000 -1.0000 0.0000
vn 0.0000 1.0000 0.0000
vn 0.0000 1.0000 0.0000
vn -0.0000 -1.0000 0.0000
vn -0.0000 -1.0000 0.0000
vn 0.0000 1.0000 0.0000
vn 0.0000 1.0000 0.0000
vn -0.0000 -1.0000 0.0000
vn -0.0000 -1.0000 0.0000
vn 0.0000 1.0000 0.0000
vn 0.0000 1.0000 0.0000
vn -0.0000 -1.0000 0.0000
vn -0.0000 -1.0000 0.0000
vn 0.0000 1.0000 0.0000
vn 0.0000 1.0000 0.0000
vn -0.0000 -1.0000 0.0000
vn -0.0000 -1.0000 0.0000
vn 0.0000 1.0000 0.0000
vn 0.0000 1.0000 0.0000
vn -0.0000 -1.0000 0.0000
vn -0.0000 -1.0000 0.0000
vn 0.0000 1.0000 0.0000
vn 0.0000 1.0000 0.0000
vn 0.9659 0.0000 -0.2588
vn 0.9659 0.0000 -0.2588
vn 0.7071 0.0000 -0.7071
vn 0.7071 0.0000 -0.7071
vn 0.2588 0.0000 -0.9659
vn 0.2588 0.0000 -0.9659
vn -0.2588 0.0000 -0.9659
vn -0.2588 0.0000 -0.9659
vn -0.7071 0.0000 -0.7071
vn -0.7071 0.0000 -0.7071
vn -0.9659 0.0000 -0.2588
vn -0.9659 0.0000 -0.2588
vn 1.0000 -0.0000 -0.0000
vn 1.0000 -0.0000 -0.0000
vn -0.0830 -0.0000 0.9965
vn -0.0830 -0.0000 0.9965
vn 0.3133 0.0000 0.9496
vn 0.3133 0.0000 0.9496
vn 0.5878 0.0000 0.8090
vn 0.5878 0.0000 0.8090
vn 0.9496 0.0000 0.3133
vn 0.9496 0.0000 0.3133
vn -0.9496 0.0000 0.3133
vn -0.9496 0.0000 0.3133
vn -0.5878 -0.0000 0.8090
vn -0.5878 -0.0000 0.8090
vn -0.3134 -0.0000 0.9496
vn -0.3134 -0.0000 0.9496
f 288/288/288 289/289/289 291/291/291
f 288/288/288 290/290/290 289/289/289
f 447/447/447 726/726/726 725/725/725
f 447/447/447 725/725/725 446/446/446
f 722/722/722 447/447/447 446/446/446
f 722/722/722 446/446/446 721/721/721
f 718/718/718 722/722/722 721/721/721
f 718/718/718 721/721/721 717/717/717
f 286/286/286 718/718/718 717/717/717
f 286/286/286 717/717/717 287/287/287
f 320/320/320 286/286/286 287/287/287
f 320/320/320 287/287/287 321/321/321
f 705/705/705 252/252/252 253/253/253
f 705/705/705 706/706/706 252/252/252
f 250/250/250 706/706/706 705/705/705
f 250/250/250 705/705/705 251/251/251
f 704/704/704 250/250/250 251/251/251
f 704/704/704 703/703/703 250/250/250
f 441/441/441 703/703/703 704/704/704
f 441/441/441 440/440/440 703/703/703
f 701/701/701 440/440/440 441/441/441
f 701/701/701 702/702/702 440/440/440
f 260/260/260 702/702/702 701/701/701
f 260/260/260 701/701/701 261/261/261
f 713/713/713 260/260/260 261/261/261
f 713/713/713 714/714/714 260/260/260
f 714/714/714 713/713/713 266/266/266
f 714/714/714 266/266/266 267/267/267
f 725/725/725 267/267/267 266/266/266
f 725/725/725 726/726/726 267/267/267
f 264/264/264 236/236/236 234/234/234
f 264/264/264 234/234/234 265/265/265
f 259/259/259 264/264/264 265/265/265
f 259/259/259 258/258/258 264/264/264
f 712/712/712 258/258/258 259/259/259
f 712/712/712 711/711/711 258/258/258
f 443/443/443 711/711/711 712/712/712
f 443/443/443 442/442/442 711/711/711
f 710/710/710 442/442/442 443/443/443
f 710/710/710 709/709/709 442/442/442
f 257/257/257 709/709/709 710/710/710
f 257/257/257 256/256/256 709/709/709
f 708/708/708 256/256/256 257/257/257
f 708/708/708 707/707/707 256/256/256
f 254/254/254 707/707/707 708/708/708
f 254/254/254 255/255/255 707/707/707
f 280/280/280 281/281/281 283/283/283
f 280/280/280 282/282/282 281/281/281
f 737/737/737 282/282/282 280/280/280
f 737/737/737 738/738/738 282/282/282
f 733/733/733 738/738/738 737/737/737
f 733/733/733 737/737/737 734/734/734
f 451/451/451 733/733/733 734/734/734
f 451/451/451 450/450/450 733/733/733
f 729/729/729 450/450/450 451/451/451
f 729/729/729 730/730/730 450/450/450
f 274/274/274 730/730/730 729/729/729
f 274/274/274 729/729/729 273/273/273
f 272/272/272 274/274/274 273/273/273
f 272/272/272 273/273/273 275/275/275
f 237/237/237 272/272/272 275/275/275
f 237/237/237 235/235/235 272/272/272
f 234/234/234 235/235/235 237/237/237
f 234/234/234 236/236/236 235/235/235
f 723/723/723 724/724/724 445/445/445
f 723/723/723 445/445/445 444/444/444
f 444/444/444 445/445/445 720/720/720
f 444/444/444 720/720/720 719/719/719
f 719/719/719 720/720/720 716/716/716
f 719/719/719 716/716/716 715/715/715
f 715/715/715 716/716/716 284/284/284
f 715/715/715 284/284/284 285/285/285
f 285/285/285 284/284/284 316/316/316
f 285/285/285 316/316/316 317/317/317
f 240/240/240 693/693/693 241/241/241
f 240/240/240 694/694/694 693/693/693
f 693/693/693 694/694/694 238/238/238
f 693/693/693 238/238/238 239/239/239
f 238/238/238 692/692/692 239/239/239
f 238/238/238 691/691/691 692/692/692
f 691/691/691 437/437/437 692/692/692
f 691/691/691 436/436/436 437/437/437
f 436/436/436 689/689/689 437/437/437
f 436/436/436 690/690/690 689/689/689
f 689/689/689 690/690/690 248/248/248
f 689/689/689 248/248/248 249/249/249
f 249/249/249 248/248/248 687/687/687
f 249/249/249 687/687/687 688/688/688
f 687/687/687 232/232/232 688/688/688
f 687/687/687 233/233/233 232/232/232
f 233/233/233 723/723/723 232/232/232
f 233/233/233 724/724/724 723/723/723
f 229/229/229 230/230/230 262/262/262
f 229/229/229 262/262/262 263/263/263
f 262/262/262 247/247/247 263/263/263
f 262/262/262 246/246/246 247/247/247
f 246/246/246 700/700/700 247/247/247
f 246/246/246 699/699/699 700/700/700
f 699/699/699 439/439/439 700/700/700
f 699/699/699 438/438/438 439/439/439
f 438/438/438 698/698/698 439/439/439
f 438/438/438 697/697/697 698/698/698
f 697/697/697 245/245/245 698/698/698
f 697/697/697 244/244/244 245/245/245
f 244/244/244 695/695/695 245/245/245
f 244/244/244 696/696/696 695/695/695
f 695/695/695 696/696/696 242/242/242
f 695/695/695 242/242/242 243/243/243
f 276/276/276 277/277/277 279/279/279
f 276/276/276 278/278/278 277/277/277
f 278/278/278 736/736/736 277/277/277
f 278/278/278 735/735/735 736/736/736
f 735/735/735 732/732/732 736/736/736
f 735/735/735 731/731/731 732/732/732
f 731/731/731 449/449/449 732/732/732
f 731/731/731 448/448/448 449/449/449
f 448/448/448 727/727/727 449/449/449
f 448/448/448 728/728/728 727/727/727
f 727/727/727 728/728/728 270/270/270
f 727/727/727 270/270/270 268/268/268
f 268/268/268 270/270/270 269/269/269
f 268/268/268 269/269/269 271/271/271
f 269/269/269 231/231/231 271/271/271
f 269/269/269 228/228/228 231/231/231
f 228/228/228 229/229/229 231/231/231
f 228/228/228 230/230/230 229/229/229
f 433/433/433 679/679/679 680/680/680
f 433/433/433 432/432/432 679/679/679
f 678/678/678 432/432/432 433/433/433
f 678/678/678 677/677/677 432/432/432
f 676/676/676 677/677/677 678/678/678
f 676/676/676 674/674/674 677/677/677
f 673/673/673 674/674/674 676/676/676
f 673/673/673 675/675/675 674/674/674
f 318/318/318 675/675/675 673/673/673
f 318/318/318 673/673/673 319/319/319
f 664/664/664 212/212/212 213/213/213
f 664/664/664 663/663/663 212/212/212
f 211/211/211 663/663/663 664/664/664
f 211/211/211 210/210/210 663/663/663
f 662/662/662 210/210/210 211/211/211
f 662/662/662 661/661/661 210/210/210
f 419/419/419 661/661/661 662/662/662
f 419/419/419 418/418/418 661/661/661
f 659/659/659 418/418/418 419/419/419
f 659/659/659 660/660/660 418/418/418
f 424/424/424 660/660/660 659/659/659
f 424/424/424 425/425/425 660/660/660
f 424/424/424 671/671/671 425/425/425
f 424/424/424 672/672/672 671/671/671
f 426/426/426 671/671/671 672/672/672
f 426/426/426 672/672/672 427/427/427
f 680/680/680 426/426/426 427/427/427
f 680/680/680 679/679/679 426/426/426
f 222/222/222 223/223/223 225/225/225
f 222/222/222 224/224/224 223/223/223
f 220/220/220 428/428/428 221/221/221
f 220/220/220 429/429/429 428/428/428
f 428/428/428 429/429/429 681/681/681
f 428/428/428 681/681/681 682/682/682
f 682/682/682 681/681/681 434/434/434
f 682/682/682 434/434/434 435/435/435
f 435/435/435 434/434/434 683/683/683
f 435/435/435 683/683/683 684/684/684
f 684/684/684 683/683/683 685/685/685
f 684/684/684 685/685/685 686/686/686
f 686/686/686 685/685/685 430/430/430
f 686/686/686 430/430/430 431/431/431
f 430/430/430 226/226/226 431/431/431
f 430/430/430 227/227/227 226/226/226
f 422/422/422 219/219/219 218/218/218
f 422/422/422 218/218/218 423/423/423
f 670/670/670 422/422/422 423/423/423
f 670/670/670 669/669/669 422/422/422
f 421/421/421 669/669/669 670/670/670
f 421/421/421 420/420/420 669/669/669
f 668/668/668 420/420/420 421/421/421
f 668/668/668 667/667/667 420/420/420
f 217/217/217 667/667/667 668/668/668
f 217/217/217 216/216/216 667/667/667
f 666/666/666 216/216/216 217/217/217
f 666/666/666 665/665/665 216/216/216
f 214/214/214 665/665/665 666/666/666
f 214/214/214 215/215/215 665/665/665
f 206/206/206 207/207/207 209/209/209
f 206/206/206 208/208/208 207/207/207
f 202/202/202 203/203/203 205/205/205
f 202/202/202 204/204/204 203/203/203
f 416/416/416 657/657/657 658/658/658
f 416/416/416 417/417/417 657/657/657
f 656/656/656 199/199/199 201/201/201
f 656/656/656 200/200/200 199/199/199
f 652/652/652 653/653/653 655/655/655
f 652/652/652 654/654/654 653/653/653
f 413/413/413 651/651/651 415/415/415
f 413/413/413 414/414/414 651/651/651
f 411/411/411 649/649/649 650/650/650
f 411/411/411 412/412/412 649/649/649
f 648/648/648 196/196/196 198/198/198
f 648/648/648 197/197/197 196/196/196
f 644/644/644 645/645/645 647/647/647
f 644/644/644 646/646/646 645/645/645
f 408/408/408 643/643/643 410/410/410
f 408/408/408 409/409/409 643/643/643
f 171/171/171 624/624/624 172/172/172
f 171/171/171 625/625/625 624/624/624
f 624/624/624 625/625/625 183/183/183
f 624/624/624 183/183/183 184/184/184
f 175/175/175 185/185/185 195/195/195
f 616/616/616 617/617/617 162/162/162
f 162/162/162 617/617/617 628/628/628
f 617/617/617 177/177/177 628/628/628
f 617/617/617 176/176/176 177/177/177
f 177/177/177 176/176/176 627/627/627
f 627/627/627 176/176/176 404/404/404
f 404/404/404 176/176/176 626/626/626
f 626/626/626 176/176/176 175/175/175
f 175/175/175 176/176/176 634/634/634
f 175/175/175 634/634/634 185/185/185
f 634/634/634 188/188/188 185/185/185
f 634/634/634 637/637/637 188/188/188
f 637/637/637 189/189/189 188/188/188
f 637/637/637 190/190/190 189/189/189
f 189/189/189 190/190/190 191/191/191
f 191/191/191 190/190/190 639/639/639
f 639/639/639 190/190/190 406/406/406
f 406/406/406 190/190/190 638/638/638
f 638/638/638 190/190/190 192/192/192
f 192/192/192 190/190/190 640/640/640
f 192/192/192 640/640/640 641/641/641
f 193/193/193 641/641/641 640/640/640
f 193/193/193 640/640/640 181/181/181
f 181/181/181 642/642/642 193/193/193
f 181/181/181 407/407/407 642/642/642
f 181/181/181 633/633/633 407/407/407
f 181/181/181 182/182/182 633/633/633
f 181/181/181 194/194/194 182/182/182
f 631/631/631 194/194/194 181/181/181
f 631/631/631 632/632/632 194/194/194
f 180/180/180 632/632/632 631/631/631
f 180/180/180 631/631/631 179/179/179
f 179/179/179 630/630/630 180/180/180
f 405/405/405 630/630/630 179/179/179
f 405/405/405 179/179/179 629/629/629
f 629/629/629 179/179/179 617/617/617
f 629/629/629 617/617/617 178/178/178
f 178/178/178 617/617/617 616/616/616
f 169/169/169 623/623/623 170/170/170
f 169/169/169 622/622/622 623/623/623
f 622/622/622 167/167/167 623/623/623
f 622/622/622 168/168/168 167/167/167
f 165/165/165 620/620/620 166/166/166
f 165/165/165 621/621/621 620/620/620
f 620/620/620 621/621/621 636/636/636
f 620/620/620 636/636/636 635/635/635
f 635/635/635 636/636/636 186/186/186
f 635/635/635 186/186/186 187/187/187
f 401/401/401 400/400/400 612/612/612
f 401/401/401 612/612/612 613/613/613
f 613/613/613 612/612/612 402/402/402
f 613/613/613 402/402/402 403/403/403
f 614/614/614 403/403/403 402/402/402
f 614/614/614 402/402/402 615/615/615
f 614/614/614 615/615/615 384/384/384
f 614/614/614 384/384/384 385/385/385
f 384/384/384 592/592/592 385/385/385
f 384/384/384 593/593/593 592/592/592
f 593/593/593 386/386/386 592/592/592
f 593/593/593 387/387/387 386/386/386
f 387/387/387 594/594/594 386/386/386
f 387/387/387 595/595/595 594/594/594
f 595/595/595 388/388/388 594/594/594
f 595/595/595 389/389/389 388/388/388
f 389/389/389 138/138/138 388/388/388
f 389/389/389 139/139/139 138/138/138
f 159/159/159 158/158/158 604/604/604
f 159/159/159 604/604/604 605/605/605
f 605/605/605 604/604/604 394/394/394
f 605/605/605 394/394/394 395/395/395
f 395/395/395 394/394/394 606/606/606
f 395/395/395 606/606/606 607/607/607
f 607/607/607 606/606/606 396/396/396
f 607/607/607 396/396/396 397/397/397
f 397/397/397 396/396/396 608/608/608
f 397/397/397 608/608/608 609/609/609
f 609/609/609 608/608/608 160/160/160
f 609/609/609 160/160/160 161/161/161
f 161/161/161 160/160/160 398/398/398
f 161/161/161 398/398/398 399/399/399
f 399/399/399 398/398/398 610/610/610
f 399/399/399 610/610/610 611/611/611
f 611/611/611 610/610/610 400/400/400
f 611/611/611 400/400/400 401/401/401
f 152/152/152 153/153/153 390/390/390
f 152/152/152 390/390/390 391/391/391
f 391/391/391 390/390/390 596/596/596
f 391/391/391 596/596/596 597/597/597
f 597/597/597 596/596/596 392/392/392
f 597/597/597 392/392/392 393/393/393
f 393/393/393 392/392/392 598/598/598
f 393/393/393 598/598/598 599/599/599
f 599/599/599 598/598/598 154/154/154
f 599/599/599 154/154/154 155/155/155
f 154/154/154 600/600/600 155/155/155
f 154/154/154 601/601/601 600/600/600
f 600/600/600 601/601/601 156/156/156
f 600/600/600 156/156/156 157/157/157
f 156/156/156 602/602/602 157/157/157
f 156/156/156 603/603/603 602/602/602
f 602/602/602 603/603/603 158/158/158
f 602/602/602 158/158/158 159/159/159
f 163/163/163 618/618/618 164/164/164
f 163/163/163 619/619/619 618/618/618
f 619/619/619 173/173/173 618/618/618
f 619/619/619 174/174/174 173/173/173
f 148/148/148 149/149/149 151/151/151
f 148/148/148 150/150/150 149/149/149
f 144/144/144 145/145/145 147/147/147
f 144/144/144 146/146/146 145/145/145
f 140/140/140 141/141/141 143/143/143
f 140/140/140 142/142/142 141/141/141
f 125/125/125 128/128/128 124/124/124
f 125/125/125 129/129/129 128/128/128
f 577/577/577 124/124/124 578/578/578
f 126/126/126 578/578/578 124/124/124
f 126/126/126 124/124/124 127/127/127
f 380/380/380 126/126/126 127/127/127
f 380/380/380 127/127/127 580/580/580
f 380/380/380 579/579/579 126/126/126
f 137/137/137 578/578/578 591/591/591
f 126/126/126 591/591/591 578/578/578
f 588/588/588 578/578/578 135/135/135
f 137/137/137 135/135/135 578/578/578
f 137/137/137 136/136/136 135/135/135
f 383/383/383 136/136/136 137/137/137
f 383/383/383 589/589/589 136/136/136
f 383/383/383 137/137/137 590/590/590
f 577/577/577 125/125/125 124/124/124
f 581/581/581 125/125/125 577/577/577
f 581/581/581 130/130/130 125/125/125
f 582/582/582 130/130/130 581/581/581
f 381/381/381 582/582/582 581/581/581
f 583/583/583 381/381/381 581/581/581
f 131/131/131 583/583/583 581/581/581
f 584/584/584 131/131/131 581/581/581
f 132/132/132 584/584/584 581/581/581
f 585/585/585 132/132/132 581/581/581
f 133/133/133 585/585/585 581/581/581
f 586/586/586 133/133/133 581/581/581
f 382/382/382 586/586/586 581/581/581
f 587/587/587 382/382/382 581/581/581
f 134/134/134 587/587/587 581/581/581
f 134/134/134 581/581/581 577/577/577
f 134/134/134 577/577/577 588/588/588
f 588/588/588 577/577/577 578/578/578
f 81/81/81 104/104/104 103/103/103
f 81/81/81 103/103/103 82/82/82
f 365/365/365 81/81/81 82/82/82
f 365/365/365 562/562/562 81/81/81
f 564/564/564 536/536/536 102/102/102
f 564/564/564 92/92/92 536/536/536
f 82/82/82 92/92/92 564/564/564
f 82/82/82 564/564/564 83/83/83
f 365/365/365 82/82/82 83/83/83
f 365/365/365 83/83/83 563/563/563
f 536/536/536 537/537/537 101/101/101
f 92/92/92 93/93/93 67/67/67
f 92/92/92 67/67/67 536/536/536
f 535/535/535 536/536/536 67/67/67
f 535/535/535 537/537/537 536/536/536
f 535/535/535 68/68/68 537/537/537
f 535/535/535 69/69/69 68/68/68
f 538/538/538 68/68/68 69/69/69
f 538/538/538 539/539/539 68/68/68
f 538/538/538 353/353/353 539/539/539
f 538/538/538 354/354/354 353/353/353
f 540/540/540 353/353/353 354/354/354
f 540/540/540 541/541/541 353/353/353
f 70/70/70 541/541/541 540/540/540
f 70/70/70 71/71/71 541/541/541
f 114/114/114 568/568/568 117/117/117
f 568/568/568 575/575/575 118/118/118
f 568/568/568 375/375/375 575/575/575
f 114/114/114 375/375/375 568/568/568
f 114/114/114 116/116/116 375/375/375
f 114/114/114 115/115/115 116/116/116
f 114/114/114 374/374/374 115/115/115
f 114/114/114 567/567/567 374/374/374
f 119/119/119 374/374/374 567/567/567
f 119/119/119 576/576/576 374/374/374
f 364/364/364 56/56/56 561/561/561
f 364/364/364 54/54/54 56/56/56
f 54/54/54 55/55/55 56/56/56
f 54/54/54 523/523/523 55/55/55
f 54/54/54 524/524/524 523/523/523
f 524/524/524 352/352/352 523/523/523
f 524/524/524 351/351/351 352/352/352
f 534/534/534 352/352/352 351/351/351
f 534/534/534 351/351/351 533/533/533
f 349/349/349 534/534/534 533/533/533
f 349/349/349 533/533/533 350/350/350
f 349/349/349 350/350/350 532/532/532
f 349/349/349 532/532/532 531/531/531
f 531/531/531 532/532/532 66/66/66
f 531/531/531 66/66/66 65/65/65
f 65/65/65 66/66/66 530/530/530
f 65/65/65 530/530/530 529/529/529
f 529/529/529 530/530/530 348/348/348
f 529/529/529 348/348/348 347/347/347
f 61/61/61 347/347/347 348/348/348
f 61/61/61 62/62/62 347/347/347
f 370/370/370 371/371/371 373/373/373
f 370/370/370 372/372/372 371/371/371
f 574/574/574 372/372/372 370/370/370
f 574/574/574 370/370/370 573/573/573
f 379/379/379 574/574/574 573/573/573
f 379/379/379 573/573/573 378/378/378
f 565/565/565 379/379/379 378/378/378
f 565/565/565 378/378/378 566/566/566
f 565/565/565 566/566/566 112/112/112
f 565/565/565 112/112/112 113/113/113
f 366/366/366 367/367/367 369/369/369
f 366/366/366 368/368/368 367/367/367
f 572/572/572 368/368/368 366/366/366
f 572/572/572 366/366/366 571/571/571
f 377/377/377 572/572/572 571/571/571
f 377/377/377 571/571/571 376/376/376
f 569/569/569 377/377/377 376/376/376
f 569/569/569 376/376/376 570/570/570
f 123/123/123 569/569/569 570/570/570
f 123/123/123 121/121/121 569/569/569
f 120/120/120 121/121/121 123/123/123
f 120/120/120 122/122/122 121/121/121
f 364/364/364 560/560/560 54/54/54
f 545/545/545 546/546/546 74/74/74
f 545/545/545 356/356/356 546/546/546
f 545/545/545 547/547/547 75/75/75
f 545/545/545 357/357/357 547/547/547
f 545/545/545 74/74/74 357/357/357
f 74/74/74 78/78/78 357/357/357
f 74/74/74 79/79/79 78/78/78
f 555/555/555 79/79/79 74/74/74
f 555/555/555 554/554/554 79/79/79
f 360/360/360 554/554/554 555/555/555
f 360/360/360 361/361/361 554/554/554
f 556/556/556 361/361/361 360/360/360
f 556/556/556 557/557/557 361/361/361
f 362/362/362 557/557/557 556/556/556
f 362/362/362 363/363/363 557/557/557
f 558/558/558 363/363/363 362/362/362
f 558/558/558 559/559/559 363/363/363
f 345/345/345 559/559/559 558/558/558
f 345/345/345 344/344/344 559/559/559
f 52/52/52 344/344/344 345/345/345
f 52/52/52 53/53/53 344/344/344
f 551/551/551 553/553/553 80/80/80
f 551/551/551 79/79/79 553/553/553
f 551/551/551 78/78/78 79/79/79
f 551/551/551 552/552/552 78/78/78
f 551/551/551 359/359/359 552/552/552
f 25/25/25 26/26/26 28/28/28
f 25/25/25 27/27/27 26/26/26
f 23/23/23 508/508/508 24/24/24
f 23/23/23 509/509/509 508/508/508
f 508/508/508 509/509/509 99/99/99
f 508/508/508 99/99/99 100/100/100
f 64/64/64 77/77/77 322/322/322
f 59/59/59 549/549/549 76/76/76
f 59/59/59 76/76/76 550/550/550
f 59/59/59 550/550/550 77/77/77
f 77/77/77 91/91/91 59/59/59
f 77/77/77 527/527/527 91/91/91
f 77/77/77 64/64/64 527/527/527
f 527/527/527 64/64/64 63/63/63
f 527/527/527 63/63/63 528/528/528
f 528/528/528 63/63/63 49/49/49
f 528/528/528 49/49/49 50/50/50
f 49/49/49 63/63/63 323/323/323
f 48/48/48 50/50/50 49/49/49
f 48/48/48 49/49/49 51/51/51
f 51/51/51 525/525/525 48/48/48
f 51/51/51 526/526/526 525/525/525
f 525/525/525 526/526/526 72/72/72
f 525/525/525 72/72/72 60/60/60
f 60/60/60 72/72/72 542/542/542
f 60/60/60 542/542/542 355/355/355
f 60/60/60 355/355/355 543/543/543
f 60/60/60 543/543/543 73/73/73
f 60/60/60 73/73/73 544/544/544
f 60/60/60 544/544/544 346/346/346
f 57/57/57 60/60/60 346/346/346
f 57/57/57 58/58/58 60/60/60
f 57/57/57 59/59/59 58/58/58
f 59/59/59 57/57/57 548/548/548
f 59/59/59 548/548/548 358/358/358
f 59/59/59 358/358/358 549/549/549
f 19/19/19 20/20/20 22/22/22
f 19/19/19 21/21/21 20/20/20
f 108/108/108 507/507/507 109/109/109
f 108/108/108 504/504/504 507/507/507
f 504/504/504 505/505/505 507/507/507
f 504/504/504 506/506/506 505/505/505
f 505/505/505 506/506/506 86/86/86
f 505/505/505 86/86/86 87/87/87
f 15/15/15 16/16/16 18/18/18
f 15/15/15 17/17/17 16/16/16
f 97/97/97 502/502/502 98/98/98
f 97/97/97 503/503/503 502/502/502
f 13/13/13 502/502/502 503/503/503
f 13/13/13 14/14/14 502/502/502
f 342/342/342 500/500/500 501/501/501
f 342/342/342 343/343/343 500/500/500
f 499/499/499 10/10/10 12/12/12
f 499/499/499 11/11/11 10/10/10
f 495/495/495 496/496/496 498/498/498
f 495/495/495 497/497/497 496/496/496
f 339/339/339 494/494/494 341/341/341
f 339/339/339 340/340/340 494/494/494
f 337/337/337 492/492/492 493/493/493
f 337/337/337 338/338/338 492/492/492
f 491/491/491 7/7/7 9/9/9
f 491/491/491 8/8/8 7/7/7
f 487/487/487 488/488/488 490/490/490
f 487/487/487 489/489/489 488/488/488
f 334/334/334 486/486/486 336/336/336
f 334/334/334 335/335/335 486/486/486
f 332/332/332 484/484/484 485/485/485
f 332/332/332 333/333/333 484/484/484
f 483/483/483 4/4/4 6/6/6
f 483/483/483 5/5/5 4/4/4
f 479/479/479 480/480/480 482/482/482
f 479/479/479 481/481/481 480/480/480
f 329/329/329 478/478/478 331/331/331
f 329/329/329 330/330/330 478/478/478
f 327/327/327 476/476/476 477/477/477
f 327/327/327 328/328/328 476/476/476
f 475/475/475 1/1/1 3/3/3
f 475/475/475 2/2/2 1/1/1
f 471/471/471 472/472/472 474/474/474
f 471/471/471 473/473/473 472/472/472
f 324/324/324 470/470/470 326/326/326
f 324/324/324 325/325/325 470/470/470
f 310/310/310 311/311/311 313/313/313
f 310/310/310 312/312/312 311/311/311
f 306/306/306 307/307/307 309/309/309
f 306/306/306 308/308/308 307/307/307
f 39/39/39 40/40/40 42/42/42
f 39/39/39 41/41/41 40/40/40
f 40/40/40 41/41/41 46/46/46
f 40/40/40 46/46/46 47/47/47
f 519/519/519 521/521/521 522/522/522
f 519/519/519 517/517/517 521/521/521
f 105/105/105 522/522/522 106/106/106
f 105/105/105 519/519/519 522/522/522
f 107/107/107 519/519/519 105/105/105
f 107/107/107 516/516/516 519/519/519
f 516/516/516 517/517/517 519/519/519
f 516/516/516 518/518/518 517/517/517
f 517/517/517 518/518/518 88/88/88
f 517/517/517 88/88/88 89/89/89
f 521/521/521 517/517/517 89/89/89
f 521/521/521 89/89/89 90/90/90
f 514/514/514 34/34/34 33/33/33
f 514/514/514 33/33/33 515/515/515
f 96/96/96 514/514/514 515/515/515
f 96/96/96 515/515/515 95/95/95
f 515/515/515 94/94/94 95/95/95
f 515/515/515 520/520/520 94/94/94
f 515/515/515 43/43/43 520/520/520
f 515/515/515 33/33/33 43/43/43
f 29/29/29 30/30/30 32/32/32
f 29/29/29 31/31/31 30/30/30
f 84/84/84 513/513/513 85/85/85
f 84/84/84 510/510/510 513/513/513
f 510/510/510 511/511/511 513/513/513
f 510/510/510 512/512/512 511/511/511
f 511/511/511 512/512/512 110/110/110
f 511/511/511 110/110/110 111/111/111
f 753/753/753 305/305/305 304/304/304
f 753/753/753 304/304/304 754/754/754
f 766/766/766 753/753/753 754/754/754
f 766/766/766 765/765/765 753/753/753
f 764/764/764 765/765/765 766/766/766
f 764/764/764 763/763/763 765/765/765
f 469/469/469 763/763/763 764/764/764
f 469/469/469 468/468/468 763/763/763
f 762/762/762 468/468/468 469/469/469
f 762/762/762 761/761/761 468/468/468
f 463/463/463 761/761/761 762/762/762
f 463/463/463 462/462/462 761/761/761
f 302/302/302 462/462/462 463/463/463
f 302/302/302 303/303/303 462/462/462
f 744/744/744 294/294/294 295/295/295
f 744/744/744 743/743/743 294/294/294
f 293/293/293 743/743/743 744/744/744
f 293/293/293 292/292/292 743/743/743
f 742/742/742 292/292/292 293/293/293
f 742/742/742 741/741/741 292/292/292
f 453/453/453 741/741/741 742/742/742
f 453/453/453 452/452/452 741/741/741
f 739/739/739 452/452/452 453/453/453
f 739/739/739 740/740/740 452/452/452
f 458/458/458 740/740/740 739/739/739
f 458/458/458 459/459/459 740/740/740
f 751/751/751 459/459/459 458/458/458
f 751/751/751 752/752/752 459/459/459
f 752/752/752 751/751/751 460/460/460
f 752/752/752 460/460/460 461/461/461
f 760/760/760 461/461/461 460/460/460
f 760/760/760 759/759/759 461/461/461
f 467/467/467 759/759/759 760/760/760
f 467/467/467 466/466/466 759/759/759
f 758/758/758 466/466/466 467/467/467
f 758/758/758 757/757/757 466/466/466
f 756/756/756 757/757/757 758/758/758
f 756/756/756 755/755/755 757/757/757
f 464/464/464 755/755/755 756/756/756
f 464/464/464 465/465/465 755/755/755
f 314/314/314 465/465/465 464/464/464
f 314/314/314 315/315/315 465/465/465
f 457/457/457 300/300/300 301/301/301
f 457/457/457 456/456/456 300/300/300
f 750/750/750 456/456/456 457/457/457
f 750/750/750 749/749/749 456/456/456
f 455/455/455 749/749/749 750/750/750
f 455/455/455 454/454/454 749/749/749
f 748/748/748 454/454/454 455/455/455
f 748/748/748 747/747/747 454/454/454
f 299/299/299 747/747/747 748/748/748
f 299/299/299 298/298/298 747/747/747
f 746/746/746 298/298/298 299/299/299
f 746/746/746 745/745/745 298/298/298
f 296/296/296 745/745/745 746/746/746
f 296/296/296 297/297/297 745/745/745
f 38/38/38 44/44/44 45/45/45
f 38/38/38 36/36/36 44/44/44
f 35/35/35 36/36/36 38/38/38
f 35/35/35 37/37/37 36/36/36
