# mdl2obj: faith_plate.mdl
g glass
v 15.1423 -0.9388 33.2019
v 15.1423 -0.9388 -38.5720
v 6.9034 -0.9388 -52.8422
v 30.2133 -0.9388 -62.2133
v 30.2133 -0.9388 62.2133
v 9.3029 -0.9388 47.7052
v -17.8134 -0.9388 -38.5720
v -25.0074 -0.9388 -3.6099
v -17.8134 -0.9388 -3.6099
v -25.0074 -0.9388 33.2019
v -13.0155 -0.9388 41.8658
v -13.0155 -0.9388 33.2019
v -7.1761 -0.9388 47.7052
v -30.2133 -0.9388 62.2133
v -12.9871 -0.9388 -50.2236
v -5.6003 -0.9388 -54.4884
v -30.2133 -0.9388 -62.2133
v 7.4318 -0.7689 27.4760
v -10.0901 -0.7689 27.4760
v -12.1402 -0.7689 25.0480
v -14.5682 -0.7689 21.8838
v -16.0945 -0.7689 18.1991
v 13.4234 -0.7689 18.1991
v 9.4691 -0.7689 25.0480
v 11.8971 -0.7689 21.8838
v -14.5682 -0.7689 -46.0311
v 11.8971 -0.7689 -46.0311
v -1.3371 -0.7689 -53.6701
v -1.3340 -0.7689 -53.6701
v 13.9440 -0.7689 14.2448
v 7.5288 -0.7689 16.3533
v -16.6151 -0.7689 14.2448
v -10.2874 -0.7689 16.2658
v 15.1423 -0.9388 41.8658
v 12.9347 -0.9388 -46.8109
v 13.4320 -0.9388 45.9949
v -11.3052 -0.9388 45.9949
v -8.9761 -0.7689 -51.6232
v -5.2913 -0.7689 -53.1495
v -16.0945 -0.7689 -42.3463
v -12.1403 -0.7689 -49.1953
v 13.4234 -0.7689 -42.3463
v 6.3050 -0.7689 -51.6232
v 2.6202 -0.7689 -53.1495
v 9.4692 -0.7689 -49.1953
v 13.9440 -0.7689 -38.3921
v -16.6151 -0.7689 -38.3921
v 15.1423 -0.9388 -3.6099
v 14.5808 -0.9388 -42.8368
v 14.6978 -0.9388 44.1005
v 10.3161 -0.9388 -50.2236
v 2.9292 -0.9388 -54.4884
v 11.5376 -0.9388 47.2608
v -17.2519 -0.9388 -42.8368
v -12.5710 -0.9388 44.1005
v -9.4107 -0.9388 47.2608
v -1.3355 -0.9388 47.7052
v 0.0000 -0.9388 47.7052
v 0.0000 -0.9388 62.2133
v -15.6058 -0.9388 -46.8109
v -9.5745 -0.9388 -52.8422
v 0.0000 -0.9388 -62.2133
v -1.3355 -0.9388 -55.0498
v 0.0000 -0.9388 -54.8740
vt 0.7194 0.2376
vt 0.7194 0.8049
vt 0.5957 0.9177
vt 0.9458 0.9917
vt 0.9458 0.0083
vt 0.6317 0.1229
vt 0.2245 0.8049
vt 0.1164 0.5285
vt 0.2245 0.5285
vt 0.1164 0.2376
vt 0.2965 0.1691
vt 0.2965 0.2376
vt 0.3842 0.1229
vt 0.0383 0.0083
vt 0.2970 0.8970
vt 0.4079 0.9307
vt 0.0383 0.9917
vt 0.6036 0.2828
vt 0.3405 0.2828
vt 0.3097 0.3020
vt 0.2732 0.3270
vt 0.2503 0.3562
vt 0.6936 0.3562
vt 0.6342 0.3020
vt 0.6707 0.3270
vt 0.2732 0.8638
vt 0.6707 0.8638
vt 0.4719 0.9242
vt 0.4720 0.9242
vt 0.7014 0.3874
vt 0.6051 0.3707
vt 0.2425 0.3874
vt 0.3375 0.3714
vt 0.7194 0.1691
vt 0.6863 0.8700
vt 0.6937 0.1365
vt 0.3222 0.1365
vt 0.3572 0.9080
vt 0.4125 0.9201
vt 0.2503 0.8347
vt 0.3097 0.8888
vt 0.6936 0.8347
vt 0.5867 0.9080
vt 0.5314 0.9201
vt 0.6342 0.8888
vt 0.7014 0.8035
vt 0.2425 0.8035
vt 0.7194 0.5285
vt 0.7110 0.8386
vt 0.7127 0.1514
vt 0.6469 0.8970
vt 0.5360 0.9307
vt 0.6653 0.1264
vt 0.2329 0.8386
vt 0.3032 0.1514
vt 0.3507 0.1264
vt 0.4720 0.1229
vt 0.4920 0.1229
vt 0.4920 0.0083
vt 0.2576 0.8700
vt 0.3482 0.9177
vt 0.4920 0.9917
vt 0.4720 0.9351
vt 0.4920 0.9337
vn 0.0000 1.0000 0.0000
vn 0.0000 1.0000 0.0000
vn 0.0000 1.0000 0.0000
vn 0.0000 1.0000 0.0000
vn 0.0000 1.0000 0.0000
vn 0.0000 1.0000 0.0000
vn 0.0000 1.0000 0.0000
vn 0.0000 1.0000 0.0000
vn 0.0000 1.0000 0.0000
vn 0.0000 1.0000 0.0000
vn 0.0000 1.0000 0.0000
vn 0.0000 1.0000 0.0000
vn 0.0000 1.0000 0.0000
vn 0.0000 1.0000 0.0000
vn 0.0000 1.0000 0.0000
vn 0.0000 1.0000 0.0000
vn 0.0000 1.0000 0.0000
vn -0.0000 1.0000 0.0000
vn -0.0000 1.0000 0.0000
vn -0.0000 1.0000 0.0000
vn -0.0000 1.0000 0.0000
vn -0.0000 1.0000 0.0000
vn -0.0000 1.0000 0.0000
vn -0.0000 1.0000 0.0000
vn -0.0000 1.0000 0.0000
vn -0.0000 1.0000 0.0000
vn -0.0000 1.0000 0.0000
vn -0.0000 1.0000 0.0000
vn -0.0000 1.0000 0.0000
vn -0.0000 1.0000 0.0000
vn -0.0000 1.0000 0.0000
vn -0.0000 1.0000 0.0000
vn -0.0000 1.0000 0.0000
vn 0.0000 1.0000 0.0000
vn 0.0000 1.0000 0.0000
vn 0.0000 1.0000 0.0000
vn 0.0000 1.0000 0.0000
vn -0.0000 1.0000 0.0000
vn -0.0000 1.0000 0.0000
vn -0.0000 1.0000 0.0000
vn -0.0000 1.0000 0.0000
vn -0.0000 1.0000 0.0000
vn -0.0000 1.0000 0.0000
vn -0.0000 1.0000 0.0000
vn -0.0000 1.0000 0.0000
vn -0.0000 1.0000 0.0000
vn -0.0000 1.0000 0.0000
vn 0.0000 1.0000 0.0000
vn 0.0000 1.0000 0.0000
vn 0.0000 1.0000 0.0000
vn 0.0000 1.0000 0.0000
vn 0.0000 1.0000 0.0000
vn 0.0000 1.0000 0.0000
vn 0.0000 1.0000 0.0000
vn 0.0000 1.0000 0.0000
vn 0.0000 1.0000 0.0000
vn 0.0000 1.0000 0.0000
vn 0.0000 1.0000 0.0000
vn 0.0000 1.0000 0.0000
vn 0.0000 1.0000 0.0000
vn 0.0000 1.0000 0.0000
vn 0.0000 1.0000 0.0000
vn 0.0000 1.0000 0.0000
vn 0.0000 1.0000 0.0000
f 45/45/45 42/42/42 27/27/27
f 45/45/45 43/43/43 44/44/44
f 45/45/45 44/44/44 29/29/29
f 45/45/45 29/29/29 46/46/46
f 45/45/45 46/46/46 42/42/42
f 41/41/41 39/39/39 38/38/38
f 41/41/41 28/28/28 39/39/39
f 41/41/41 47/47/47 28/28/28
f 47/47/47 29/29/29 28/28/28
f 47/47/47 46/46/46 29/29/29
f 47/47/47 30/30/30 46/46/46
f 41/41/41 40/40/40 47/47/47
f 41/41/41 26/26/26 40/40/40
f 33/33/33 20/20/20 19/19/19
f 33/33/33 21/21/21 20/20/20
f 33/33/33 22/22/22 21/21/21
f 33/33/33 32/32/32 22/22/22
f 47/47/47 32/32/32 33/33/33
f 47/47/47 33/33/33 31/31/31
f 47/47/47 31/31/31 30/30/30
f 31/31/31 23/23/23 30/30/30
f 31/31/31 25/25/25 23/23/23
f 31/31/31 24/24/24 25/25/25
f 31/31/31 18/18/18 24/24/24
f 14/14/14 10/10/10 17/17/17
f 10/10/10 8/8/8 17/17/17
f 9/9/9 7/7/7 8/8/8
f 17/17/17 8/8/8 7/7/7
f 54/54/54 17/17/17 7/7/7
f 60/60/60 17/17/17 54/54/54
f 15/15/15 17/17/17 60/60/60
f 61/61/61 17/17/17 15/15/15
f 16/16/16 17/17/17 61/61/61
f 63/63/63 17/17/17 16/16/16
f 62/62/62 17/17/17 63/63/63
f 64/64/64 62/62/62 63/63/63
f 62/62/62 64/64/64 4/4/4
f 64/64/64 52/52/52 4/4/4
f 52/52/52 3/3/3 4/4/4
f 3/3/3 51/51/51 4/4/4
f 51/51/51 35/35/35 4/4/4
f 35/35/35 49/49/49 4/4/4
f 4/4/4 49/49/49 5/5/5
f 49/49/49 2/2/2 5/5/5
f 2/2/2 48/48/48 5/5/5
f 48/48/48 1/1/1 5/5/5
f 1/1/1 34/34/34 5/5/5
f 34/34/34 50/50/50 5/5/5
f 36/36/36 5/5/5 50/50/50
f 53/53/53 5/5/5 36/36/36
f 6/6/6 5/5/5 53/53/53
f 59/59/59 5/5/5 6/6/6
f 58/58/58 59/59/59 6/6/6
f 59/59/59 58/58/58 14/14/14
f 58/58/58 57/57/57 14/14/14
f 57/57/57 13/13/13 14/14/14
f 13/13/13 56/56/56 14/14/14
f 56/56/56 37/37/37 14/14/14
f 37/37/37 55/55/55 14/14/14
f 55/55/55 11/11/11 14/14/14
f 11/11/11 10/10/10 14/14/14
f 12/12/12 10/10/10 11/11/11
