# mdl2obj: faith_plate.mdl
g frontpiston
v -2.0308 -20.9753 30.3157
v -2.0272 -20.9690 32.1281
v -7.3307 -20.9795 30.3264
v -2.0308 -20.9753 30.3157
v -7.3271 -20.9732 32.1388
v -7.3307 -20.9795 30.3264
v -7.3271 -20.9732 32.1388
v -2.0673 -3.7947 13.1832
v -2.1228 -2.4517 13.6714
v -7.4216 -2.6459 13.6015
v -7.3661 -3.9890 13.1133
v -2.1958 -2.1931 13.6029
v -2.0605 -3.9371 13.2743
v -7.4867 -2.5773 13.4633
v -7.3514 -4.3213 13.1347
v -2.0396 -10.4877 30.1099
v -2.0393 -8.8586 30.8936
v -7.3395 -10.4919 30.1206
v -7.3392 -8.8628 30.9043
v -2.0374 -9.2925 31.6512
v -2.0389 -10.5347 30.4176
v -7.3373 -9.2967 31.6619
v -7.3388 -10.5390 30.4283
v -2.0360 -10.0471 32.0904
v -2.0389 -10.9264 30.2809
v -2.0390 -10.5061 30.4009
v -2.0353 -10.9202 32.0934
v -7.3358 -10.0513 32.1011
v -7.3388 -10.9307 30.2916
v -7.3351 -10.9244 32.1041
v -7.3389 -10.5103 30.4116
v -2.0272 -20.9690 32.1281
v -7.3271 -20.9732 32.1388
v -2.1228 -2.4517 13.6714
v -7.4216 -2.6459 13.6015
v -7.4867 -2.5773 13.4633
v -2.1958 -2.1931 13.6029
v -2.0393 -8.8586 30.8936
v -7.3392 -8.8628 30.9043
v -2.0374 -9.2925 31.6512
v -7.3373 -9.2967 31.6619
v -2.0360 -10.0471 32.0904
v -7.3389 -10.5103 30.4116
v -2.0389 -10.9264 30.2809
v -2.0390 -10.5061 30.4009
v -7.3388 -10.9307 30.2916
v -2.0389 -10.5347 30.4176
v -7.3389 -10.5103 30.4116
v -2.0390 -10.5061 30.4009
v -7.3388 -10.5390 30.4283
v -2.0396 -10.4877 30.1099
v -7.3388 -10.5390 30.4283
v -2.0389 -10.5347 30.4176
v -7.3395 -10.4919 30.1206
v -7.3514 -4.3213 13.1347
v -2.0605 -3.9371 13.2743
v -7.3661 -3.9890 13.1133
v -2.0673 -3.7947 13.1832
v -2.0308 -20.9753 30.3157
v -7.3307 -20.9795 30.3264
v -7.3358 -10.0513 32.1011
v -2.0353 -10.9202 32.0934
v -7.3351 -10.9244 32.1041
v -2.0272 -20.9690 32.1281
vt 0.8050 0.0997
vt 0.8059 0.0652
vt 0.8077 0.0781
vt 0.8104 0.0652
vt 0.8059 0.0781
vt 0.8077 0.0781
vt 0.8050 0.0824
vt 0.9573 0.0994
vt 0.9573 0.0953
vt 0.9573 0.0824
vt 0.9566 0.0783
vt 0.9552 0.0953
vt 0.9552 0.0996
vt 0.9552 0.0824
vt 0.9551 0.0782
vt 0.8358 0.0997
vt 0.8358 0.0953
vt 0.8361 0.0781
vt 0.8358 0.0824
vt 0.8337 0.0953
vt 0.8337 0.0994
vt 0.8337 0.0824
vt 0.8344 0.0782
vt 0.8316 0.0953
vt 0.8294 0.0997
vt 0.8316 0.0994
vt 0.8294 0.0953
vt 0.8316 0.0824
vt 0.8312 0.0780
vt 0.8294 0.0824
vt 0.8330 0.0782
vt 0.8050 0.0953
vt 0.8050 0.0824
vt 0.9573 0.0953
vt 0.9573 0.0824
vt 0.9552 0.0824
vt 0.9552 0.0953
vt 0.8358 0.0953
vt 0.8358 0.0824
vt 0.8337 0.0953
vt 0.8337 0.0824
vt 0.8316 0.0953
vt 0.8330 0.0782
vt 0.8348 0.0653
vt 0.8358 0.0653
vt 0.8312 0.0780
vt 0.8359 0.0653
vt 0.8330 0.0782
vt 0.8358 0.0653
vt 0.8344 0.0782
vt 0.8367 0.0653
vt 0.8344 0.0782
vt 0.8359 0.0653
vt 0.8361 0.0781
vt 0.9551 0.0782
vt 0.9549 0.0653
vt 0.9566 0.0783
vt 0.9552 0.0653
vt 0.8104 0.0652
vt 0.8077 0.0781
vt 0.8316 0.0824
vt 0.8294 0.0953
vt 0.8294 0.0824
vt 0.8050 0.0953
vn 1.0000 0.0008 -0.0020
vn 0.0008 -0.9997 0.0235
vn 0.0008 -0.9997 0.0235
vn 0.0008 -0.9997 0.0235
vn 0.0008 -0.9997 0.0235
vn -1.0000 -0.0008 0.0020
vn -1.0000 -0.0008 0.0020
vn 0.5985 -0.1935 0.7774
vn 0.5985 -0.1935 0.7774
vn -0.3994 0.2424 -0.8842
vn -0.3994 0.2424 -0.8842
vn 0.6588 -0.1701 0.7328
vn 0.6588 -0.1701 0.7328
vn -0.4696 0.2210 -0.8548
vn -0.4696 0.2210 -0.8548
vn 1.0000 0.0008 -0.0020
vn 1.0000 0.0008 -0.0020
vn -1.0000 -0.0008 0.0020
vn -1.0000 -0.0008 0.0020
vn 1.0000 0.0008 -0.0020
vn 1.0000 0.0008 -0.0020
vn -1.0000 -0.0008 0.0020
vn -1.0000 -0.0008 0.0020
vn 1.0000 0.0008 -0.0020
vn 1.0000 0.0008 -0.0020
vn 1.0000 0.0008 -0.0020
vn 1.0000 0.0008 -0.0020
vn -1.0000 -0.0008 0.0020
vn -1.0000 -0.0008 0.0020
vn -1.0000 -0.0008 0.0020
vn -1.0000 -0.0008 0.0020
vn 0.0020 0.0035 1.0000
vn 0.0020 0.0035 1.0000
vn 0.1156 0.8039 -0.5834
vn 0.1156 0.8039 -0.5834
vn 0.0102 0.6371 -0.7707
vn 0.0102 0.6371 -0.7707
vn -0.0192 0.9051 0.4247
vn -0.0192 0.9051 0.4247
vn 0.0009 0.7095 0.7047
vn 0.0009 0.7095 0.7047
vn 0.0017 0.2622 0.9650
vn -0.0022 0.2744 -0.9616
vn -0.0021 0.1368 -0.9906
vn -0.0022 0.2744 -0.9616
vn -0.0021 0.1368 -0.9906
vn 0.0013 0.5030 0.8643
vn 0.0013 0.5030 0.8643
vn 0.0013 0.5030 0.8643
vn 0.0013 0.5030 0.8643
vn 0.0196 -0.9673 -0.2529
vn 0.0005 -0.9885 -0.1511
vn 0.0005 -0.9885 -0.1511
vn 0.0196 -0.9673 -0.2529
vn 0.0399 -0.6596 -0.7505
vn 0.0399 -0.6596 -0.7505
vn 0.0318 -0.2290 -0.9729
vn 0.0318 -0.2290 -0.9729
vn -0.0020 -0.0035 -1.0000
vn -0.0020 -0.0035 -1.0000
vn 0.0017 0.2622 0.9650
vn 0.0020 0.0035 1.0000
vn 0.0020 0.0035 1.0000
vn 1.0000 0.0008 -0.0020
f 5/5/5 4/4/4 2/2/2
f 5/5/5 3/3/3 4/4/4
f 13/13/13 8/8/8 9/9/9
f 13/13/13 9/9/9 12/12/12
f 17/17/17 13/13/13 12/12/12
f 17/17/17 16/16/16 13/13/13
f 21/21/21 16/16/16 17/17/17
f 21/21/21 17/17/17 20/20/20
f 24/24/24 21/21/21 20/20/20
f 24/24/24 26/26/26 21/21/21
f 27/27/27 26/26/26 24/24/24
f 27/27/27 25/25/25 26/26/26
f 1/1/1 25/25/25 27/27/27
f 1/1/1 27/27/27 64/64/64
f 35/35/35 37/37/37 34/34/34
f 35/35/35 36/36/36 37/37/37
f 37/37/37 36/36/36 39/39/39
f 37/37/37 39/39/39 38/38/38
f 39/39/39 40/40/40 38/38/38
f 39/39/39 41/41/41 40/40/40
f 41/41/41 42/42/42 40/40/40
f 41/41/41 61/61/61 42/42/42
f 61/61/61 62/62/62 42/42/42
f 61/61/61 63/63/63 62/62/62
f 62/62/62 63/63/63 33/33/33
f 62/62/62 33/33/33 32/32/32
f 47/47/47 48/48/48 50/50/50
f 47/47/47 49/49/49 48/48/48
f 11/11/11 14/14/14 10/10/10
f 11/11/11 15/15/15 14/14/14
f 15/15/15 19/19/19 14/14/14
f 15/15/15 18/18/18 19/19/19
f 19/19/19 18/18/18 23/23/23
f 19/19/19 23/23/23 22/22/22
f 23/23/23 28/28/28 22/22/22
f 23/23/23 31/31/31 28/28/28
f 31/31/31 30/30/30 28/28/28
f 31/31/31 29/29/29 30/30/30
f 29/29/29 7/7/7 30/30/30
f 29/29/29 6/6/6 7/7/7
f 57/57/57 58/58/58 56/56/56
f 57/57/57 56/56/56 55/55/55
f 51/51/51 55/55/55 56/56/56
f 51/51/51 54/54/54 55/55/55
f 51/51/51 52/52/52 54/54/54
f 51/51/51 53/53/53 52/52/52
f 59/59/59 60/60/60 46/46/46
f 59/59/59 46/46/46 44/44/44
f 43/43/43 44/44/44 46/46/46
f 43/43/43 45/45/45 44/44/44
